NotoSerifDisplay-CondensedSemiBoldItalic.ufo
<glyph name="exclam" format="2">
  <advance width="328"/>
  <unicode hex="0021"/>
  <outline>
    <contour>
      <point x="153" y="225" type="line"/>
      <point x="165" y="225" type="line"/>
      <point x="346" y="714" type="line"/>
      <point x="198" y="714" type="line"/>
    </contour>
    <contour>
      <point x="128" y="-7" type="curve" smooth="yes"/>
      <point x="165" y="-7"/>
      <point x="202" y="20"/>
      <point x="202" y="79" type="curve" smooth="yes"/>
      <point x="202" y="120"/>
      <point x="177" y="140"/>
      <point x="140" y="140" type="curve" smooth="yes"/>
      <point x="94" y="140"/>
      <point x="66" y="103"/>
      <point x="66" y="54" type="curve" smooth="yes"/>
      <point x="66" y="12"/>
      <point x="91" y="-7"/>
    </contour>
  </outline>
</glyph>
<glyph name="numbersign" format="2">
  <advance width="452"/>
  <unicode hex="0023"/>
  <outline>
    <contour>
      <point x="63" y="0" type="line"/>
      <point x="72" y="0" type="line"/>
      <point x="135" y="228" type="line"/>
      <point x="283" y="228" type="line"/>
      <point x="220" y="0" type="line"/>
      <point x="229" y="0" type="line"/>
      <point x="292" y="228" type="line"/>
      <point x="390" y="228" type="line"/>
      <point x="392" y="238" type="line"/>
      <point x="295" y="238" type="line"/>
      <point x="364" y="490" type="line"/>
      <point x="461" y="490" type="line"/>
      <point x="463" y="500" type="line"/>
      <point x="367" y="500" type="line"/>
      <point x="426" y="714" type="line"/>
      <point x="416" y="714" type="line"/>
      <point x="357" y="500" type="line"/>
      <point x="210" y="500" type="line"/>
      <point x="269" y="714" type="line"/>
      <point x="259" y="714" type="line"/>
      <point x="200" y="500" type="line"/>
      <point x="103" y="500" type="line"/>
      <point x="101" y="490" type="line"/>
      <point x="198" y="490" type="line"/>
      <point x="128" y="238" type="line"/>
      <point x="31" y="238" type="line"/>
      <point x="29" y="228" type="line"/>
      <point x="126" y="228" type="line"/>
    </contour>
    <contour>
      <point x="138" y="238" type="line"/>
      <point x="207" y="490" type="line"/>
      <point x="355" y="490" type="line"/>
      <point x="285" y="238" type="line"/>
    </contour>
  </outline>
</glyph>
<glyph name="dollar" format="2">
  <advance width="485"/>
  <unicode hex="0024"/>
  <outline>
    <contour>
      <point x="192" y="33" type="curve"/>
      <point x="168" y="-79" type="line"/>
      <point x="178" y="-79" type="line"/>
      <point x="202" y="33" type="line"/>
      <point x="351" y="33"/>
      <point x="441" y="106"/>
      <point x="441" y="241" type="curve" smooth="yes"/>
      <point x="441" y="303"/>
      <point x="410" y="350"/>
      <point x="316" y="414" type="curve" smooth="yes"/>
      <point x="286" y="433" type="line"/>
      <point x="337" y="672" type="line"/>
      <point x="385" y="668"/>
      <point x="400" y="622"/>
      <point x="400" y="515" type="curve"/>
      <point x="476" y="515"/>
      <point x="508" y="543"/>
      <point x="508" y="584" type="curve" smooth="yes"/>
      <point x="508" y="638"/>
      <point x="452" y="680"/>
      <point x="339" y="682" type="curve"/>
      <point x="356" y="760" type="line"/>
      <point x="346" y="760" type="line"/>
      <point x="329" y="682" type="line"/>
      <point x="188" y="680"/>
      <point x="107" y="602"/>
      <point x="107" y="489" type="curve" smooth="yes"/>
      <point x="107" y="394"/>
      <point x="164" y="356"/>
      <point x="228" y="314" type="curve" smooth="yes"/>
      <point x="248" y="300" type="line"/>
      <point x="194" y="42" type="line"/>
      <point x="132" y="46"/>
      <point x="116" y="96"/>
      <point x="116" y="233" type="curve"/>
      <point x="48" y="232"/>
      <point x="9" y="207"/>
      <point x="9" y="153" type="curve" smooth="yes"/>
      <point x="9" y="84"/>
      <point x="74" y="37"/>
    </contour>
    <contour>
      <point x="204" y="42" type="curve"/>
      <point x="257" y="293" type="line"/>
      <point x="307" y="256"/>
      <point x="328" y="226"/>
      <point x="328" y="167" type="curve" smooth="yes"/>
      <point x="328" y="101"/>
      <point x="299" y="43"/>
    </contour>
    <contour>
      <point x="327" y="673" type="curve"/>
      <point x="278" y="440" type="line"/>
      <point x="242" y="469"/>
      <point x="223" y="496"/>
      <point x="223" y="550" type="curve" smooth="yes"/>
      <point x="223" y="621"/>
      <point x="257" y="672"/>
    </contour>
  </outline>
</glyph>
<glyph name="ampersand" format="2">
  <advance width="662"/>
  <unicode hex="0026"/>
  <outline>
    <contour>
      <point x="231" y="-10" type="curve" smooth="yes"/>
      <point x="313" y="-10"/>
      <point x="362" y="31"/>
      <point x="400" y="72" type="curve"/>
      <point x="436" y="0" type="line"/>
      <point x="600" y="0" type="line"/>
      <point x="602" y="10" type="line"/>
      <point x="593" y="10" type="line" smooth="yes"/>
      <point x="578" y="10"/>
      <point x="570" y="12"/>
      <point x="545" y="54" type="curve" smooth="yes"/>
      <point x="477" y="172" type="line"/>
      <point x="503" y="220"/>
      <point x="529" y="288"/>
      <point x="567" y="371" type="curve" smooth="yes"/>
      <point x="583" y="408"/>
      <point x="597" y="414"/>
      <point x="634" y="414" type="curve" smooth="yes"/>
      <point x="653" y="414" type="line"/>
      <point x="654" y="424" type="line"/>
      <point x="498" y="424" type="line"/>
      <point x="488" y="383" type="line" smooth="yes"/>
      <point x="477" y="337"/>
      <point x="460" y="274"/>
      <point x="442" y="226" type="curve"/>
      <point x="336" y="424" type="line"/>
      <point x="453" y="480"/>
      <point x="510" y="514"/>
      <point x="510" y="597" type="curve" smooth="yes"/>
      <point x="510" y="667"/>
      <point x="461" y="724"/>
      <point x="362" y="724" type="curve" smooth="yes"/>
      <point x="253" y="724"/>
      <point x="175" y="662"/>
      <point x="175" y="553" type="curve" smooth="yes"/>
      <point x="175" y="487"/>
      <point x="200" y="442"/>
      <point x="230" y="386" type="curve"/>
      <point x="126" y="351"/>
      <point x="29" y="299"/>
      <point x="29" y="175" type="curve" smooth="yes"/>
      <point x="29" y="68"/>
      <point x="86" y="-10"/>
    </contour>
    <contour>
      <point x="245" y="0" type="curve" smooth="yes"/>
      <point x="182" y="0"/>
      <point x="153" y="52"/>
      <point x="153" y="175" type="curve" smooth="yes"/>
      <point x="153" y="282"/>
      <point x="185" y="337"/>
      <point x="234" y="376" type="curve"/>
      <point x="378" y="110" type="line"/>
      <point x="347" y="48"/>
      <point x="308" y="0"/>
    </contour>
    <contour>
      <point x="332" y="434" type="curve" smooth="yes"/>
      <point x="307" y="475"/>
      <point x="282" y="527"/>
      <point x="282" y="584" type="curve" smooth="yes"/>
      <point x="282" y="663"/>
      <point x="312" y="714"/>
      <point x="362" y="714" type="curve" smooth="yes"/>
      <point x="401" y="714"/>
      <point x="420" y="670"/>
      <point x="420" y="604" type="curve" smooth="yes"/>
      <point x="420" y="534"/>
      <point x="397" y="470"/>
    </contour>
  </outline>
</glyph>
<glyph name="parenleft" format="2">
  <advance width="331"/>
  <unicode hex="0028"/>
  <outline>
    <contour>
      <point x="221" y="-139" type="curve"/>
      <point x="222" y="-129" type="line"/>
      <point x="184" y="-87"/>
      <point x="156" y="3"/>
      <point x="156" y="194" type="curve" smooth="yes"/>
      <point x="156" y="333"/>
      <point x="213" y="654"/>
      <point x="388" y="762" type="curve"/>
      <point x="390" y="772" type="line"/>
      <point x="138" y="707"/>
      <point x="30" y="465"/>
      <point x="30" y="214" type="curve" smooth="yes"/>
      <point x="30" y="41"/>
      <point x="94" y="-86"/>
    </contour>
  </outline>
</glyph>
<glyph name="parenright" format="2">
  <advance width="329"/>
  <unicode hex="0029"/>
  <outline>
    <contour>
      <point x="-38" y="-133" type="line"/>
      <point x="213" y="-69"/>
      <point x="321" y="174"/>
      <point x="321" y="424" type="curve" smooth="yes"/>
      <point x="321" y="598"/>
      <point x="257" y="724"/>
      <point x="130" y="777" type="curve"/>
      <point x="129" y="768" type="line"/>
      <point x="167" y="725"/>
      <point x="195" y="635"/>
      <point x="195" y="445" type="curve" smooth="yes"/>
      <point x="195" y="305"/>
      <point x="139" y="-16"/>
      <point x="-37" y="-123" type="curve"/>
    </contour>
  </outline>
</glyph>
<glyph name="asterisk" format="2">
  <advance width="473"/>
  <unicode hex="002A"/>
  <outline>
    <contour>
      <point x="306" y="376" type="line"/>
      <point x="304" y="556" type="line"/>
      <point x="407" y="418" type="line"/>
      <point x="460" y="492" type="line"/>
      <point x="313" y="569" type="line"/>
      <point x="479" y="576" type="line"/>
      <point x="460" y="668" type="line"/>
      <point x="309" y="583" type="line"/>
      <point x="385" y="746" type="line"/>
      <point x="296" y="765" type="line"/>
      <point x="296" y="586" type="line"/>
      <point x="194" y="727" type="line"/>
      <point x="141" y="650" type="line"/>
      <point x="288" y="573" type="line"/>
      <point x="122" y="564" type="line"/>
      <point x="140" y="473" type="line"/>
      <point x="291" y="559" type="line"/>
      <point x="218" y="394" type="line"/>
    </contour>
  </outline>
</glyph>
<glyph name="comma" format="2">
  <advance width="240"/>
  <unicode hex="002C"/>
  <outline>
    <contour>
      <point x="-34" y="-151" type="line"/>
      <point x="98" y="-118"/>
      <point x="156" y="-36"/>
      <point x="156" y="61" type="curve" smooth="yes"/>
      <point x="156" y="111"/>
      <point x="131" y="139"/>
      <point x="87" y="139" type="curve" smooth="yes"/>
      <point x="52" y="139"/>
      <point x="30" y="116"/>
      <point x="30" y="82" type="curve" smooth="yes"/>
      <point x="30" y="23"/>
      <point x="79" y="24"/>
      <point x="79" y="-31" type="curve" smooth="yes"/>
      <point x="79" y="-85"/>
      <point x="29" y="-123"/>
      <point x="-32" y="-141" type="curve"/>
    </contour>
  </outline>
</glyph>
<glyph name="period" format="2">
  <advance width="238"/>
  <unicode hex="002E"/>
  <outline>
    <contour>
      <point x="81" y="-7" type="curve" smooth="yes"/>
      <point x="117" y="-7"/>
      <point x="155" y="18"/>
      <point x="155" y="79" type="curve" smooth="yes"/>
      <point x="155" y="119"/>
      <point x="130" y="140"/>
      <point x="91" y="140" type="curve" smooth="yes"/>
      <point x="46" y="140"/>
      <point x="17" y="104"/>
      <point x="17" y="54" type="curve" smooth="yes"/>
      <point x="17" y="12"/>
      <point x="43" y="-7"/>
    </contour>
  </outline>
</glyph>
<glyph name="one" format="2">
  <advance width="485"/>
  <unicode hex="0031"/>
  <outline>
    <contour>
      <point x="38" y="0" type="line"/>
      <point x="375" y="0" type="line"/>
      <point x="378" y="10" type="line"/>
      <point x="344" y="10" type="line" smooth="yes"/>
      <point x="295" y="10"/>
      <point x="280" y="13"/>
      <point x="280" y="36" type="curve" smooth="yes"/>
      <point x="280" y="51"/>
      <point x="284" y="71"/>
      <point x="286" y="82" type="curve" smooth="yes"/>
      <point x="420" y="718" type="line"/>
      <point x="374" y="718" type="line"/>
      <point x="297" y="665" type="line" smooth="yes"/>
      <point x="233" y="614"/>
      <point x="199" y="592"/>
      <point x="117" y="592" type="curve"/>
      <point x="117" y="544"/>
      <point x="132" y="525"/>
      <point x="159" y="525" type="curve" smooth="yes"/>
      <point x="196" y="525"/>
      <point x="224" y="551"/>
      <point x="284" y="643" type="curve"/>
      <point x="286" y="643" type="line"/>
      <point x="275" y="605"/>
      <point x="255" y="530"/>
      <point x="243" y="470" type="curve" smooth="yes"/>
      <point x="160" y="67" type="line" smooth="yes"/>
      <point x="151" y="22"/>
      <point x="127" y="10"/>
      <point x="83" y="10" type="curve" smooth="yes"/>
      <point x="40" y="10" type="line"/>
    </contour>
  </outline>
</glyph>
<glyph name="four" format="2">
  <advance width="485"/>
  <unicode hex="0034"/>
  <outline>
    <contour>
      <point x="114" y="0" type="line"/>
      <point x="401" y="0" type="line"/>
      <point x="403" y="10" type="line"/>
      <point x="387" y="10" type="line" smooth="yes"/>
      <point x="355" y="10"/>
      <point x="340" y="15"/>
      <point x="340" y="47" type="curve" smooth="yes"/>
      <point x="340" y="53"/>
      <point x="342" y="73"/>
      <point x="344" y="82" type="curve" smooth="yes"/>
      <point x="476" y="714" type="line"/>
      <point x="355" y="714" type="line"/>
      <point x="36" y="250" type="line"/>
      <point x="24" y="188" type="line"/>
      <point x="448" y="188" type="line"/>
      <point x="459" y="249" type="line"/>
      <point x="45" y="249" type="line"/>
      <point x="47" y="245" type="line"/>
      <point x="266" y="565" type="line" smooth="yes"/>
      <point x="295" y="608"/>
      <point x="331" y="658"/>
      <point x="356" y="700" type="curve"/>
      <point x="341" y="638"/>
      <point x="327" y="592"/>
      <point x="315" y="538" type="curve" smooth="yes"/>
      <point x="217" y="80" type="line" smooth="yes"/>
      <point x="205" y="24"/>
      <point x="189" y="10"/>
      <point x="148" y="10" type="curve" smooth="yes"/>
      <point x="116" y="10" type="line"/>
    </contour>
  </outline>
</glyph>
<glyph name="five" format="2">
  <advance width="485"/>
  <unicode hex="0035"/>
  <outline>
    <contour>
      <point x="172" y="-10" type="curve" smooth="yes"/>
      <point x="357" y="-10"/>
      <point x="429" y="122"/>
      <point x="429" y="251" type="curve" smooth="yes"/>
      <point x="429" y="372"/>
      <point x="360" y="435"/>
      <point x="248" y="435" type="curve" smooth="yes"/>
      <point x="197" y="435"/>
      <point x="132" y="418"/>
      <point x="103" y="380" type="curve"/>
      <point x="167" y="610" type="line"/>
      <point x="437" y="610" type="line" smooth="yes"/>
      <point x="454" y="610"/>
      <point x="459" y="601"/>
      <point x="459" y="585" type="curve" smooth="yes"/>
      <point x="459" y="575"/>
      <point x="456" y="553"/>
      <point x="455" y="532" type="curve"/>
      <point x="464" y="532" type="line"/>
      <point x="497" y="714" type="line"/>
      <point x="183" y="714" type="line"/>
      <point x="88" y="365" type="line"/>
      <point x="96" y="361" type="line"/>
      <point x="127" y="396"/>
      <point x="174" y="420"/>
      <point x="214" y="420" type="curve" smooth="yes"/>
      <point x="274" y="420"/>
      <point x="301" y="375"/>
      <point x="301" y="268" type="curve" smooth="yes"/>
      <point x="301" y="126"/>
      <point x="251" y="0"/>
      <point x="170" y="0" type="curve" smooth="yes"/>
      <point x="110" y="0"/>
      <point x="91" y="75"/>
      <point x="92" y="197" type="curve"/>
      <point x="39" y="197"/>
      <point x="15" y="161"/>
      <point x="15" y="119" type="curve" smooth="yes"/>
      <point x="15" y="53"/>
      <point x="59" y="-10"/>
    </contour>
  </outline>
</glyph>
<glyph name="six" format="2">
  <advance width="485"/>
  <unicode hex="0036"/>
  <outline>
    <contour>
      <point x="240" y="-10" type="curve" smooth="yes"/>
      <point x="393" y="-10"/>
      <point x="457" y="138"/>
      <point x="457" y="272" type="curve" smooth="yes"/>
      <point x="457" y="371"/>
      <point x="416" y="438"/>
      <point x="320" y="438" type="curve" smooth="yes"/>
      <point x="262" y="438"/>
      <point x="222" y="413"/>
      <point x="195" y="384" type="curve"/>
      <point x="230" y="600"/>
      <point x="297" y="714"/>
      <point x="360" y="714" type="curve" smooth="yes"/>
      <point x="408" y="714"/>
      <point x="413" y="653"/>
      <point x="412" y="542" type="curve"/>
      <point x="477" y="542"/>
      <point x="519" y="570"/>
      <point x="519" y="616" type="curve" smooth="yes"/>
      <point x="519" y="675"/>
      <point x="474" y="724"/>
      <point x="378" y="724" type="curve" smooth="yes"/>
      <point x="150" y="724"/>
      <point x="60" y="450"/>
      <point x="60" y="240" type="curve" smooth="yes"/>
      <point x="60" y="57"/>
      <point x="139" y="-10"/>
    </contour>
    <contour>
      <point x="237" y="0" type="curve" smooth="yes"/>
      <point x="201" y="0"/>
      <point x="177" y="41"/>
      <point x="177" y="163" type="curve" smooth="yes"/>
      <point x="177" y="248"/>
      <point x="185" y="323"/>
      <point x="194" y="372" type="curve"/>
      <point x="217" y="400"/>
      <point x="250" y="419"/>
      <point x="280" y="419" type="curve" smooth="yes"/>
      <point x="320" y="419"/>
      <point x="342" y="384"/>
      <point x="342" y="297" type="curve" smooth="yes"/>
      <point x="342" y="137"/>
      <point x="304" y="0"/>
    </contour>
  </outline>
</glyph>
<glyph name="nine" format="2">
  <advance width="485"/>
  <unicode hex="0039"/>
  <outline>
    <contour>
      <point x="165" y="-10" type="curve" smooth="yes"/>
      <point x="397" y="-10"/>
      <point x="474" y="306"/>
      <point x="474" y="506" type="curve" smooth="yes"/>
      <point x="474" y="641"/>
      <point x="413" y="724"/>
      <point x="301" y="724" type="curve" smooth="yes"/>
      <point x="152" y="724"/>
      <point x="78" y="592"/>
      <point x="78" y="447" type="curve" smooth="yes"/>
      <point x="78" y="351"/>
      <point x="123" y="280"/>
      <point x="207" y="280" type="curve" smooth="yes"/>
      <point x="268" y="280"/>
      <point x="314" y="310"/>
      <point x="342" y="350" type="curve"/>
      <point x="300" y="123"/>
      <point x="251" y="0"/>
      <point x="167" y="0" type="curve" smooth="yes"/>
      <point x="106" y="0"/>
      <point x="88" y="44"/>
      <point x="88" y="166" type="curve"/>
      <point x="47" y="166"/>
      <point x="22" y="141"/>
      <point x="22" y="99" type="curve" smooth="yes"/>
      <point x="22" y="39"/>
      <point x="67" y="-10"/>
    </contour>
    <contour>
      <point x="249" y="303" type="curve" smooth="yes"/>
      <point x="207" y="303"/>
      <point x="193" y="346"/>
      <point x="193" y="429" type="curve" smooth="yes"/>
      <point x="193" y="559"/>
      <point x="229" y="714"/>
      <point x="300" y="714" type="curve" smooth="yes"/>
      <point x="343" y="714"/>
      <point x="358" y="659"/>
      <point x="358" y="551" type="curve" smooth="yes"/>
      <point x="358" y="495"/>
      <point x="351" y="403"/>
      <point x="346" y="374" type="curve"/>
      <point x="325" y="341"/>
      <point x="293" y="303"/>
    </contour>
  </outline>
</glyph>
<glyph name="colon" format="2">
  <advance width="301"/>
  <unicode hex="003A"/>
  <outline>
    <contour>
      <point x="101" y="-7" type="curve" smooth="yes"/>
      <point x="137" y="-7"/>
      <point x="175" y="18"/>
      <point x="175" y="79" type="curve" smooth="yes"/>
      <point x="175" y="119"/>
      <point x="150" y="140"/>
      <point x="111" y="140" type="curve" smooth="yes"/>
      <point x="66" y="140"/>
      <point x="37" y="104"/>
      <point x="37" y="54" type="curve" smooth="yes"/>
      <point x="37" y="12"/>
      <point x="63" y="-7"/>
    </contour>
    <contour>
      <point x="189" y="394" type="curve" smooth="yes"/>
      <point x="225" y="394"/>
      <point x="263" y="419"/>
      <point x="263" y="479" type="curve" smooth="yes"/>
      <point x="263" y="520"/>
      <point x="238" y="542"/>
      <point x="199" y="542" type="curve" smooth="yes"/>
      <point x="154" y="542"/>
      <point x="125" y="505"/>
      <point x="125" y="455" type="curve" smooth="yes"/>
      <point x="125" y="413"/>
      <point x="151" y="394"/>
    </contour>
  </outline>
</glyph>
<glyph name="semicolon" format="2">
  <advance width="300"/>
  <unicode hex="003B"/>
  <outline>
    <contour>
      <point x="-26" y="-151" type="line"/>
      <point x="107" y="-118"/>
      <point x="164" y="-36"/>
      <point x="164" y="61" type="curve" smooth="yes"/>
      <point x="164" y="111"/>
      <point x="139" y="139"/>
      <point x="95" y="139" type="curve" smooth="yes"/>
      <point x="61" y="139"/>
      <point x="39" y="116"/>
      <point x="39" y="82" type="curve" smooth="yes"/>
      <point x="39" y="23"/>
      <point x="88" y="24"/>
      <point x="88" y="-31" type="curve" smooth="yes"/>
      <point x="88" y="-85"/>
      <point x="38" y="-123"/>
      <point x="-24" y="-141" type="curve"/>
    </contour>
    <contour>
      <point x="189" y="393" type="curve" smooth="yes"/>
      <point x="225" y="393"/>
      <point x="263" y="418"/>
      <point x="263" y="479" type="curve" smooth="yes"/>
      <point x="263" y="520"/>
      <point x="238" y="541"/>
      <point x="199" y="541" type="curve" smooth="yes"/>
      <point x="154" y="541"/>
      <point x="125" y="504"/>
      <point x="125" y="454" type="curve" smooth="yes"/>
      <point x="125" y="413"/>
      <point x="151" y="393"/>
    </contour>
  </outline>
</glyph>
<glyph name="equal" format="2">
  <advance width="425"/>
  <unicode hex="003D"/>
  <outline>
    <contour>
      <point x="70" y="447" type="line"/>
      <point x="392" y="447" type="line"/>
      <point x="392" y="467" type="line"/>
      <point x="70" y="467" type="line"/>
    </contour>
    <contour>
      <point x="70" y="248" type="line"/>
      <point x="392" y="248" type="line"/>
      <point x="392" y="268" type="line"/>
      <point x="70" y="268" type="line"/>
    </contour>
  </outline>
</glyph>
<glyph name="question" format="2">
  <advance width="437"/>
  <unicode hex="003F"/>
  <outline>
    <contour>
      <point x="160" y="350" type="curve"/>
      <point x="180" y="225" type="line"/>
      <point x="191" y="225" type="line"/>
      <point x="244" y="346" type="line"/>
      <point x="363" y="383"/>
      <point x="458" y="450"/>
      <point x="458" y="574" type="curve" smooth="yes"/>
      <point x="458" y="677"/>
      <point x="390" y="724"/>
      <point x="280" y="724" type="curve" smooth="yes"/>
      <point x="160" y="724"/>
      <point x="89" y="662"/>
      <point x="89" y="592" type="curve" smooth="yes"/>
      <point x="89" y="542"/>
      <point x="123" y="518"/>
      <point x="195" y="518" type="curve"/>
      <point x="197" y="664"/>
      <point x="219" y="714"/>
      <point x="270" y="714" type="curve" smooth="yes"/>
      <point x="305" y="714"/>
      <point x="332" y="697"/>
      <point x="332" y="602" type="curve" smooth="yes"/>
      <point x="332" y="483"/>
      <point x="304" y="386"/>
    </contour>
    <contour>
      <point x="157" y="-7" type="curve" smooth="yes"/>
      <point x="193" y="-7"/>
      <point x="231" y="18"/>
      <point x="231" y="79" type="curve" smooth="yes"/>
      <point x="231" y="119"/>
      <point x="206" y="140"/>
      <point x="167" y="140" type="curve" smooth="yes"/>
      <point x="122" y="140"/>
      <point x="93" y="104"/>
      <point x="93" y="54" type="curve" smooth="yes"/>
      <point x="93" y="12"/>
      <point x="119" y="-7"/>
    </contour>
  </outline>
</glyph>
<glyph name="B" format="2">
  <advance width="556"/>
  <unicode hex="0042"/>
  <anchor x="206" y="0" name="bottom"/>
  <anchor x="358" y="714" name="top"/>
  <anchor x="615" y="714" name="topright"/>
  <outline>
    <contour>
      <point x="-34" y="0" type="line"/>
      <point x="233" y="0" type="line" smooth="yes"/>
      <point x="451" y="0"/>
      <point x="526" y="106"/>
      <point x="526" y="225" type="curve" smooth="yes"/>
      <point x="526" y="318"/>
      <point x="465" y="371"/>
      <point x="371" y="377" type="curve"/>
      <point x="372" y="381" type="line"/>
      <point x="495" y="394"/>
      <point x="573" y="459"/>
      <point x="573" y="573" type="curve" smooth="yes"/>
      <point x="573" y="666"/>
      <point x="513" y="714"/>
      <point x="384" y="714" type="curve" smooth="yes"/>
      <point x="116" y="714" type="line"/>
      <point x="114" y="704" type="line"/>
      <point x="131" y="704" type="line" smooth="yes"/>
      <point x="165" y="704"/>
      <point x="183" y="699"/>
      <point x="183" y="680" type="curve" smooth="yes"/>
      <point x="183" y="669"/>
      <point x="177" y="650"/>
      <point x="175" y="637" type="curve" smooth="yes"/>
      <point x="53" y="59" type="line" smooth="yes"/>
      <point x="44" y="16"/>
      <point x="16" y="10"/>
      <point x="-17" y="10" type="curve" smooth="yes"/>
      <point x="-31" y="10" type="line"/>
    </contour>
    <contour>
      <point x="179" y="10" type="line"/>
      <point x="256" y="374" type="line"/>
      <point x="286" y="374" type="line" smooth="yes"/>
      <point x="352" y="374"/>
      <point x="389" y="339"/>
      <point x="389" y="253" type="curve" smooth="yes"/>
      <point x="389" y="148"/>
      <point x="347" y="10"/>
      <point x="229" y="10" type="curve" smooth="yes"/>
    </contour>
    <contour>
      <point x="259" y="384" type="line"/>
      <point x="323" y="704" type="line"/>
      <point x="353" y="704" type="line" smooth="yes"/>
      <point x="402" y="704"/>
      <point x="437" y="680"/>
      <point x="437" y="605" type="curve" smooth="yes"/>
      <point x="437" y="504"/>
      <point x="396" y="384"/>
      <point x="293" y="384" type="curve" smooth="yes"/>
    </contour>
  </outline>
</glyph>
<glyph name="C" format="2">
  <advance width="554"/>
  <unicode hex="0043"/>
  <anchor x="267" y="0" name="bottom"/>
  <anchor x="416" y="714" name="top"/>
  <anchor x="611" y="714" name="topright"/>
  <outline>
    <contour>
      <point x="284" y="-10" type="curve" smooth="yes"/>
      <point x="425" y="-10"/>
      <point x="493" y="70"/>
      <point x="493" y="125" type="curve" smooth="yes"/>
      <point x="493" y="141"/>
      <point x="487" y="150"/>
      <point x="478" y="159" type="curve"/>
      <point x="451" y="76"/>
      <point x="406" y="4"/>
      <point x="328" y="4" type="curve" smooth="yes"/>
      <point x="245" y="4"/>
      <point x="196" y="87"/>
      <point x="196" y="243" type="curve" smooth="yes"/>
      <point x="196" y="455"/>
      <point x="281" y="716"/>
      <point x="400" y="716" type="curve" smooth="yes"/>
      <point x="456" y="716"/>
      <point x="470" y="648"/>
      <point x="470" y="524" type="curve"/>
      <point x="538" y="524"/>
      <point x="590" y="553"/>
      <point x="590" y="612" type="curve" smooth="yes"/>
      <point x="590" y="680"/>
      <point x="537" y="727"/>
      <point x="427" y="727" type="curve" smooth="yes"/>
      <point x="147" y="727"/>
      <point x="54" y="450"/>
      <point x="54" y="252" type="curve" smooth="yes"/>
      <point x="54" y="82"/>
      <point x="143" y="-10"/>
    </contour>
  </outline>
</glyph>
<glyph name="D" format="2">
  <advance width="636"/>
  <unicode hex="0044"/>
  <anchor x="244" y="0" name="bottom"/>
  <anchor x="339" y="357" name="center"/>
  <anchor x="396" y="714" name="top"/>
  <anchor x="689" y="714" name="topright"/>
  <outline>
    <contour>
      <point x="-34" y="0" type="line"/>
      <point x="253" y="0" type="line" smooth="yes"/>
      <point x="492" y="0"/>
      <point x="620" y="219"/>
      <point x="620" y="457" type="curve" smooth="yes"/>
      <point x="620" y="624"/>
      <point x="535" y="714"/>
      <point x="380" y="714" type="curve" smooth="yes"/>
      <point x="117" y="714" type="line"/>
      <point x="114" y="704" type="line"/>
      <point x="131" y="704" type="line" smooth="yes"/>
      <point x="164" y="704"/>
      <point x="183" y="699"/>
      <point x="183" y="680" type="curve" smooth="yes"/>
      <point x="183" y="671"/>
      <point x="179" y="657"/>
      <point x="175" y="640" type="curve" smooth="yes"/>
      <point x="55" y="62" type="line" smooth="yes"/>
      <point x="45" y="17"/>
      <point x="18" y="10"/>
      <point x="-16" y="10" type="curve" smooth="yes"/>
      <point x="-31" y="10" type="line"/>
    </contour>
    <contour>
      <point x="179" y="10" type="line"/>
      <point x="323" y="704" type="line"/>
      <point x="348" y="704" type="line" smooth="yes"/>
      <point x="444" y="704"/>
      <point x="477" y="623"/>
      <point x="477" y="486" type="curve" smooth="yes"/>
      <point x="477" y="232"/>
      <point x="372" y="10"/>
      <point x="207" y="10" type="curve" smooth="yes"/>
    </contour>
  </outline>
</glyph>
<glyph name="E" format="2">
  <advance width="513"/>
  <unicode hex="0045"/>
  <anchor x="193" y="0" name="bottom"/>
  <anchor x="372" y="714" name="top"/>
  <anchor x="588" y="714" name="topright"/>
  <outline>
    <contour>
      <point x="-34" y="0" type="line"/>
      <point x="435" y="0" type="line"/>
      <point x="472" y="147" type="line"/>
      <point x="460" y="147" type="line"/>
      <point x="444" y="94" type="line" smooth="yes"/>
      <point x="429" y="41"/>
      <point x="403" y="10"/>
      <point x="353" y="10" type="curve" smooth="yes"/>
      <point x="177" y="10" type="line"/>
      <point x="252" y="365" type="line"/>
      <point x="434" y="365" type="line"/>
      <point x="436" y="376" type="line"/>
      <point x="256" y="376" type="line"/>
      <point x="325" y="704" type="line"/>
      <point x="479" y="704" type="line" smooth="yes"/>
      <point x="517" y="704"/>
      <point x="531" y="687"/>
      <point x="531" y="647" type="curve" smooth="yes"/>
      <point x="531" y="627"/>
      <point x="525" y="585"/>
      <point x="523" y="567" type="curve"/>
      <point x="533" y="567" type="line"/>
      <point x="562" y="714" type="line"/>
      <point x="116" y="714" type="line"/>
      <point x="114" y="704" type="line"/>
      <point x="132" y="704" type="line" smooth="yes"/>
      <point x="164" y="704"/>
      <point x="183" y="698"/>
      <point x="183" y="676" type="curve" smooth="yes"/>
      <point x="183" y="668"/>
      <point x="181" y="655"/>
      <point x="178" y="644" type="curve" smooth="yes"/>
      <point x="52" y="61" type="line" smooth="yes"/>
      <point x="43" y="19"/>
      <point x="17" y="10"/>
      <point x="-17" y="10" type="curve" smooth="yes"/>
      <point x="-32" y="10" type="line"/>
    </contour>
  </outline>
</glyph>
<glyph name="F" format="2">
  <advance width="490"/>
  <unicode hex="0046"/>
  <anchor x="112" y="0" name="bottom"/>
  <anchor x="335" y="714" name="top"/>
  <anchor x="569" y="714" name="topright"/>
  <outline>
    <contour>
      <point x="-34" y="0" type="line"/>
      <point x="256" y="0" type="line"/>
      <point x="259" y="10" type="line"/>
      <point x="229" y="10" type="line" smooth="yes"/>
      <point x="203" y="10"/>
      <point x="185" y="14"/>
      <point x="185" y="36" type="curve" smooth="yes"/>
      <point x="185" y="44"/>
      <point x="186" y="51"/>
      <point x="189" y="66" type="curve" smooth="yes"/>
      <point x="250" y="348" type="line"/>
      <point x="442" y="348" type="line"/>
      <point x="444" y="358" type="line"/>
      <point x="253" y="358" type="line"/>
      <point x="324" y="704" type="line"/>
      <point x="482" y="704" type="line" smooth="yes"/>
      <point x="523" y="704"/>
      <point x="537" y="681"/>
      <point x="537" y="646" type="curve" smooth="yes"/>
      <point x="537" y="629"/>
      <point x="533" y="597"/>
      <point x="529" y="567" type="curve"/>
      <point x="539" y="567" type="line"/>
      <point x="568" y="714" type="line"/>
      <point x="117" y="714" type="line"/>
      <point x="114" y="704" type="line"/>
      <point x="131" y="704" type="line" smooth="yes"/>
      <point x="162" y="704"/>
      <point x="183" y="700"/>
      <point x="183" y="676" type="curve" smooth="yes"/>
      <point x="183" y="664"/>
      <point x="177" y="637"/>
      <point x="173" y="618" type="curve" smooth="yes"/>
      <point x="53" y="62" type="line" smooth="yes"/>
      <point x="43" y="18"/>
      <point x="16" y="10"/>
      <point x="-17" y="10" type="curve" smooth="yes"/>
      <point x="-31" y="10" type="line"/>
    </contour>
  </outline>
</glyph>
<glyph name="G" format="2">
  <advance width="648"/>
  <unicode hex="0047"/>
  <anchor x="282" y="0" name="bottom"/>
  <anchor x="442" y="714" name="top"/>
  <anchor x="717" y="714" name="topright"/>
  <outline>
    <contour>
      <point x="299" y="-10" type="curve" smooth="yes"/>
      <point x="364" y="-10"/>
      <point x="433" y="5"/>
      <point x="502" y="36" type="curve"/>
      <point x="550" y="262" type="line" smooth="yes"/>
      <point x="563" y="320"/>
      <point x="587" y="327"/>
      <point x="624" y="327" type="curve" smooth="yes"/>
      <point x="632" y="327" type="line"/>
      <point x="634" y="337" type="line"/>
      <point x="355" y="337" type="line"/>
      <point x="352" y="327" type="line"/>
      <point x="370" y="327" type="line" smooth="yes"/>
      <point x="404" y="327"/>
      <point x="421" y="321"/>
      <point x="421" y="301" type="curve" smooth="yes"/>
      <point x="421" y="289"/>
      <point x="417" y="275"/>
      <point x="413" y="255" type="curve" smooth="yes"/>
      <point x="361" y="14" type="line"/>
      <point x="340" y="3"/>
      <point x="321" y="0"/>
      <point x="301" y="0" type="curve" smooth="yes"/>
      <point x="216" y="0"/>
      <point x="194" y="93"/>
      <point x="194" y="221" type="curve" smooth="yes"/>
      <point x="194" y="394"/>
      <point x="271" y="714"/>
      <point x="428" y="714" type="curve" smooth="yes"/>
      <point x="491" y="714"/>
      <point x="511" y="635"/>
      <point x="511" y="522" type="curve"/>
      <point x="578" y="522"/>
      <point x="633" y="553"/>
      <point x="633" y="605" type="curve" smooth="yes"/>
      <point x="633" y="668"/>
      <point x="569" y="724"/>
      <point x="448" y="724" type="curve" smooth="yes"/>
      <point x="153" y="724"/>
      <point x="55" y="461"/>
      <point x="55" y="265" type="curve" smooth="yes"/>
      <point x="55" y="87"/>
      <point x="135" y="-10"/>
    </contour>
  </outline>
</glyph>
<glyph name="H" format="2">
  <advance width="667"/>
  <unicode hex="0048"/>
  <anchor x="258" y="0" name="bottom"/>
  <anchor x="339" y="357" name="center"/>
  <anchor x="410" y="714" name="top"/>
  <anchor x="724" y="714" name="topright"/>
  <outline>
    <contour>
      <point x="-35" y="0" type="line"/>
      <point x="246" y="0" type="line"/>
      <point x="249" y="10" type="line"/>
      <point x="234" y="10" type="line" smooth="yes"/>
      <point x="196" y="10"/>
      <point x="185" y="17"/>
      <point x="185" y="36" type="curve" smooth="yes"/>
      <point x="185" y="44"/>
      <point x="187" y="54"/>
      <point x="189" y="65" type="curve" smooth="yes"/>
      <point x="253" y="366" type="line"/>
      <point x="453" y="366" type="line"/>
      <point x="391" y="63" type="line" smooth="yes"/>
      <point x="381" y="17"/>
      <point x="356" y="10"/>
      <point x="325" y="10" type="curve" smooth="yes"/>
      <point x="309" y="10" type="line"/>
      <point x="306" y="0" type="line"/>
      <point x="589" y="0" type="line"/>
      <point x="591" y="10" type="line"/>
      <point x="576" y="10" type="line" smooth="yes"/>
      <point x="534" y="10"/>
      <point x="522" y="20"/>
      <point x="522" y="37" type="curve" smooth="yes"/>
      <point x="522" y="46"/>
      <point x="524" y="54"/>
      <point x="527" y="68" type="curve" smooth="yes"/>
      <point x="649" y="647" type="line" smooth="yes"/>
      <point x="660" y="697"/>
      <point x="688" y="704"/>
      <point x="723" y="704" type="curve" smooth="yes"/>
      <point x="738" y="704" type="line"/>
      <point x="740" y="714" type="line"/>
      <point x="457" y="714" type="line"/>
      <point x="455" y="704" type="line"/>
      <point x="472" y="704" type="line" smooth="yes"/>
      <point x="511" y="704"/>
      <point x="520" y="695"/>
      <point x="520" y="680" type="curve" smooth="yes"/>
      <point x="520" y="670"/>
      <point x="517" y="661"/>
      <point x="514" y="645" type="curve" smooth="yes"/>
      <point x="455" y="376" type="line"/>
      <point x="255" y="376" type="line"/>
      <point x="313" y="651" type="line" smooth="yes"/>
      <point x="323" y="697"/>
      <point x="348" y="704"/>
      <point x="381" y="704" type="curve" smooth="yes"/>
      <point x="396" y="704" type="line"/>
      <point x="398" y="714" type="line"/>
      <point x="116" y="714" type="line"/>
      <point x="114" y="704" type="line"/>
      <point x="129" y="704" type="line" smooth="yes"/>
      <point x="174" y="704"/>
      <point x="183" y="695"/>
      <point x="183" y="680" type="curve" smooth="yes"/>
      <point x="183" y="673"/>
      <point x="181" y="661"/>
      <point x="177" y="642" type="curve" smooth="yes"/>
      <point x="54" y="61" type="line" smooth="yes"/>
      <point x="44" y="17"/>
      <point x="17" y="10"/>
      <point x="-17" y="10" type="curve" smooth="yes"/>
      <point x="-32" y="10" type="line"/>
    </contour>
  </outline>
</glyph>
<glyph name="I" format="2">
  <advance width="331"/>
  <unicode hex="0049"/>
  <anchor x="95" y="0" name="bottom"/>
  <anchor x="247" y="714" name="top"/>
  <anchor x="392" y="714" name="topright"/>
  <outline>
    <contour>
      <point x="-35" y="0" type="line"/>
      <point x="253" y="0" type="line"/>
      <point x="255" y="10" type="line"/>
      <point x="240" y="10" type="line" smooth="yes"/>
      <point x="207" y="10"/>
      <point x="186" y="14"/>
      <point x="186" y="37" type="curve" smooth="yes"/>
      <point x="186" y="48"/>
      <point x="189" y="63"/>
      <point x="193" y="83" type="curve" smooth="yes"/>
      <point x="313" y="647" type="line" smooth="yes"/>
      <point x="324" y="697"/>
      <point x="350" y="704"/>
      <point x="387" y="704" type="curve" smooth="yes"/>
      <point x="402" y="704" type="line"/>
      <point x="404" y="714" type="line"/>
      <point x="116" y="714" type="line"/>
      <point x="114" y="704" type="line"/>
      <point x="129" y="704" type="line" smooth="yes"/>
      <point x="162" y="704"/>
      <point x="183" y="700"/>
      <point x="183" y="677" type="curve" smooth="yes"/>
      <point x="183" y="670"/>
      <point x="182" y="659"/>
      <point x="177" y="639" type="curve" smooth="yes"/>
      <point x="54" y="63" type="line" smooth="yes"/>
      <point x="44" y="16"/>
      <point x="17" y="10"/>
      <point x="-17" y="10" type="curve" smooth="yes"/>
      <point x="-32" y="10" type="line"/>
    </contour>
  </outline>
</glyph>
<glyph name="J" format="2">
  <advance width="332"/>
  <unicode hex="004A"/>
  <anchor x="-65" y="-240" name="bottom"/>
  <anchor x="261" y="714" name="top"/>
  <anchor x="403" y="714" name="topright"/>
  <outline>
    <contour>
      <point x="-67" y="-240" type="curve" smooth="yes"/>
      <point x="51" y="-240"/>
      <point x="152" y="-181"/>
      <point x="189" y="-7" type="curve" smooth="yes"/>
      <point x="328" y="650" type="line" smooth="yes"/>
      <point x="338" y="696"/>
      <point x="366" y="704"/>
      <point x="402" y="704" type="curve" smooth="yes"/>
      <point x="416" y="704" type="line"/>
      <point x="418" y="714" type="line"/>
      <point x="130" y="714" type="line"/>
      <point x="128" y="704" type="line"/>
      <point x="144" y="704" type="line" smooth="yes"/>
      <point x="176" y="704"/>
      <point x="197" y="699"/>
      <point x="197" y="677" type="curve" smooth="yes"/>
      <point x="197" y="669"/>
      <point x="195" y="661"/>
      <point x="194" y="654" type="curve" smooth="yes"/>
      <point x="54" y="-14" type="line" smooth="yes"/>
      <point x="24" y="-183"/>
      <point x="-17" y="-229"/>
      <point x="-70" y="-229" type="curve" smooth="yes"/>
      <point x="-90" y="-229"/>
      <point x="-114" y="-227"/>
      <point x="-133" y="-219" type="curve"/>
      <point x="-137" y="-229" type="line"/>
      <point x="-116" y="-236"/>
      <point x="-96" y="-240"/>
    </contour>
  </outline>
</glyph>
<glyph name="L" format="2">
  <advance width="523"/>
  <unicode hex="004C"/>
  <anchor x="196" y="0" name="bottom"/>
  <anchor x="291" y="357" name="center"/>
  <anchor x="266" y="714" name="top"/>
  <anchor x="519" y="714" name="topright"/>
  <outline>
    <contour>
      <point x="-34" y="0" type="line"/>
      <point x="448" y="0" type="line"/>
      <point x="498" y="221" type="line"/>
      <point x="488" y="221" type="line"/>
      <point x="473" y="164" type="line" smooth="yes"/>
      <point x="452" y="78"/>
      <point x="408" y="10"/>
      <point x="332" y="10" type="curve" smooth="yes"/>
      <point x="180" y="10" type="line"/>
      <point x="313" y="648" type="line" smooth="yes"/>
      <point x="322" y="696"/>
      <point x="351" y="704"/>
      <point x="387" y="704" type="curve" smooth="yes"/>
      <point x="402" y="704" type="line"/>
      <point x="404" y="714" type="line"/>
      <point x="117" y="714" type="line"/>
      <point x="114" y="704" type="line"/>
      <point x="130" y="704" type="line" smooth="yes"/>
      <point x="162" y="704"/>
      <point x="183" y="700"/>
      <point x="183" y="676" type="curve" smooth="yes"/>
      <point x="183" y="668"/>
      <point x="181" y="656"/>
      <point x="177" y="640" type="curve" smooth="yes"/>
      <point x="57" y="70" type="line" smooth="yes"/>
      <point x="45" y="16"/>
      <point x="19" y="10"/>
      <point x="-17" y="10" type="curve" smooth="yes"/>
      <point x="-31" y="10" type="line"/>
    </contour>
  </outline>
</glyph>
<glyph name="M" format="2">
  <advance width="776"/>
  <unicode hex="004D"/>
  <anchor x="317" y="0" name="bottom"/>
  <anchor x="469" y="714" name="top"/>
  <anchor x="835" y="714" name="topright"/>
  <outline>
    <contour>
      <point x="-34" y="0" type="line"/>
      <point x="168" y="0" type="line"/>
      <point x="170" y="10" type="line"/>
      <point x="132" y="10" type="line" smooth="yes"/>
      <point x="104" y="10"/>
      <point x="83" y="15"/>
      <point x="83" y="39" type="curve" smooth="yes"/>
      <point x="83" y="46"/>
      <point x="85" y="56"/>
      <point x="89" y="72" type="curve" smooth="yes"/>
      <point x="214" y="679" type="line"/>
      <point x="262" y="0" type="line"/>
      <point x="318" y="0" type="line"/>
      <point x="635" y="683" type="line"/>
      <point x="505" y="77" type="line" smooth="yes"/>
      <point x="492" y="19"/>
      <point x="460" y="10"/>
      <point x="424" y="10" type="curve" smooth="yes"/>
      <point x="405" y="10" type="line"/>
      <point x="403" y="0" type="line"/>
      <point x="698" y="0" type="line"/>
      <point x="700" y="10" type="line"/>
      <point x="685" y="10" type="line" smooth="yes"/>
      <point x="653" y="10"/>
      <point x="631" y="13"/>
      <point x="631" y="39" type="curve" smooth="yes"/>
      <point x="631" y="49"/>
      <point x="634" y="62"/>
      <point x="638" y="80" type="curve" smooth="yes"/>
      <point x="759" y="650" type="line" smooth="yes"/>
      <point x="770" y="697"/>
      <point x="797" y="704"/>
      <point x="832" y="704" type="curve" smooth="yes"/>
      <point x="845" y="704" type="line"/>
      <point x="847" y="714" type="line"/>
      <point x="638" y="714" type="line"/>
      <point x="382" y="169" type="line"/>
      <point x="346" y="714" type="line"/>
      <point x="117" y="714" type="line"/>
      <point x="114" y="704" type="line"/>
      <point x="148" y="704" type="line" smooth="yes"/>
      <point x="180" y="704"/>
      <point x="201" y="700"/>
      <point x="201" y="677" type="curve" smooth="yes"/>
      <point x="201" y="667"/>
      <point x="199" y="657"/>
      <point x="194" y="631" type="curve" smooth="yes"/>
      <point x="76" y="67" type="line" smooth="yes"/>
      <point x="66" y="19"/>
      <point x="38" y="10"/>
      <point x="5" y="10" type="curve" smooth="yes"/>
      <point x="-33" y="10" type="line"/>
    </contour>
  </outline>
</glyph>
<glyph name="N" format="2">
  <advance width="640"/>
  <unicode hex="004E"/>
  <anchor x="251" y="0" name="bottom"/>
  <anchor x="426" y="714" name="top"/>
  <anchor x="702" y="714" name="topright"/>
  <outline>
    <contour>
      <point x="-34" y="0" type="line"/>
      <point x="168" y="0" type="line"/>
      <point x="170" y="10" type="line"/>
      <point x="155" y="10" type="line" smooth="yes"/>
      <point x="111" y="10"/>
      <point x="86" y="17"/>
      <point x="86" y="39" type="curve" smooth="yes"/>
      <point x="86" y="47"/>
      <point x="87" y="57"/>
      <point x="91" y="77" type="curve" smooth="yes"/>
      <point x="218" y="670" type="line"/>
      <point x="418" y="0" type="line"/>
      <point x="475" y="0" type="line"/>
      <point x="611" y="644" type="line" smooth="yes"/>
      <point x="623" y="698"/>
      <point x="654" y="704"/>
      <point x="694" y="704" type="curve" smooth="yes"/>
      <point x="722" y="704" type="line"/>
      <point x="724" y="714" type="line"/>
      <point x="521" y="714" type="line"/>
      <point x="519" y="704" type="line"/>
      <point x="544" y="704" type="line" smooth="yes"/>
      <point x="586" y="704"/>
      <point x="602" y="694"/>
      <point x="602" y="669" type="curve" smooth="yes"/>
      <point x="602" y="661"/>
      <point x="601" y="651"/>
      <point x="598" y="635" type="curve" smooth="yes"/>
      <point x="495" y="145" type="line"/>
      <point x="334" y="714" type="line"/>
      <point x="116" y="714" type="line"/>
      <point x="114" y="704" type="line"/>
      <point x="145" y="704" type="line" smooth="yes"/>
      <point x="182" y="704"/>
      <point x="207" y="700"/>
      <point x="207" y="677" type="curve" smooth="yes"/>
      <point x="207" y="670"/>
      <point x="205" y="659"/>
      <point x="201" y="640" type="curve" smooth="yes"/>
      <point x="77" y="61" type="line" smooth="yes"/>
      <point x="68" y="17"/>
      <point x="35" y="10"/>
      <point x="-5" y="10" type="curve" smooth="yes"/>
      <point x="-33" y="10" type="line"/>
    </contour>
  </outline>
</glyph>
<glyph name="O" format="2">
  <advance width="649"/>
  <unicode hex="004F"/>
  <anchor x="256" y="0" name="bottom"/>
  <anchor x="351" y="357" name="center"/>
  <anchor x="408" y="714" name="top"/>
  <anchor x="712" y="714" name="topright"/>
  <outline>
    <contour>
      <point x="276" y="-11" type="curve" smooth="yes"/>
      <point x="521" y="-11"/>
      <point x="636" y="254"/>
      <point x="636" y="471" type="curve" smooth="yes"/>
      <point x="636" y="653"/>
      <point x="536" y="725"/>
      <point x="411" y="725" type="curve" smooth="yes"/>
      <point x="176" y="725"/>
      <point x="52" y="481"/>
      <point x="52" y="245" type="curve" smooth="yes"/>
      <point x="52" y="76"/>
      <point x="144" y="-11"/>
    </contour>
    <contour>
      <point x="293" y="-1" type="curve" smooth="yes"/>
      <point x="234" y="-1"/>
      <point x="189" y="62"/>
      <point x="189" y="219" type="curve" smooth="yes"/>
      <point x="189" y="394"/>
      <point x="261" y="715"/>
      <point x="404" y="715" type="curve" smooth="yes"/>
      <point x="466" y="715"/>
      <point x="498" y="656"/>
      <point x="498" y="512" type="curve" smooth="yes"/>
      <point x="498" y="324"/>
      <point x="431" y="-1"/>
    </contour>
  </outline>
</glyph>
<glyph name="P" format="2">
  <advance width="534"/>
  <unicode hex="0050"/>
  <anchor x="112" y="0" name="bottom"/>
  <anchor x="354" y="714" name="top"/>
  <anchor x="605" y="714" name="topright"/>
  <outline>
    <contour>
      <point x="-35" y="0" type="line"/>
      <point x="268" y="0" type="line"/>
      <point x="270" y="10" type="line"/>
      <point x="239" y="10" type="line" smooth="yes"/>
      <point x="206" y="10"/>
      <point x="184" y="15"/>
      <point x="184" y="40" type="curve" smooth="yes"/>
      <point x="184" y="47"/>
      <point x="187" y="63"/>
      <point x="191" y="79" type="curve" smooth="yes"/>
      <point x="239" y="294" type="line"/>
      <point x="309" y="294" type="line" smooth="yes"/>
      <point x="488" y="294"/>
      <point x="564" y="407"/>
      <point x="564" y="537" type="curve" smooth="yes"/>
      <point x="564" y="657"/>
      <point x="489" y="714"/>
      <point x="359" y="714" type="curve" smooth="yes"/>
      <point x="116" y="714" type="line"/>
      <point x="114" y="704" type="line"/>
      <point x="128" y="704" type="line" smooth="yes"/>
      <point x="161" y="704"/>
      <point x="182" y="699"/>
      <point x="182" y="674" type="curve" smooth="yes"/>
      <point x="182" y="667"/>
      <point x="180" y="657"/>
      <point x="176" y="639" type="curve" smooth="yes"/>
      <point x="54" y="67" type="line" smooth="yes"/>
      <point x="44" y="18"/>
      <point x="16" y="10"/>
      <point x="-18" y="10" type="curve" smooth="yes"/>
      <point x="-33" y="10" type="line"/>
    </contour>
    <contour>
      <point x="243" y="304" type="line"/>
      <point x="327" y="704" type="line"/>
      <point x="349" y="704" type="line" smooth="yes"/>
      <point x="413" y="704"/>
      <point x="438" y="658"/>
      <point x="438" y="570" type="curve" smooth="yes"/>
      <point x="438" y="456"/>
      <point x="393" y="304"/>
      <point x="275" y="304" type="curve" smooth="yes"/>
    </contour>
  </outline>
</glyph>
<glyph name="Q" format="2">
  <advance width="643"/>
  <unicode hex="0051"/>
  <anchor x="201" y="-230" name="bottom"/>
  <anchor x="348" y="357" name="center"/>
  <anchor x="402" y="714" name="top"/>
  <anchor x="695" y="714" name="topright"/>
  <outline>
    <contour>
      <point x="374" y="-230" type="curve" smooth="yes"/>
      <point x="400" y="-230"/>
      <point x="423" y="-226"/>
      <point x="457" y="-212" type="curve"/>
      <point x="455" y="-203" type="line"/>
      <point x="445" y="-207"/>
      <point x="437" y="-208"/>
      <point x="428" y="-208" type="curve" smooth="yes"/>
      <point x="389" y="-208"/>
      <point x="353" y="-144"/>
      <point x="350" y="0" type="curve"/>
      <point x="537" y="42"/>
      <point x="636" y="257"/>
      <point x="636" y="471" type="curve" smooth="yes"/>
      <point x="636" y="653"/>
      <point x="536" y="725"/>
      <point x="411" y="725" type="curve" smooth="yes"/>
      <point x="176" y="725"/>
      <point x="52" y="481"/>
      <point x="52" y="245" type="curve" smooth="yes"/>
      <point x="52" y="106"/>
      <point x="114" y="24"/>
      <point x="207" y="-2" type="curve"/>
      <point x="210" y="-171"/>
      <point x="285" y="-230"/>
    </contour>
    <contour>
      <point x="293" y="-1" type="curve" smooth="yes"/>
      <point x="234" y="-1"/>
      <point x="189" y="62"/>
      <point x="189" y="219" type="curve" smooth="yes"/>
      <point x="189" y="394"/>
      <point x="261" y="715"/>
      <point x="404" y="715" type="curve" smooth="yes"/>
      <point x="466" y="715"/>
      <point x="498" y="656"/>
      <point x="498" y="512" type="curve" smooth="yes"/>
      <point x="498" y="324"/>
      <point x="431" y="-1"/>
    </contour>
  </outline>
</glyph>
<glyph name="R" format="2">
  <advance width="593"/>
  <unicode hex="0052"/>
  <anchor x="220" y="0" name="bottom"/>
  <anchor x="360" y="714" name="top"/>
  <anchor x="641" y="714" name="topright"/>
  <outline>
    <contour>
      <point x="-34" y="0" type="line"/>
      <point x="269" y="0" type="line"/>
      <point x="271" y="10" type="line"/>
      <point x="241" y="10" type="line" smooth="yes"/>
      <point x="208" y="10"/>
      <point x="186" y="16"/>
      <point x="186" y="37" type="curve" smooth="yes"/>
      <point x="186" y="47"/>
      <point x="188" y="59"/>
      <point x="193" y="82" type="curve" smooth="yes"/>
      <point x="247" y="333" type="line"/>
      <point x="295" y="333" type="line"/>
      <point x="339" y="107" type="line" smooth="yes"/>
      <point x="357" y="16"/>
      <point x="414" y="0"/>
      <point x="520" y="0" type="curve" smooth="yes"/>
      <point x="536" y="0" type="line"/>
      <point x="538" y="10" type="line"/>
      <point x="530" y="10" type="line" smooth="yes"/>
      <point x="499" y="10"/>
      <point x="486" y="72"/>
      <point x="464" y="156" type="curve" smooth="yes"/>
      <point x="419" y="338" type="line"/>
      <point x="502" y="356"/>
      <point x="575" y="428"/>
      <point x="575" y="557" type="curve" smooth="yes"/>
      <point x="575" y="662"/>
      <point x="513" y="714"/>
      <point x="391" y="714" type="curve" smooth="yes"/>
      <point x="117" y="714" type="line"/>
      <point x="114" y="704" type="line"/>
      <point x="130" y="704" type="line" smooth="yes"/>
      <point x="162" y="704"/>
      <point x="182" y="700"/>
      <point x="182" y="676" type="curve" smooth="yes"/>
      <point x="182" y="670"/>
      <point x="180" y="659"/>
      <point x="176" y="639" type="curve" smooth="yes"/>
      <point x="56" y="69" type="line" smooth="yes"/>
      <point x="45" y="19"/>
      <point x="18" y="10"/>
      <point x="-16" y="10" type="curve" smooth="yes"/>
      <point x="-32" y="10" type="line"/>
    </contour>
    <contour>
      <point x="249" y="343" type="line"/>
      <point x="329" y="704" type="line"/>
      <point x="354" y="704" type="line" smooth="yes"/>
      <point x="423" y="704"/>
      <point x="437" y="631"/>
      <point x="437" y="569" type="curve" smooth="yes"/>
      <point x="437" y="423"/>
      <point x="375" y="343"/>
      <point x="288" y="343" type="curve" smooth="yes"/>
    </contour>
  </outline>
</glyph>
<glyph name="S" format="2">
  <advance width="480"/>
  <unicode hex="0053"/>
  <anchor x="184" y="0" name="bottom"/>
  <anchor x="326" y="714" name="top"/>
  <anchor x="555" y="714" name="topright"/>
  <outline>
    <contour>
      <point x="207" y="-10" type="curve" smooth="yes"/>
      <point x="352" y="-10"/>
      <point x="444" y="71"/>
      <point x="444" y="214" type="curve" smooth="yes"/>
      <point x="444" y="296"/>
      <point x="415" y="351"/>
      <point x="330" y="413" type="curve" smooth="yes"/>
      <point x="259" y="464"/>
      <point x="224" y="491"/>
      <point x="224" y="574" type="curve" smooth="yes"/>
      <point x="224" y="657"/>
      <point x="259" y="714"/>
      <point x="317" y="714" type="curve" smooth="yes"/>
      <point x="389" y="714"/>
      <point x="400" y="615"/>
      <point x="399" y="531" type="curve"/>
      <point x="475" y="531"/>
      <point x="507" y="563"/>
      <point x="507" y="609" type="curve" smooth="yes"/>
      <point x="507" y="671"/>
      <point x="453" y="724"/>
      <point x="334" y="724" type="curve" smooth="yes"/>
      <point x="191" y="724"/>
      <point x="107" y="635"/>
      <point x="107" y="505" type="curve" smooth="yes"/>
      <point x="107" y="398"/>
      <point x="165" y="355"/>
      <point x="232" y="304" type="curve" smooth="yes"/>
      <point x="301" y="252"/>
      <point x="329" y="223"/>
      <point x="329" y="142" type="curve" smooth="yes"/>
      <point x="329" y="66"/>
      <point x="301" y="0"/>
      <point x="222" y="0" type="curve" smooth="yes"/>
      <point x="144" y="0"/>
      <point x="124" y="64"/>
      <point x="125" y="225" type="curve"/>
      <point x="57" y="224"/>
      <point x="13" y="197"/>
      <point x="13" y="133" type="curve" smooth="yes"/>
      <point x="13" y="52"/>
      <point x="80" y="-10"/>
    </contour>
  </outline>
</glyph>
<glyph name="T" format="2">
  <advance width="533"/>
  <unicode hex="0054"/>
  <anchor x="198" y="0" name="bottom"/>
  <anchor x="293" y="357" name="center"/>
  <anchor x="350" y="714" name="top"/>
  <anchor x="596" y="714" name="topright"/>
  <outline>
    <contour>
      <point x="75" y="0" type="line"/>
      <point x="351" y="0" type="line"/>
      <point x="353" y="10" type="line"/>
      <point x="347" y="10" type="line" smooth="yes"/>
      <point x="313" y="10"/>
      <point x="288" y="14"/>
      <point x="288" y="39" type="curve" smooth="yes"/>
      <point x="288" y="48"/>
      <point x="291" y="61"/>
      <point x="295" y="81" type="curve" smooth="yes"/>
      <point x="427" y="704" type="line"/>
      <point x="486" y="704" type="line" smooth="yes"/>
      <point x="555" y="704"/>
      <point x="585" y="677"/>
      <point x="585" y="624" type="curve" smooth="yes"/>
      <point x="585" y="610"/>
      <point x="580" y="580"/>
      <point x="575" y="551" type="curve"/>
      <point x="585" y="551" type="line"/>
      <point x="617" y="714" type="line"/>
      <point x="106" y="714" type="line"/>
      <point x="67" y="551" type="line"/>
      <point x="77" y="551" type="line"/>
      <point x="88" y="594" type="line" smooth="yes"/>
      <point x="105" y="660"/>
      <point x="155" y="704"/>
      <point x="234" y="704" type="curve" smooth="yes"/>
      <point x="289" y="704" type="line"/>
      <point x="159" y="71" type="line" smooth="yes"/>
      <point x="148" y="17"/>
      <point x="119" y="10"/>
      <point x="83" y="10" type="curve" smooth="yes"/>
      <point x="76" y="10" type="line"/>
    </contour>
  </outline>
</glyph>
<glyph name="U" format="2">
  <advance width="617"/>
  <unicode hex="0055"/>
  <anchor x="240" y="0" name="bottom"/>
  <anchor x="414" y="714" name="top"/>
  <anchor x="743" y="714" name="topright"/>
  <outline>
    <contour>
      <point x="280" y="-10" type="curve" smooth="yes"/>
      <point x="419" y="-10"/>
      <point x="475" y="83"/>
      <point x="506" y="230" type="curve" smooth="yes"/>
      <point x="591" y="639" type="line" smooth="yes"/>
      <point x="603" y="697"/>
      <point x="644" y="704"/>
      <point x="687" y="704" type="curve" smooth="yes"/>
      <point x="705" y="704" type="line"/>
      <point x="707" y="714" type="line"/>
      <point x="493" y="714" type="line"/>
      <point x="491" y="704" type="line"/>
      <point x="506" y="704" type="line" smooth="yes"/>
      <point x="552" y="704"/>
      <point x="586" y="700"/>
      <point x="586" y="671" type="curve" smooth="yes"/>
      <point x="586" y="664"/>
      <point x="584" y="650"/>
      <point x="581" y="635" type="curve" smooth="yes"/>
      <point x="498" y="244" type="line" smooth="yes"/>
      <point x="466" y="93"/>
      <point x="411" y="4"/>
      <point x="301" y="4" type="curve" smooth="yes"/>
      <point x="253" y="4"/>
      <point x="219" y="33"/>
      <point x="219" y="111" type="curve" smooth="yes"/>
      <point x="219" y="150"/>
      <point x="231" y="225"/>
      <point x="238" y="255" type="curve" smooth="yes"/>
      <point x="320" y="641" type="line" smooth="yes"/>
      <point x="331" y="696"/>
      <point x="359" y="704"/>
      <point x="395" y="704" type="curve" smooth="yes"/>
      <point x="413" y="704" type="line"/>
      <point x="415" y="714" type="line"/>
      <point x="125" y="714" type="line"/>
      <point x="122" y="704" type="line"/>
      <point x="136" y="704" type="line" smooth="yes"/>
      <point x="169" y="704"/>
      <point x="190" y="699"/>
      <point x="190" y="677" type="curve" smooth="yes"/>
      <point x="190" y="667"/>
      <point x="187" y="655"/>
      <point x="182" y="631" type="curve" smooth="yes"/>
      <point x="102" y="256" type="line" smooth="yes"/>
      <point x="96" y="225"/>
      <point x="89" y="179"/>
      <point x="89" y="153" type="curve" smooth="yes"/>
      <point x="89" y="49"/>
      <point x="156" y="-10"/>
    </contour>
  </outline>
</glyph>
<glyph name="W" format="2">
  <advance width="866"/>
  <unicode hex="0057"/>
  <anchor x="377" y="0" name="bottom"/>
  <anchor x="541" y="714" name="top"/>
  <anchor x="1008" y="714" name="topright"/>
  <outline>
    <contour>
      <point x="177" y="0" type="line"/>
      <point x="279" y="0" type="line"/>
      <point x="487" y="549" type="line"/>
      <point x="538" y="0" type="line"/>
      <point x="626" y="0" type="line"/>
      <point x="862" y="631" type="line" smooth="yes"/>
      <point x="887" y="694"/>
      <point x="902" y="704"/>
      <point x="938" y="704" type="curve" smooth="yes"/>
      <point x="974" y="704" type="line"/>
      <point x="976" y="714" type="line"/>
      <point x="768" y="714" type="line"/>
      <point x="766" y="704" type="line"/>
      <point x="817" y="704" type="line" smooth="yes"/>
      <point x="847" y="704"/>
      <point x="863" y="701"/>
      <point x="863" y="680" type="curve" smooth="yes"/>
      <point x="863" y="671"/>
      <point x="858" y="649"/>
      <point x="849" y="626" type="curve" smooth="yes"/>
      <point x="737" y="333" type="line" smooth="yes"/>
      <point x="714" y="269"/>
      <point x="667" y="147"/>
      <point x="651" y="97" type="curve"/>
      <point x="652" y="135"/>
      <point x="643" y="241"/>
      <point x="638" y="289" type="curve" smooth="yes"/>
      <point x="592" y="707" type="line"/>
      <point x="534" y="707" type="line"/>
      <point x="345" y="204" type="line" smooth="yes"/>
      <point x="328" y="158"/>
      <point x="312" y="118"/>
      <point x="299" y="80" type="curve"/>
      <point x="299" y="128"/>
      <point x="297" y="301"/>
      <point x="296" y="340" type="curve" smooth="yes"/>
      <point x="289" y="620" type="line" smooth="yes"/>
      <point x="289" y="642"/>
      <point x="289" y="653"/>
      <point x="289" y="664" type="curve" smooth="yes"/>
      <point x="289" y="698"/>
      <point x="316" y="704"/>
      <point x="351" y="704" type="curve" smooth="yes"/>
      <point x="374" y="704" type="line"/>
      <point x="376" y="714" type="line"/>
      <point x="106" y="714" type="line"/>
      <point x="103" y="704" type="line"/>
      <point x="114" y="704" type="line" smooth="yes"/>
      <point x="139" y="704"/>
      <point x="160" y="699"/>
      <point x="162" y="648" type="curve" smooth="yes"/>
    </contour>
  </outline>
</glyph>
<glyph name="X" format="2">
  <advance width="602"/>
  <unicode hex="0058"/>
  <anchor x="244" y="0" name="bottom"/>
  <anchor x="396" y="714" name="top"/>
  <anchor x="722" y="714" name="topright"/>
  <outline>
    <contour>
      <point x="-34" y="0" type="line"/>
      <point x="168" y="0" type="line"/>
      <point x="170" y="10" type="line"/>
      <point x="159" y="10" type="line" smooth="yes"/>
      <point x="130" y="10"/>
      <point x="97" y="13"/>
      <point x="97" y="35" type="curve" smooth="yes"/>
      <point x="97" y="55"/>
      <point x="111" y="79"/>
      <point x="133" y="110" type="curve" smooth="yes"/>
      <point x="328" y="359" type="line"/>
      <point x="288" y="315" type="line"/>
      <point x="350" y="99" type="line" smooth="yes"/>
      <point x="356" y="80"/>
      <point x="359" y="65"/>
      <point x="359" y="50" type="curve" smooth="yes"/>
      <point x="359" y="18"/>
      <point x="329" y="10"/>
      <point x="297" y="10" type="curve" smooth="yes"/>
      <point x="277" y="10" type="line"/>
      <point x="275" y="0" type="line"/>
      <point x="550" y="0" type="line"/>
      <point x="552" y="10" type="line"/>
      <point x="543" y="10" type="line" smooth="yes"/>
      <point x="527" y="10"/>
      <point x="524" y="19"/>
      <point x="510" y="61" type="curve" smooth="yes"/>
      <point x="400" y="417" type="line"/>
      <point x="363" y="364" type="line"/>
      <point x="569" y="632" type="line" smooth="yes"/>
      <point x="613" y="691"/>
      <point x="639" y="704"/>
      <point x="671" y="704" type="curve" smooth="yes"/>
      <point x="680" y="704" type="line"/>
      <point x="682" y="714" type="line"/>
      <point x="494" y="714" type="line"/>
      <point x="492" y="704" type="line"/>
      <point x="509" y="704" type="line" smooth="yes"/>
      <point x="535" y="704"/>
      <point x="574" y="703"/>
      <point x="574" y="678" type="curve" smooth="yes"/>
      <point x="574" y="656"/>
      <point x="561" y="641"/>
      <point x="547" y="623" type="curve" smooth="yes"/>
      <point x="364" y="381" type="line"/>
      <point x="399" y="420" type="line"/>
      <point x="341" y="623" type="line" smooth="yes"/>
      <point x="334" y="647"/>
      <point x="332" y="664"/>
      <point x="332" y="671" type="curve" smooth="yes"/>
      <point x="332" y="699"/>
      <point x="358" y="704"/>
      <point x="385" y="704" type="curve" smooth="yes"/>
      <point x="408" y="704" type="line"/>
      <point x="410" y="714" type="line"/>
      <point x="135" y="714" type="line"/>
      <point x="132" y="704" type="line"/>
      <point x="140" y="704" type="line" smooth="yes"/>
      <point x="163" y="704"/>
      <point x="172" y="687"/>
      <point x="182" y="654" type="curve" smooth="yes"/>
      <point x="287" y="318" type="line"/>
      <point x="326" y="373" type="line"/>
      <point x="98" y="82" type="line" smooth="yes"/>
      <point x="54" y="25"/>
      <point x="23" y="10"/>
      <point x="-19" y="10" type="curve" smooth="yes"/>
      <point x="-32" y="10" type="line"/>
    </contour>
  </outline>
</glyph>
<glyph name="Z" format="2">
  <advance width="547"/>
  <unicode hex="005A"/>
  <anchor x="196" y="0" name="bottom"/>
  <anchor x="333" y="714" name="top"/>
  <anchor x="601" y="714" name="topright"/>
  <outline>
    <contour>
      <point x="-26" y="0" type="line"/>
      <point x="453" y="0" type="line"/>
      <point x="500" y="197" type="line"/>
      <point x="490" y="197" type="line"/>
      <point x="480" y="156" type="line" smooth="yes"/>
      <point x="461" y="78"/>
      <point x="410" y="10"/>
      <point x="321" y="10" type="curve" smooth="yes"/>
      <point x="147" y="10" type="line"/>
      <point x="589" y="704" type="line"/>
      <point x="590" y="714" type="line"/>
      <point x="142" y="714" type="line"/>
      <point x="94" y="520" type="line"/>
      <point x="104" y="520" type="line"/>
      <point x="122" y="585" type="line" smooth="yes"/>
      <point x="147" y="673"/>
      <point x="221" y="704"/>
      <point x="298" y="704" type="curve" smooth="yes"/>
      <point x="445" y="704" type="line"/>
      <point x="-23" y="11" type="line"/>
    </contour>
  </outline>
</glyph>
<glyph name="bracketleft" format="2">
  <advance width="326"/>
  <unicode hex="005B"/>
  <outline>
    <contour>
      <point x="-24" y="-128" type="line"/>
      <point x="211" y="-128" type="line"/>
      <point x="213" y="-118" type="line"/>
      <point x="179" y="-118" type="line" smooth="yes"/>
      <point x="144" y="-118"/>
      <point x="123" y="-114"/>
      <point x="123" y="-82" type="curve" smooth="yes"/>
      <point x="123" y="-75"/>
      <point x="125" y="-58"/>
      <point x="128" y="-40" type="curve" smooth="yes"/>
      <point x="279" y="679" type="line" smooth="yes"/>
      <point x="292" y="742"/>
      <point x="315" y="750"/>
      <point x="369" y="750" type="curve" smooth="yes"/>
      <point x="398" y="750" type="line"/>
      <point x="400" y="760" type="line"/>
      <point x="165" y="760" type="line"/>
    </contour>
  </outline>
</glyph>
<glyph name="backslash" format="2">
  <advance width="234"/>
  <unicode hex="005C"/>
  <outline>
    <contour>
      <point x="141" y="-121" type="line"/>
      <point x="151" y="-121" type="line"/>
      <point x="115" y="760" type="line"/>
      <point x="105" y="760" type="line"/>
    </contour>
  </outline>
</glyph>
<glyph name="bracketright" format="2">
  <advance width="325"/>
  <unicode hex="005D"/>
  <outline>
    <contour>
      <point x="-54" y="-128" type="line"/>
      <point x="181" y="-128" type="line"/>
      <point x="370" y="760" type="line"/>
      <point x="136" y="760" type="line"/>
      <point x="134" y="750" type="line"/>
      <point x="168" y="750" type="line" smooth="yes"/>
      <point x="202" y="750"/>
      <point x="224" y="746"/>
      <point x="224" y="714" type="curve" smooth="yes"/>
      <point x="224" y="707"/>
      <point x="222" y="690"/>
      <point x="218" y="672" type="curve" smooth="yes"/>
      <point x="67" y="-47" type="line" smooth="yes"/>
      <point x="54" y="-110"/>
      <point x="31" y="-118"/>
      <point x="-23" y="-118" type="curve" smooth="yes"/>
      <point x="-52" y="-118" type="line"/>
    </contour>
  </outline>
</glyph>
<glyph name="asciicircum" format="2">
  <advance width="425"/>
  <unicode hex="005E"/>
  <outline>
    <contour>
      <point x="41" y="271" type="line"/>
      <point x="62" y="271" type="line"/>
      <point x="212" y="691" type="line"/>
      <point x="364" y="271" type="line"/>
      <point x="385" y="271" type="line"/>
      <point x="224" y="714" type="line"/>
      <point x="200" y="714" type="line"/>
    </contour>
  </outline>
</glyph>
<glyph name="grave" format="2">
  <advance width="269"/>
  <unicode hex="0060"/>
  <outline>
    <contour>
      <point x="291" y="606" type="curve"/>
      <point x="301" y="606" type="line"/>
      <point x="303" y="615" type="line"/>
      <point x="287" y="650"/>
      <point x="264" y="719"/>
      <point x="256" y="766" type="curve"/>
      <point x="146" y="766" type="line"/>
      <point x="144" y="756" type="line"/>
      <point x="166" y="715"/>
      <point x="235" y="645"/>
    </contour>
  </outline>
</glyph>
<glyph name="c" format="2">
  <advance width="444"/>
  <unicode hex="0063"/>
  <anchor x="188" y="0" name="bottom"/>
  <anchor x="289" y="536" name="top"/>
  <anchor x="471" y="536" name="topright"/>
  <outline>
    <contour>
      <point x="224" y="-9" type="curve" smooth="yes"/>
      <point x="316" y="-9"/>
      <point x="379" y="44"/>
      <point x="379" y="96" type="curve" smooth="yes"/>
      <point x="379" y="124"/>
      <point x="371" y="138"/>
      <point x="361" y="144" type="curve"/>
      <point x="327" y="53"/>
      <point x="295" y="3"/>
      <point x="236" y="3" type="curve" smooth="yes"/>
      <point x="184" y="3"/>
      <point x="154" y="57"/>
      <point x="154" y="178" type="curve" smooth="yes"/>
      <point x="154" y="351"/>
      <point x="221" y="531"/>
      <point x="305" y="531" type="curve" smooth="yes"/>
      <point x="336" y="531"/>
      <point x="354" y="514"/>
      <point x="354" y="458" type="curve" smooth="yes"/>
      <point x="355" y="418"/>
      <point x="351" y="383"/>
      <point x="345" y="353" type="curve"/>
      <point x="428" y="353"/>
      <point x="454" y="400"/>
      <point x="454" y="445" type="curve" smooth="yes"/>
      <point x="454" y="497"/>
      <point x="420" y="542"/>
      <point x="316" y="542" type="curve" smooth="yes"/>
      <point x="105" y="542"/>
      <point x="31" y="343"/>
      <point x="31" y="203" type="curve" smooth="yes"/>
      <point x="31" y="57"/>
      <point x="101" y="-9"/>
    </contour>
  </outline>
</glyph>
<glyph name="e" format="2">
  <advance width="438"/>
  <unicode hex="0065"/>
  <anchor x="172" y="0" name="bottom"/>
  <anchor x="309" y="536" name="top"/>
  <anchor x="473" y="536" name="topright"/>
  <outline>
    <contour>
      <point x="219" y="-10" type="curve" smooth="yes"/>
      <point x="322" y="-10"/>
      <point x="374" y="55"/>
      <point x="374" y="108" type="curve" smooth="yes"/>
      <point x="374" y="134"/>
      <point x="367" y="144"/>
      <point x="358" y="147" type="curve"/>
      <point x="335" y="63"/>
      <point x="300" y="2"/>
      <point x="241" y="2" type="curve" smooth="yes"/>
      <point x="189" y="2"/>
      <point x="157" y="52"/>
      <point x="157" y="182" type="curve" smooth="yes"/>
      <point x="157" y="197"/>
      <point x="159" y="237"/>
      <point x="161" y="248" type="curve"/>
      <point x="195" y="248" type="line" smooth="yes"/>
      <point x="338" y="248"/>
      <point x="444" y="317"/>
      <point x="444" y="430" type="curve" smooth="yes"/>
      <point x="444" y="503"/>
      <point x="398" y="546"/>
      <point x="314" y="546" type="curve" smooth="yes"/>
      <point x="112" y="546"/>
      <point x="29" y="342"/>
      <point x="29" y="198" type="curve" smooth="yes"/>
      <point x="29" y="56"/>
      <point x="104" y="-10"/>
    </contour>
    <contour>
      <point x="161" y="258" type="line"/>
      <point x="184" y="431"/>
      <point x="233" y="533"/>
      <point x="285" y="533" type="curve" smooth="yes"/>
      <point x="315" y="533"/>
      <point x="326" y="514"/>
      <point x="326" y="464" type="curve" smooth="yes"/>
      <point x="326" y="363"/>
      <point x="273" y="258"/>
      <point x="179" y="258" type="curve" smooth="yes"/>
    </contour>
  </outline>
</glyph>
<glyph name="g" format="2">
  <advance width="466"/>
  <unicode hex="0067"/>
  <anchor x="117" y="-240" name="bottom"/>
  <anchor x="282" y="536" name="top"/>
  <anchor x="546" y="536" name="topright"/>
  <outline>
    <contour>
      <point x="130" y="-240" type="curve" smooth="yes"/>
      <point x="292" y="-240"/>
      <point x="382" y="-154"/>
      <point x="382" y="-40" type="curve" smooth="yes"/>
      <point x="382" y="51"/>
      <point x="324" y="85"/>
      <point x="239" y="96" type="curve" smooth="yes"/>
      <point x="169" y="104" type="line" smooth="yes"/>
      <point x="127" y="109"/>
      <point x="107" y="120"/>
      <point x="107" y="145" type="curve" smooth="yes"/>
      <point x="107" y="164"/>
      <point x="118" y="178"/>
      <point x="149" y="195" type="curve"/>
      <point x="159" y="193"/>
      <point x="184" y="189"/>
      <point x="218" y="189" type="curve" smooth="yes"/>
      <point x="358" y="189"/>
      <point x="420" y="299"/>
      <point x="420" y="389" type="curve" smooth="yes"/>
      <point x="420" y="453"/>
      <point x="397" y="482"/>
      <point x="384" y="498" type="curve"/>
      <point x="399" y="516"/>
      <point x="411" y="524"/>
      <point x="426" y="524" type="curve" smooth="yes"/>
      <point x="450" y="524"/>
      <point x="463" y="508"/>
      <point x="463" y="460" type="curve"/>
      <point x="500" y="460"/>
      <point x="511" y="494"/>
      <point x="511" y="525" type="curve" smooth="yes"/>
      <point x="511" y="553"/>
      <point x="495" y="577"/>
      <point x="461" y="577" type="curve" smooth="yes"/>
      <point x="422" y="577"/>
      <point x="396" y="536"/>
      <point x="376" y="505" type="curve"/>
      <point x="343" y="536"/>
      <point x="310" y="546"/>
      <point x="266" y="546" type="curve" smooth="yes"/>
      <point x="126" y="546"/>
      <point x="57" y="432"/>
      <point x="57" y="330" type="curve" smooth="yes"/>
      <point x="57" y="272"/>
      <point x="80" y="225"/>
      <point x="138" y="199" type="curve"/>
      <point x="54" y="174"/>
      <point x="26" y="135"/>
      <point x="26" y="90" type="curve" smooth="yes"/>
      <point x="26" y="52"/>
      <point x="44" y="24"/>
      <point x="88" y="5" type="curve"/>
      <point x="-20" y="1"/>
      <point x="-74" y="-45"/>
      <point x="-74" y="-118" type="curve" smooth="yes"/>
      <point x="-74" y="-194"/>
      <point x="-14" y="-240"/>
    </contour>
    <contour>
      <point x="139" y="-230" type="curve" smooth="yes"/>
      <point x="58" y="-230"/>
      <point x="28" y="-180"/>
      <point x="28" y="-120" type="curve" smooth="yes"/>
      <point x="28" y="-59"/>
      <point x="56" y="-19"/>
      <point x="99" y="1" type="curve"/>
      <point x="179" y="-12" type="line" smooth="yes"/>
      <point x="239" y="-22"/>
      <point x="277" y="-47"/>
      <point x="277" y="-107" type="curve" smooth="yes"/>
      <point x="277" y="-174"/>
      <point x="232" y="-230"/>
    </contour>
    <contour>
      <point x="218" y="199" type="curve" smooth="yes"/>
      <point x="176" y="199"/>
      <point x="167" y="239"/>
      <point x="167" y="305" type="curve" smooth="yes"/>
      <point x="167" y="422"/>
      <point x="202" y="536"/>
      <point x="260" y="536" type="curve" smooth="yes"/>
      <point x="293" y="536"/>
      <point x="307" y="508"/>
      <point x="307" y="445" type="curve" smooth="yes"/>
      <point x="307" y="288"/>
      <point x="271" y="199"/>
    </contour>
  </outline>
</glyph>
<glyph name="h" format="2">
  <advance width="557"/>
  <unicode hex="0068"/>
  <anchor x="227" y="0" name="bottom"/>
  <anchor x="341" y="268" name="center"/>
  <anchor x="389" y="760" name="top"/>
  <anchor x="558" y="760" name="topright"/>
  <outline>
    <contour>
      <point x="405" y="-10" type="curve" smooth="yes"/>
      <point x="483" y="-10"/>
      <point x="510" y="22"/>
      <point x="537" y="55" type="curve"/>
      <point x="531" y="63" type="line"/>
      <point x="510" y="36"/>
      <point x="487" y="15"/>
      <point x="465" y="15" type="curve" smooth="yes"/>
      <point x="443" y="15"/>
      <point x="431" y="31"/>
      <point x="431" y="59" type="curve" smooth="yes"/>
      <point x="431" y="87"/>
      <point x="440" y="123"/>
      <point x="448" y="165" type="curve" smooth="yes"/>
      <point x="480" y="318" type="line" smooth="yes"/>
      <point x="487" y="353"/>
      <point x="498" y="399"/>
      <point x="498" y="435" type="curve" smooth="yes"/>
      <point x="498" y="494"/>
      <point x="476" y="546"/>
      <point x="399" y="546" type="curve" smooth="yes"/>
      <point x="315" y="546"/>
      <point x="280" y="503"/>
      <point x="241" y="394" type="curve"/>
      <point x="239" y="394" type="line"/>
      <point x="246" y="419"/>
      <point x="263" y="493"/>
      <point x="267" y="512" type="curve" smooth="yes"/>
      <point x="320" y="760" type="line"/>
      <point x="115" y="760" type="line"/>
      <point x="113" y="750" type="line"/>
      <point x="127" y="750" type="line" smooth="yes"/>
      <point x="164" y="750"/>
      <point x="172" y="738"/>
      <point x="172" y="719" type="curve" smooth="yes"/>
      <point x="172" y="707"/>
      <point x="170" y="697"/>
      <point x="167" y="680" type="curve" smooth="yes"/>
      <point x="21" y="0" type="line"/>
      <point x="152" y="0" type="line"/>
      <point x="225" y="313" type="line" smooth="yes"/>
      <point x="245" y="396"/>
      <point x="290" y="513"/>
      <point x="339" y="513" type="curve" smooth="yes"/>
      <point x="364" y="513"/>
      <point x="369" y="491"/>
      <point x="369" y="456" type="curve" smooth="yes"/>
      <point x="369" y="422"/>
      <point x="359" y="374"/>
      <point x="353" y="344" type="curve" smooth="yes"/>
      <point x="322" y="202" type="line" smooth="yes"/>
      <point x="313" y="157"/>
      <point x="306" y="117"/>
      <point x="306" y="89" type="curve" smooth="yes"/>
      <point x="306" y="28"/>
      <point x="342" y="-10"/>
    </contour>
  </outline>
</glyph>
<glyph name="i" format="2">
  <advance width="301"/>
  <unicode hex="0069"/>
  <anchor x="94" y="0" name="bottom"/>
  <anchor x="256" y="765" name="top"/>
  <anchor x="383" y="765" name="topright"/>
  <outline>
    <contour>
      <point x="157" y="-10" type="curve" smooth="yes"/>
      <point x="218" y="-10"/>
      <point x="250" y="19"/>
      <point x="281" y="55" type="curve"/>
      <point x="274" y="64" type="line"/>
      <point x="253" y="39"/>
      <point x="227" y="14"/>
      <point x="205" y="14" type="curve" smooth="yes"/>
      <point x="184" y="14"/>
      <point x="179" y="32"/>
      <point x="179" y="56" type="curve" smooth="yes"/>
      <point x="179" y="78"/>
      <point x="182" y="104"/>
      <point x="191" y="144" type="curve" smooth="yes"/>
      <point x="275" y="536" type="line"/>
      <point x="72" y="536" type="line"/>
      <point x="70" y="526" type="line"/>
      <point x="80" y="526" type="line" smooth="yes"/>
      <point x="119" y="526"/>
      <point x="127" y="517"/>
      <point x="127" y="495" type="curve" smooth="yes"/>
      <point x="127" y="478"/>
      <point x="124" y="460"/>
      <point x="120" y="440" type="curve" smooth="yes"/>
      <point x="71" y="203" type="line" smooth="yes"/>
      <point x="59" y="146"/>
      <point x="55" y="112"/>
      <point x="55" y="90" type="curve" smooth="yes"/>
      <point x="55" y="23"/>
      <point x="91" y="-10"/>
    </contour>
    <contour>
      <point x="213" y="637" type="curve" smooth="yes"/>
      <point x="258" y="637"/>
      <point x="300" y="662"/>
      <point x="300" y="712" type="curve" smooth="yes"/>
      <point x="300" y="750"/>
      <point x="269" y="765"/>
      <point x="234" y="765" type="curve" smooth="yes"/>
      <point x="191" y="765"/>
      <point x="149" y="744"/>
      <point x="149" y="691" type="curve" smooth="yes"/>
      <point x="149" y="654"/>
      <point x="178" y="637"/>
    </contour>
  </outline>
</glyph>
<glyph name="k" format="2">
  <advance width="505"/>
  <unicode hex="006B"/>
  <anchor x="203" y="0" name="bottom"/>
  <anchor x="365" y="760" name="top"/>
  <anchor x="536" y="760" name="topright"/>
  <outline>
    <contour>
      <point x="419" y="-5" type="curve" smooth="yes"/>
      <point x="467" y="-5" type="line"/>
      <point x="469" y="5" type="line"/>
      <point x="448" y="5"/>
      <point x="444" y="14"/>
      <point x="432" y="49" type="curve" smooth="yes"/>
      <point x="331" y="354" type="line"/>
      <point x="303" y="324" type="line"/>
      <point x="435" y="454" type="line" smooth="yes"/>
      <point x="489" y="507"/>
      <point x="517" y="526"/>
      <point x="551" y="526" type="curve"/>
      <point x="553" y="536" type="line"/>
      <point x="344" y="536" type="line"/>
      <point x="342" y="526" type="line"/>
      <point x="401" y="526"/>
      <point x="435" y="521"/>
      <point x="435" y="492" type="curve" smooth="yes"/>
      <point x="435" y="470"/>
      <point x="410" y="443"/>
      <point x="378" y="414" type="curve" smooth="yes"/>
      <point x="202" y="245" type="line"/>
      <point x="224" y="323"/>
      <point x="242" y="406"/>
      <point x="257" y="473" type="curve" smooth="yes"/>
      <point x="320" y="760" type="line"/>
      <point x="115" y="760" type="line"/>
      <point x="113" y="750" type="line"/>
      <point x="134" y="750" type="line" smooth="yes"/>
      <point x="163" y="750"/>
      <point x="172" y="745"/>
      <point x="172" y="720" type="curve" smooth="yes"/>
      <point x="172" y="709"/>
      <point x="170" y="693"/>
      <point x="167" y="680" type="curve" smooth="yes"/>
      <point x="22" y="0" type="line"/>
      <point x="153" y="0" type="line"/>
      <point x="200" y="230" type="line"/>
      <point x="289" y="315" type="line"/>
      <point x="229" y="264" type="line"/>
      <point x="275" y="103" type="line" smooth="yes"/>
      <point x="301" y="17"/>
      <point x="336" y="-5"/>
    </contour>
  </outline>
</glyph>
<glyph name="l" format="2">
  <advance width="299"/>
  <unicode hex="006C"/>
  <anchor x="96" y="0" name="bottom"/>
  <anchor x="210" y="268" name="center"/>
  <anchor x="258" y="760" name="top"/>
  <anchor x="384" y="760" name="topright"/>
  <outline>
    <contour>
      <point x="150" y="-10" type="curve" smooth="yes"/>
      <point x="224" y="-10"/>
      <point x="247" y="14"/>
      <point x="278" y="50" type="curve"/>
      <point x="272" y="58" type="line"/>
      <point x="251" y="34"/>
      <point x="233" y="16"/>
      <point x="205" y="16" type="curve" smooth="yes"/>
      <point x="181" y="16"/>
      <point x="172" y="31"/>
      <point x="172" y="63" type="curve" smooth="yes"/>
      <point x="172" y="80"/>
      <point x="175" y="110"/>
      <point x="184" y="149" type="curve" smooth="yes"/>
      <point x="318" y="760" type="line"/>
      <point x="115" y="760" type="line"/>
      <point x="113" y="750" type="line"/>
      <point x="129" y="750" type="line" smooth="yes"/>
      <point x="166" y="750"/>
      <point x="170" y="735"/>
      <point x="170" y="718" type="curve" smooth="yes"/>
      <point x="170" y="708"/>
      <point x="167" y="692"/>
      <point x="163" y="677" type="curve" smooth="yes"/>
      <point x="63" y="204" type="line" smooth="yes"/>
      <point x="52" y="149"/>
      <point x="46" y="117"/>
      <point x="46" y="91" type="curve" smooth="yes"/>
      <point x="46" y="25"/>
      <point x="82" y="-10"/>
    </contour>
  </outline>
</glyph>
<glyph name="m" format="2">
  <advance width="798"/>
  <unicode hex="006D"/>
  <anchor x="340" y="0" name="bottom"/>
  <anchor x="454" y="536" name="top"/>
  <anchor x="831" y="536" name="topright"/>
  <outline>
    <contour>
      <point x="658" y="-8" type="curve" smooth="yes"/>
      <point x="720" y="-8"/>
      <point x="751" y="16"/>
      <point x="777" y="51" type="curve"/>
      <point x="771" y="59" type="line"/>
      <point x="753" y="37"/>
      <point x="738" y="15"/>
      <point x="710" y="15" type="curve" smooth="yes"/>
      <point x="685" y="15"/>
      <point x="674" y="33"/>
      <point x="674" y="69" type="curve" smooth="yes"/>
      <point x="674" y="85"/>
      <point x="677" y="116"/>
      <point x="683" y="149" type="curve" smooth="yes"/>
      <point x="718" y="322" type="line" smooth="yes"/>
      <point x="725" y="359"/>
      <point x="737" y="399"/>
      <point x="737" y="444" type="curve" smooth="yes"/>
      <point x="737" y="523"/>
      <point x="698" y="545"/>
      <point x="640" y="545" type="curve" smooth="yes"/>
      <point x="569" y="545"/>
      <point x="532" y="515"/>
      <point x="490" y="412" type="curve"/>
      <point x="487" y="412" type="line"/>
      <point x="488" y="421"/>
      <point x="488" y="430"/>
      <point x="488" y="439" type="curve" smooth="yes"/>
      <point x="488" y="505"/>
      <point x="462" y="545"/>
      <point x="388" y="545" type="curve" smooth="yes"/>
      <point x="339" y="545"/>
      <point x="290" y="524"/>
      <point x="249" y="417" type="curve"/>
      <point x="246" y="417" type="line"/>
      <point x="267" y="536" type="line"/>
      <point x="72" y="536" type="line"/>
      <point x="71" y="526" type="line"/>
      <point x="84" y="526" type="line" smooth="yes"/>
      <point x="117" y="526"/>
      <point x="125" y="519"/>
      <point x="125" y="497" type="curve" smooth="yes"/>
      <point x="125" y="483"/>
      <point x="121" y="465"/>
      <point x="117" y="448" type="curve" smooth="yes"/>
      <point x="23" y="0" type="line"/>
      <point x="156" y="0" type="line"/>
      <point x="221" y="304" type="line" smooth="yes"/>
      <point x="237" y="377"/>
      <point x="290" y="512"/>
      <point x="338" y="512" type="curve" smooth="yes"/>
      <point x="360" y="512"/>
      <point x="364" y="483"/>
      <point x="364" y="465" type="curve" smooth="yes"/>
      <point x="364" y="435"/>
      <point x="358" y="402"/>
      <point x="346" y="344" type="curve" smooth="yes"/>
      <point x="318" y="216" type="line" smooth="yes"/>
      <point x="305" y="156"/>
      <point x="292" y="68"/>
      <point x="287" y="0" type="curve"/>
      <point x="424" y="0" type="line"/>
      <point x="428" y="66"/>
      <point x="434" y="138"/>
      <point x="446" y="191" type="curve" smooth="yes"/>
      <point x="471" y="315" type="line" smooth="yes"/>
      <point x="486" y="388"/>
      <point x="534" y="512"/>
      <point x="583" y="512" type="curve" smooth="yes"/>
      <point x="605" y="512"/>
      <point x="608" y="485"/>
      <point x="608" y="465" type="curve" smooth="yes"/>
      <point x="608" y="431"/>
      <point x="596" y="375"/>
      <point x="589" y="345" type="curve" smooth="yes"/>
      <point x="559" y="198" type="line" smooth="yes"/>
      <point x="551" y="158"/>
      <point x="544" y="125"/>
      <point x="544" y="95" type="curve" smooth="yes"/>
      <point x="544" y="28"/>
      <point x="585" y="-8"/>
    </contour>
  </outline>
</glyph>
<glyph name="n" format="2">
  <advance width="557"/>
  <unicode hex="006E"/>
  <anchor x="222" y="0" name="bottom"/>
  <anchor x="336" y="536" name="top"/>
  <anchor x="595" y="536" name="topright"/>
  <outline>
    <contour>
      <point x="415" y="-10" type="curve" smooth="yes"/>
      <point x="476" y="-10"/>
      <point x="509" y="17"/>
      <point x="537" y="55" type="curve"/>
      <point x="531" y="63" type="line"/>
      <point x="513" y="42"/>
      <point x="493" y="15"/>
      <point x="465" y="15" type="curve" smooth="yes"/>
      <point x="446" y="15"/>
      <point x="435" y="31"/>
      <point x="435" y="60" type="curve" smooth="yes"/>
      <point x="435" y="89"/>
      <point x="442" y="122"/>
      <point x="449" y="160" type="curve" smooth="yes"/>
      <point x="481" y="317" type="line" smooth="yes"/>
      <point x="489" y="356"/>
      <point x="497" y="401"/>
      <point x="497" y="436" type="curve" smooth="yes"/>
      <point x="497" y="494"/>
      <point x="471" y="545"/>
      <point x="397" y="545" type="curve" smooth="yes"/>
      <point x="323" y="545"/>
      <point x="277" y="512"/>
      <point x="237" y="406" type="curve"/>
      <point x="235" y="406" type="line"/>
      <point x="255" y="536" type="line"/>
      <point x="72" y="536" type="line"/>
      <point x="71" y="526" type="line"/>
      <point x="86" y="526" type="line" smooth="yes"/>
      <point x="119" y="526"/>
      <point x="123" y="514"/>
      <point x="123" y="495" type="curve" smooth="yes"/>
      <point x="123" y="482"/>
      <point x="120" y="463"/>
      <point x="116" y="445" type="curve" smooth="yes"/>
      <point x="23" y="0" type="line"/>
      <point x="154" y="0" type="line"/>
      <point x="221" y="319" type="line" smooth="yes"/>
      <point x="240" y="410"/>
      <point x="284" y="513"/>
      <point x="337" y="513" type="curve" smooth="yes"/>
      <point x="366" y="513"/>
      <point x="369" y="479"/>
      <point x="369" y="454" type="curve" smooth="yes"/>
      <point x="369" y="420"/>
      <point x="358" y="369"/>
      <point x="353" y="344" type="curve" smooth="yes"/>
      <point x="323" y="202" type="line" smooth="yes"/>
      <point x="314" y="156"/>
      <point x="309" y="120"/>
      <point x="309" y="92" type="curve" smooth="yes"/>
      <point x="309" y="29"/>
      <point x="349" y="-10"/>
    </contour>
  </outline>
</glyph>
<glyph name="o" format="2">
  <advance width="505"/>
  <unicode hex="006F"/>
  <anchor x="188" y="0" name="bottom"/>
  <anchor x="302" y="268" name="center"/>
  <anchor x="302" y="536" name="top"/>
  <anchor x="535" y="536" name="topright"/>
  <outline>
    <contour>
      <point x="208" y="-10" type="curve" smooth="yes"/>
      <point x="397" y="-10"/>
      <point x="476" y="196"/>
      <point x="476" y="341" type="curve" smooth="yes"/>
      <point x="476" y="486"/>
      <point x="399" y="546"/>
      <point x="306" y="546" type="curve" smooth="yes"/>
      <point x="110" y="546"/>
      <point x="30" y="344"/>
      <point x="30" y="195" type="curve" smooth="yes"/>
      <point x="30" y="57"/>
      <point x="101" y="-10"/>
    </contour>
    <contour>
      <point x="214" y="0" type="curve" smooth="yes"/>
      <point x="173" y="0"/>
      <point x="151" y="35"/>
      <point x="151" y="133" type="curve" smooth="yes"/>
      <point x="151" y="322"/>
      <point x="214" y="536"/>
      <point x="297" y="536" type="curve" smooth="yes"/>
      <point x="339" y="536"/>
      <point x="355" y="491"/>
      <point x="355" y="398" type="curve" smooth="yes"/>
      <point x="355" y="220"/>
      <point x="304" y="0"/>
    </contour>
  </outline>
</glyph>
<glyph name="p" format="2">
  <advance width="539"/>
  <unicode hex="0070"/>
  <anchor x="69" y="-240" name="bottom"/>
  <anchor x="342" y="536" name="top"/>
  <anchor x="569" y="536" name="topright"/>
  <outline>
    <contour>
      <point x="-18" y="-240" type="line"/>
      <point x="199" y="-240" type="line"/>
      <point x="201" y="-230" type="line"/>
      <point x="176" y="-230" type="line" smooth="yes"/>
      <point x="138" y="-230"/>
      <point x="125" y="-225"/>
      <point x="125" y="-200" type="curve" smooth="yes"/>
      <point x="125" y="-191"/>
      <point x="126" y="-182"/>
      <point x="130" y="-161" type="curve" smooth="yes"/>
      <point x="156" y="-35" type="line" smooth="yes"/>
      <point x="160" y="-15"/>
      <point x="163" y="-1"/>
      <point x="165" y="17" type="curve"/>
      <point x="186" y="0"/>
      <point x="208" y="-10"/>
      <point x="246" y="-10" type="curve" smooth="yes"/>
      <point x="434" y="-10"/>
      <point x="515" y="220"/>
      <point x="515" y="374" type="curve" smooth="yes"/>
      <point x="515" y="494"/>
      <point x="472" y="546"/>
      <point x="403" y="546" type="curve" smooth="yes"/>
      <point x="318" y="546"/>
      <point x="274" y="481"/>
      <point x="241" y="386" type="curve"/>
      <point x="237" y="386" type="line"/>
      <point x="265" y="536" type="line"/>
      <point x="73" y="536" type="line"/>
      <point x="70" y="526" type="line"/>
      <point x="93" y="526" type="line" smooth="yes"/>
      <point x="130" y="526"/>
      <point x="136" y="517"/>
      <point x="136" y="493" type="curve" smooth="yes"/>
      <point x="136" y="483"/>
      <point x="133" y="466"/>
      <point x="129" y="446" type="curve" smooth="yes"/>
    </contour>
    <contour>
      <point x="225" y="3" type="curve" smooth="yes"/>
      <point x="200" y="3"/>
      <point x="179" y="14"/>
      <point x="168" y="29" type="curve"/>
      <point x="234" y="331" type="line" smooth="yes"/>
      <point x="252" y="412"/>
      <point x="299" y="511"/>
      <point x="345" y="511" type="curve" smooth="yes"/>
      <point x="373" y="511"/>
      <point x="392" y="487"/>
      <point x="392" y="412" type="curve" smooth="yes"/>
      <point x="392" y="254"/>
      <point x="330" y="3"/>
    </contour>
  </outline>
</glyph>
<glyph name="q" format="2">
  <advance width="512"/>
  <unicode hex="0071"/>
  <anchor x="142" y="-240" name="bottom"/>
  <anchor x="307" y="536" name="top"/>
  <anchor x="547" y="536" name="topright"/>
  <outline>
    <contour>
      <point x="263" y="-26" type="curve" smooth="yes"/>
      <point x="220" y="-240" type="line"/>
      <point x="419" y="-240" type="line"/>
      <point x="421" y="-229" type="line"/>
      <point x="395" y="-229" type="line" smooth="yes"/>
      <point x="365" y="-229"/>
      <point x="351" y="-220"/>
      <point x="351" y="-199" type="curve" smooth="yes"/>
      <point x="351" y="-189"/>
      <point x="353" y="-171"/>
      <point x="357" y="-153" type="curve" smooth="yes"/>
      <point x="504" y="546" type="line"/>
      <point x="494" y="546" type="line"/>
      <point x="384" y="517" type="line"/>
      <point x="363" y="534"/>
      <point x="342" y="546"/>
      <point x="294" y="546" type="curve" smooth="yes"/>
      <point x="117" y="546"/>
      <point x="24" y="330"/>
      <point x="24" y="163" type="curve" smooth="yes"/>
      <point x="24" y="68"/>
      <point x="61" y="-10"/>
      <point x="146" y="-10" type="curve" smooth="yes"/>
      <point x="217" y="-10"/>
      <point x="268" y="45"/>
      <point x="303" y="165" type="curve"/>
      <point x="308" y="165" type="line"/>
      <point x="294" y="111"/>
      <point x="274" y="30"/>
    </contour>
    <contour>
      <point x="202" y="25" type="curve" smooth="yes"/>
      <point x="173" y="25"/>
      <point x="148" y="53"/>
      <point x="148" y="149" type="curve" smooth="yes"/>
      <point x="148" y="344"/>
      <point x="226" y="532"/>
      <point x="321" y="532" type="curve" smooth="yes"/>
      <point x="343" y="532"/>
      <point x="358" y="522"/>
      <point x="365" y="509" type="curve"/>
      <point x="311" y="230" type="line" smooth="yes"/>
      <point x="293" y="138"/>
      <point x="248" y="25"/>
    </contour>
  </outline>
</glyph>
<glyph name="r" format="2">
  <advance width="455"/>
  <unicode hex="0072"/>
  <anchor x="87" y="0" name="bottom"/>
  <anchor x="296" y="536" name="top"/>
  <anchor x="489" y="536" name="topright"/>
  <outline>
    <contour>
      <point x="20" y="0" type="line"/>
      <point x="151" y="0" type="line"/>
      <point x="217" y="295" type="line" smooth="yes"/>
      <point x="249" y="436"/>
      <point x="299" y="515"/>
      <point x="339" y="515" type="curve" smooth="yes"/>
      <point x="359" y="515"/>
      <point x="374" y="503"/>
      <point x="374" y="444" type="curve" smooth="yes"/>
      <point x="374" y="424"/>
      <point x="373" y="400"/>
      <point x="370" y="368" type="curve"/>
      <point x="427" y="368"/>
      <point x="479" y="396"/>
      <point x="479" y="464" type="curve" smooth="yes"/>
      <point x="479" y="515"/>
      <point x="450" y="546"/>
      <point x="394" y="546" type="curve" smooth="yes"/>
      <point x="319" y="546"/>
      <point x="270" y="503"/>
      <point x="232" y="377" type="curve"/>
      <point x="229" y="377" type="line"/>
      <point x="254" y="536" type="line"/>
      <point x="72" y="536" type="line"/>
      <point x="70" y="526" type="line"/>
      <point x="85" y="526" type="line" smooth="yes"/>
      <point x="114" y="526"/>
      <point x="122" y="516"/>
      <point x="122" y="498" type="curve" smooth="yes"/>
      <point x="122" y="481"/>
      <point x="118" y="464"/>
      <point x="114" y="444" type="curve" smooth="yes"/>
    </contour>
  </outline>
</glyph>
<glyph name="t" format="2">
  <advance width="347"/>
  <unicode hex="0074"/>
  <anchor x="113" y="0" name="bottom"/>
  <anchor x="227" y="268" name="center"/>
  <anchor x="253" y="659" name="top"/>
  <anchor x="402" y="659" name="topright"/>
  <outline>
    <contour>
      <point x="158" y="-10" type="curve" smooth="yes"/>
      <point x="224" y="-10"/>
      <point x="268" y="19"/>
      <point x="306" y="53" type="curve"/>
      <point x="301" y="62" type="line"/>
      <point x="275" y="36"/>
      <point x="240" y="17"/>
      <point x="215" y="17" type="curve" smooth="yes"/>
      <point x="185" y="17"/>
      <point x="174" y="33"/>
      <point x="174" y="64" type="curve" smooth="yes"/>
      <point x="174" y="86"/>
      <point x="177" y="106"/>
      <point x="186" y="144" type="curve" smooth="yes"/>
      <point x="270" y="526" type="line"/>
      <point x="366" y="526" type="line"/>
      <point x="368" y="536" type="line"/>
      <point x="273" y="536" type="line"/>
      <point x="300" y="659" type="line"/>
      <point x="290" y="659" type="line"/>
      <point x="237" y="574"/>
      <point x="120" y="532"/>
      <point x="61" y="532" type="curve"/>
      <point x="60" y="526" type="line"/>
      <point x="136" y="526" type="line"/>
      <point x="64" y="191" type="line" smooth="yes"/>
      <point x="56" y="153"/>
      <point x="52" y="123"/>
      <point x="52" y="98" type="curve" smooth="yes"/>
      <point x="52" y="29"/>
      <point x="97" y="-10"/>
    </contour>
  </outline>
</glyph>
<glyph name="v" format="2">
  <advance width="470"/>
  <unicode hex="0076"/>
  <anchor x="184" y="0" name="bottom"/>
  <anchor x="298" y="536" name="top"/>
  <anchor x="518" y="536" name="topright"/>
  <outline>
    <contour>
      <point x="86" y="472" type="curve" smooth="yes"/>
      <point x="140" y="-9" type="line"/>
      <point x="225" y="0" type="line"/>
      <point x="335" y="141"/>
      <point x="459" y="308"/>
      <point x="459" y="460" type="curve" smooth="yes"/>
      <point x="459" y="519"/>
      <point x="433" y="546"/>
      <point x="399" y="546" type="curve" smooth="yes"/>
      <point x="362" y="546"/>
      <point x="340" y="515"/>
      <point x="340" y="477" type="curve"/>
      <point x="392" y="477"/>
      <point x="415" y="444"/>
      <point x="415" y="387" type="curve" smooth="yes"/>
      <point x="415" y="278"/>
      <point x="346" y="172"/>
      <point x="253" y="50" type="curve"/>
      <point x="250" y="50" type="line"/>
      <point x="247" y="96"/>
      <point x="242" y="139"/>
      <point x="238" y="187" type="curve" smooth="yes"/>
      <point x="204" y="536" type="line"/>
      <point x="41" y="536" type="line"/>
      <point x="39" y="526" type="line"/>
      <point x="45" y="526" type="line" smooth="yes"/>
      <point x="74" y="526"/>
      <point x="81" y="518"/>
    </contour>
  </outline>
</glyph>
<glyph name="x" format="2">
  <advance width="495"/>
  <unicode hex="0078"/>
  <anchor x="191" y="0" name="bottom"/>
  <anchor x="305" y="536" name="top"/>
  <anchor x="533" y="536" name="topright"/>
  <outline>
    <contour>
      <point x="-23" y="0" type="line"/>
      <point x="51" y="0" type="line"/>
      <point x="204" y="228" type="line"/>
      <point x="267" y="0" type="line"/>
      <point x="438" y="0" type="line"/>
      <point x="440" y="10" type="line"/>
      <point x="433" y="10" type="line" smooth="yes"/>
      <point x="414" y="10"/>
      <point x="402" y="14"/>
      <point x="384" y="73" type="curve" smooth="yes"/>
      <point x="306" y="321" type="line"/>
      <point x="398" y="464" type="line" smooth="yes"/>
      <point x="435" y="518"/>
      <point x="460" y="526"/>
      <point x="499" y="526" type="curve" smooth="yes"/>
      <point x="510" y="526" type="line"/>
      <point x="512" y="536" type="line"/>
      <point x="434" y="536" type="line"/>
      <point x="302" y="331" type="line"/>
      <point x="242" y="536" type="line"/>
      <point x="82" y="536" type="line"/>
      <point x="80" y="526" type="line"/>
      <point x="90" y="526" type="line" smooth="yes"/>
      <point x="111" y="526"/>
      <point x="116" y="517"/>
      <point x="126" y="484" type="curve" smooth="yes"/>
      <point x="200" y="239" type="line"/>
      <point x="79" y="61" type="line" smooth="yes"/>
      <point x="51" y="21"/>
      <point x="31" y="10"/>
      <point x="-12" y="10" type="curve" smooth="yes"/>
      <point x="-21" y="10" type="line"/>
    </contour>
  </outline>
</glyph>
<glyph name="y" format="2">
  <advance width="488"/>
  <unicode hex="0079"/>
  <anchor x="45" y="-240" name="bottom"/>
  <anchor x="280" y="536" name="top"/>
  <anchor x="515" y="536" name="topright"/>
  <outline>
    <contour>
      <point x="-58" y="-240" type="curve" smooth="yes"/>
      <point x="112" y="-240"/>
      <point x="175" y="-137"/>
      <point x="310" y="67" type="curve" smooth="yes"/>
      <point x="413" y="222"/>
      <point x="476" y="344"/>
      <point x="476" y="462" type="curve" smooth="yes"/>
      <point x="476" y="513"/>
      <point x="454" y="545"/>
      <point x="412" y="545" type="curve" smooth="yes"/>
      <point x="380" y="545"/>
      <point x="353" y="521"/>
      <point x="353" y="477" type="curve"/>
      <point x="385" y="477"/>
      <point x="430" y="465"/>
      <point x="430" y="393" type="curve" smooth="yes"/>
      <point x="430" y="270"/>
      <point x="369" y="173"/>
      <point x="271" y="29" type="curve"/>
      <point x="268" y="29" type="line"/>
      <point x="264" y="65"/>
      <point x="256" y="150"/>
      <point x="249" y="200" type="curve" smooth="yes"/>
      <point x="199" y="536" type="line"/>
      <point x="33" y="536" type="line"/>
      <point x="30" y="526" type="line"/>
      <point x="38" y="526" type="line" smooth="yes"/>
      <point x="60" y="526"/>
      <point x="67" y="516"/>
      <point x="74" y="476" type="curve" smooth="yes"/>
      <point x="175" y="-93" type="line"/>
      <point x="108" y="-189"/>
      <point x="41" y="-230"/>
      <point x="-59" y="-230" type="curve" smooth="yes"/>
      <point x="-96" y="-230"/>
      <point x="-121" y="-221"/>
      <point x="-140" y="-212" type="curve"/>
      <point x="-144" y="-222" type="line"/>
      <point x="-122" y="-233"/>
      <point x="-91" y="-240"/>
    </contour>
  </outline>
</glyph>
<glyph name="z" format="2">
  <advance width="465"/>
  <unicode hex="007A"/>
  <anchor x="176" y="0" name="bottom"/>
  <anchor x="270" y="536" name="top"/>
  <anchor x="498" y="536" name="topright"/>
  <outline>
    <contour>
      <point x="-12" y="0" type="line"/>
      <point x="383" y="0" type="line"/>
      <point x="422" y="181" type="line"/>
      <point x="414" y="181" type="line"/>
      <point x="387" y="94" type="line" smooth="yes"/>
      <point x="369" y="38"/>
      <point x="346" y="10"/>
      <point x="273" y="10" type="curve" smooth="yes"/>
      <point x="130" y="10" type="line"/>
      <point x="480" y="526" type="line"/>
      <point x="482" y="536" type="line"/>
      <point x="116" y="536" type="line"/>
      <point x="75" y="374" type="line"/>
      <point x="85" y="374" type="line"/>
      <point x="101" y="426" type="line" smooth="yes"/>
      <point x="126" y="504"/>
      <point x="158" y="526"/>
      <point x="238" y="526" type="curve" smooth="yes"/>
      <point x="338" y="526" type="line"/>
      <point x="-10" y="10" type="line"/>
    </contour>
  </outline>
</glyph>
<glyph name="braceleft" format="2">
  <advance width="369"/>
  <unicode hex="007B"/>
  <outline>
    <contour>
      <point x="194" y="-125" type="curve" smooth="yes"/>
      <point x="268" y="-125" type="line"/>
      <point x="271" y="-115" type="line"/>
      <point x="246" y="-115" type="line" smooth="yes"/>
      <point x="209" y="-115"/>
      <point x="195" y="-97"/>
      <point x="195" y="-66" type="curve" smooth="yes"/>
      <point x="195" y="-50"/>
      <point x="198" y="-34"/>
      <point x="202" y="-15" type="curve" smooth="yes"/>
      <point x="242" y="166" type="line" smooth="yes"/>
      <point x="244" y="179"/>
      <point x="248" y="197"/>
      <point x="248" y="214" type="curve" smooth="yes"/>
      <point x="248" y="249"/>
      <point x="225" y="309"/>
      <point x="117" y="314" type="curve"/>
      <point x="118" y="319" type="line"/>
      <point x="246" y="327"/>
      <point x="286" y="380"/>
      <point x="302" y="452" type="curve" smooth="yes"/>
      <point x="350" y="665" type="line" smooth="yes"/>
      <point x="365" y="732"/>
      <point x="376" y="750"/>
      <point x="431" y="750" type="curve" smooth="yes"/>
      <point x="453" y="750" type="line"/>
      <point x="456" y="760" type="line"/>
      <point x="376" y="760" type="line" smooth="yes"/>
      <point x="270" y="760"/>
      <point x="224" y="721"/>
      <point x="201" y="615" type="curve" smooth="yes"/>
      <point x="158" y="413" type="line" smooth="yes"/>
      <point x="144" y="345"/>
      <point x="113" y="326"/>
      <point x="48" y="325" type="curve"/>
      <point x="46" y="315" type="line"/>
      <point x="93" y="312"/>
      <point x="121" y="301"/>
      <point x="121" y="255" type="curve" smooth="yes"/>
      <point x="121" y="244"/>
      <point x="119" y="229"/>
      <point x="115" y="210" type="curve" smooth="yes"/>
      <point x="84" y="67" type="line" smooth="yes"/>
      <point x="72" y="12"/>
      <point x="71" y="-5"/>
      <point x="71" y="-19" type="curve" smooth="yes"/>
      <point x="71" y="-85"/>
      <point x="110" y="-125"/>
    </contour>
  </outline>
</glyph>
<glyph name="braceright" format="2">
  <advance width="369"/>
  <unicode hex="007D"/>
  <outline>
    <contour>
      <point x="-66" y="-125" type="line"/>
      <point x="13" y="-125" type="line" smooth="yes"/>
      <point x="120" y="-125"/>
      <point x="165" y="-86"/>
      <point x="188" y="20" type="curve" smooth="yes"/>
      <point x="231" y="222" type="line" smooth="yes"/>
      <point x="246" y="290"/>
      <point x="277" y="309"/>
      <point x="342" y="310" type="curve"/>
      <point x="344" y="320" type="line"/>
      <point x="297" y="323"/>
      <point x="269" y="334"/>
      <point x="269" y="380" type="curve" smooth="yes"/>
      <point x="269" y="391"/>
      <point x="271" y="406"/>
      <point x="275" y="424" type="curve" smooth="yes"/>
      <point x="306" y="568" type="line" smooth="yes"/>
      <point x="318" y="623"/>
      <point x="319" y="640"/>
      <point x="319" y="654" type="curve" smooth="yes"/>
      <point x="319" y="720"/>
      <point x="280" y="760"/>
      <point x="196" y="760" type="curve" smooth="yes"/>
      <point x="122" y="760" type="line"/>
      <point x="119" y="750" type="line"/>
      <point x="144" y="750" type="line" smooth="yes"/>
      <point x="181" y="750"/>
      <point x="195" y="732"/>
      <point x="195" y="700" type="curve" smooth="yes"/>
      <point x="195" y="684"/>
      <point x="192" y="668"/>
      <point x="188" y="650" type="curve" smooth="yes"/>
      <point x="148" y="469" type="line" smooth="yes"/>
      <point x="146" y="456"/>
      <point x="142" y="438"/>
      <point x="142" y="421" type="curve" smooth="yes"/>
      <point x="142" y="386"/>
      <point x="165" y="326"/>
      <point x="273" y="321" type="curve"/>
      <point x="272" y="316" type="line"/>
      <point x="144" y="308"/>
      <point x="104" y="255"/>
      <point x="88" y="183" type="curve" smooth="yes"/>
      <point x="40" y="-30" type="line" smooth="yes"/>
      <point x="25" y="-97"/>
      <point x="14" y="-115"/>
      <point x="-41" y="-115" type="curve" smooth="yes"/>
      <point x="-63" y="-115" type="line"/>
    </contour>
  </outline>
</glyph>
<glyph name="sterling" format="2">
  <advance width="485"/>
  <unicode hex="00A3"/>
  <outline>
    <contour>
      <point x="330" y="-10" type="curve" smooth="yes"/>
      <point x="387" y="-10"/>
      <point x="431" y="38"/>
      <point x="468" y="82" type="curve"/>
      <point x="462" y="88" type="line"/>
      <point x="436" y="59"/>
      <point x="414" y="50"/>
      <point x="397" y="50" type="curve" smooth="yes"/>
      <point x="318" y="50"/>
      <point x="312" y="120"/>
      <point x="237" y="120" type="curve" smooth="yes"/>
      <point x="209" y="120"/>
      <point x="181" y="112"/>
      <point x="139" y="87" type="curve"/>
      <point x="138" y="91" type="line"/>
      <point x="240" y="164"/>
      <point x="270" y="220"/>
      <point x="270" y="300" type="curve" smooth="yes"/>
      <point x="270" y="317"/>
      <point x="268" y="347"/>
      <point x="266" y="379" type="curve"/>
      <point x="410" y="379" type="line"/>
      <point x="412" y="389" type="line"/>
      <point x="266" y="389" type="line"/>
      <point x="262" y="448"/>
      <point x="257" y="516"/>
      <point x="257" y="557" type="curve" smooth="yes"/>
      <point x="257" y="656"/>
      <point x="288" y="714"/>
      <point x="340" y="714" type="curve" smooth="yes"/>
      <point x="382" y="714"/>
      <point x="404" y="682"/>
      <point x="404" y="528" type="curve"/>
      <point x="473" y="528"/>
      <point x="511" y="556"/>
      <point x="511" y="607" type="curve" smooth="yes"/>
      <point x="511" y="668"/>
      <point x="458" y="724"/>
      <point x="349" y="724" type="curve" smooth="yes"/>
      <point x="226" y="724"/>
      <point x="143" y="647"/>
      <point x="143" y="511" type="curve" smooth="yes"/>
      <point x="143" y="474"/>
      <point x="149" y="433"/>
      <point x="154" y="389" type="curve"/>
      <point x="74" y="389" type="line"/>
      <point x="73" y="379" type="line"/>
      <point x="155" y="379" type="line"/>
      <point x="159" y="341"/>
      <point x="163" y="299"/>
      <point x="163" y="257" type="curve" smooth="yes"/>
      <point x="163" y="141"/>
      <point x="131" y="100"/>
      <point x="46" y="37" type="curve" smooth="yes"/>
      <point x="20" y="19" type="line"/>
      <point x="25" y="9" type="line"/>
      <point x="65" y="36" type="line" smooth="yes"/>
      <point x="103" y="61"/>
      <point x="138" y="68"/>
      <point x="158" y="68" type="curve" smooth="yes"/>
      <point x="228" y="68"/>
      <point x="256" y="-10"/>
    </contour>
  </outline>
</glyph>
<glyph name="currency" format="2">
  <advance width="533"/>
  <unicode hex="00A4"/>
  <outline>
    <contour>
      <point x="123" y="149" type="line"/>
      <point x="181" y="206" type="line"/>
      <point x="210" y="186"/>
      <point x="246" y="174"/>
      <point x="285" y="174" type="curve" smooth="yes"/>
      <point x="323" y="174"/>
      <point x="360" y="186"/>
      <point x="390" y="207" type="curve"/>
      <point x="448" y="149" type="line"/>
      <point x="495" y="196" type="line"/>
      <point x="436" y="254" type="line"/>
      <point x="456" y="283"/>
      <point x="467" y="317"/>
      <point x="467" y="356" type="curve" smooth="yes"/>
      <point x="467" y="394"/>
      <point x="455" y="430"/>
      <point x="434" y="458" type="curve"/>
      <point x="495" y="521" type="line"/>
      <point x="448" y="569" type="line"/>
      <point x="386" y="506" type="line"/>
      <point x="357" y="527"/>
      <point x="322" y="539"/>
      <point x="285" y="539" type="curve" smooth="yes"/>
      <point x="246" y="539"/>
      <point x="213" y="527"/>
      <point x="184" y="508" type="curve"/>
      <point x="123" y="568" type="line"/>
      <point x="77" y="521" type="line"/>
      <point x="136" y="461" type="line"/>
      <point x="114" y="432"/>
      <point x="103" y="394"/>
      <point x="103" y="356" type="curve" smooth="yes"/>
      <point x="103" y="318"/>
      <point x="113" y="283"/>
      <point x="133" y="255" type="curve"/>
      <point x="75" y="197" type="line"/>
    </contour>
    <contour>
      <point x="285" y="237" type="curve" smooth="yes"/>
      <point x="220" y="237"/>
      <point x="168" y="290"/>
      <point x="168" y="356" type="curve" smooth="yes"/>
      <point x="168" y="423"/>
      <point x="220" y="474"/>
      <point x="285" y="474" type="curve" smooth="yes"/>
      <point x="352" y="474"/>
      <point x="402" y="423"/>
      <point x="402" y="356" type="curve" smooth="yes"/>
      <point x="402" y="290"/>
      <point x="352" y="237"/>
    </contour>
  </outline>
</glyph>
<glyph name="yen" format="2">
  <advance width="486"/>
  <unicode hex="00A5"/>
  <outline>
    <contour>
      <point x="47" y="0" type="line"/>
      <point x="344" y="0" type="line"/>
      <point x="345" y="10" type="line"/>
      <point x="330" y="10" type="line" smooth="yes"/>
      <point x="297" y="10"/>
      <point x="279" y="15"/>
      <point x="279" y="39" type="curve" smooth="yes"/>
      <point x="279" y="51"/>
      <point x="282" y="63"/>
      <point x="286" y="81" type="curve" smooth="yes"/>
      <point x="306" y="193" type="line"/>
      <point x="412" y="193" type="line"/>
      <point x="414" y="203" type="line"/>
      <point x="308" y="203" type="line"/>
      <point x="329" y="313" type="line"/>
      <point x="438" y="313" type="line"/>
      <point x="440" y="322" type="line"/>
      <point x="332" y="322" type="line"/>
      <point x="491" y="633" type="line" smooth="yes"/>
      <point x="518" y="686"/>
      <point x="539" y="704"/>
      <point x="574" y="704" type="curve" smooth="yes"/>
      <point x="585" y="704" type="line"/>
      <point x="588" y="714" type="line"/>
      <point x="409" y="714" type="line"/>
      <point x="407" y="704" type="line"/>
      <point x="438" y="704" type="line" smooth="yes"/>
      <point x="478" y="704"/>
      <point x="489" y="695"/>
      <point x="489" y="671" type="curve" smooth="yes"/>
      <point x="489" y="657"/>
      <point x="480" y="635"/>
      <point x="467" y="611" type="curve" smooth="yes"/>
      <point x="363" y="405" type="line" smooth="yes"/>
      <point x="346" y="374"/>
      <point x="332" y="345"/>
      <point x="323" y="326" type="curve"/>
      <point x="319" y="355"/>
      <point x="307" y="419"/>
      <point x="299" y="460" type="curve" smooth="yes"/>
      <point x="274" y="608" type="line" smooth="yes"/>
      <point x="268" y="644"/>
      <point x="264" y="665"/>
      <point x="264" y="679" type="curve" smooth="yes"/>
      <point x="264" y="694"/>
      <point x="270" y="704"/>
      <point x="293" y="704" type="curve" smooth="yes"/>
      <point x="328" y="704" type="line"/>
      <point x="330" y="714" type="line"/>
      <point x="107" y="714" type="line"/>
      <point x="105" y="704" type="line"/>
      <point x="113" y="704" type="line" smooth="yes"/>
      <point x="136" y="704"/>
      <point x="140" y="694"/>
      <point x="146" y="654" type="curve" smooth="yes"/>
      <point x="202" y="322" type="line"/>
      <point x="85" y="322" type="line"/>
      <point x="83" y="313" type="line"/>
      <point x="201" y="313" type="line"/>
      <point x="180" y="203" type="line"/>
      <point x="60" y="203" type="line"/>
      <point x="58" y="193" type="line"/>
      <point x="178" y="193" type="line"/>
      <point x="154" y="68" type="line" smooth="yes"/>
      <point x="146" y="22"/>
      <point x="119" y="10"/>
      <point x="85" y="10" type="curve" smooth="yes"/>
      <point x="49" y="10" type="line"/>
    </contour>
  </outline>
</glyph>
<glyph name="section" format="2">
  <advance width="440"/>
  <unicode hex="00A7"/>
  <outline>
    <contour>
      <point x="175" y="-115" type="curve" smooth="yes"/>
      <point x="281" y="-115"/>
      <point x="349" y="-29"/>
      <point x="349" y="81" type="curve" smooth="yes"/>
      <point x="349" y="133"/>
      <point x="336" y="168"/>
      <point x="317" y="190" type="curve"/>
      <point x="367" y="218"/>
      <point x="412" y="259"/>
      <point x="412" y="319" type="curve" smooth="yes"/>
      <point x="412" y="382"/>
      <point x="382" y="420"/>
      <point x="299" y="476" type="curve" smooth="yes"/>
      <point x="232" y="521"/>
      <point x="201" y="543"/>
      <point x="201" y="630" type="curve" smooth="yes"/>
      <point x="201" y="706"/>
      <point x="240" y="749"/>
      <point x="286" y="749" type="curve" smooth="yes"/>
      <point x="343" y="749"/>
      <point x="362" y="701"/>
      <point x="362" y="577" type="curve"/>
      <point x="407" y="577"/>
      <point x="441" y="593"/>
      <point x="441" y="646" type="curve" smooth="yes"/>
      <point x="441" y="706"/>
      <point x="401" y="759"/>
      <point x="285" y="759" type="curve" smooth="yes"/>
      <point x="197" y="759"/>
      <point x="117" y="694"/>
      <point x="117" y="586" type="curve" smooth="yes"/>
      <point x="117" y="536"/>
      <point x="133" y="502"/>
      <point x="144" y="481" type="curve"/>
      <point x="96" y="459"/>
      <point x="56" y="422"/>
      <point x="56" y="350" type="curve" smooth="yes"/>
      <point x="56" y="288"/>
      <point x="84" y="239"/>
      <point x="168" y="185" type="curve" smooth="yes"/>
      <point x="244" y="133"/>
      <point x="274" y="108"/>
      <point x="274" y="30" type="curve" smooth="yes"/>
      <point x="274" y="-61"/>
      <point x="232" y="-105"/>
      <point x="174" y="-105" type="curve" smooth="yes"/>
      <point x="109" y="-105"/>
      <point x="84" y="-53"/>
      <point x="84" y="96" type="curve"/>
      <point x="51" y="95"/>
      <point x="3" y="80"/>
      <point x="3" y="13" type="curve" smooth="yes"/>
      <point x="3" y="-55"/>
      <point x="63" y="-115"/>
    </contour>
    <contour>
      <point x="312" y="199" type="curve"/>
      <point x="293" y="217"/>
      <point x="268" y="236"/>
      <point x="217" y="267" type="curve" smooth="yes"/>
      <point x="132" y="318"/>
      <point x="112" y="347"/>
      <point x="112" y="394" type="curve" smooth="yes"/>
      <point x="112" y="430"/>
      <point x="126" y="453"/>
      <point x="150" y="473" type="curve"/>
      <point x="179" y="442"/>
      <point x="196" y="426"/>
      <point x="252" y="393" type="curve" smooth="yes"/>
      <point x="330" y="343"/>
      <point x="347" y="315"/>
      <point x="347" y="280" type="curve" smooth="yes"/>
      <point x="347" y="249"/>
      <point x="335" y="220"/>
    </contour>
  </outline>
</glyph>
<glyph name="dieresis" format="2">
  <advance width="467"/>
  <unicode hex="00A8"/>
  <outline>
    <contour>
      <point x="398" y="619" type="curve" smooth="yes"/>
      <point x="425" y="619"/>
      <point x="452" y="643"/>
      <point x="452" y="695" type="curve" smooth="yes"/>
      <point x="452" y="730"/>
      <point x="435" y="744"/>
      <point x="409" y="744" type="curve" smooth="yes"/>
      <point x="375" y="744"/>
      <point x="354" y="710"/>
      <point x="354" y="669" type="curve" smooth="yes"/>
      <point x="354" y="634"/>
      <point x="371" y="619"/>
    </contour>
    <contour>
      <point x="234" y="619" type="curve" smooth="yes"/>
      <point x="261" y="619"/>
      <point x="288" y="643"/>
      <point x="288" y="696" type="curve" smooth="yes"/>
      <point x="288" y="730"/>
      <point x="271" y="744"/>
      <point x="245" y="744" type="curve" smooth="yes"/>
      <point x="210" y="744"/>
      <point x="190" y="710"/>
      <point x="190" y="669" type="curve" smooth="yes"/>
      <point x="190" y="634"/>
      <point x="207" y="619"/>
    </contour>
  </outline>
</glyph>
<glyph name="copyright" format="2">
  <advance width="689"/>
  <unicode hex="00A9"/>
  <outline>
    <contour>
      <point x="365" y="-10" type="curve" smooth="yes"/>
      <point x="549" y="-10"/>
      <point x="660" y="135"/>
      <point x="660" y="358" type="curve" smooth="yes"/>
      <point x="660" y="580"/>
      <point x="549" y="725"/>
      <point x="366" y="725" type="curve" smooth="yes"/>
      <point x="181" y="725"/>
      <point x="69" y="580"/>
      <point x="69" y="358" type="curve" smooth="yes"/>
      <point x="69" y="137"/>
      <point x="180" y="-10"/>
    </contour>
    <contour>
      <point x="372" y="106" type="curve" smooth="yes"/>
      <point x="456" y="106"/>
      <point x="499" y="161"/>
      <point x="499" y="201" type="curve" smooth="yes"/>
      <point x="499" y="219"/>
      <point x="490" y="230"/>
      <point x="473" y="235" type="curve"/>
      <point x="461" y="153"/>
      <point x="432" y="116"/>
      <point x="376" y="116" type="curve" smooth="yes"/>
      <point x="293" y="116"/>
      <point x="253" y="202"/>
      <point x="253" y="361" type="curve" smooth="yes"/>
      <point x="253" y="518"/>
      <point x="294" y="598"/>
      <point x="373" y="598" type="curve" smooth="yes"/>
      <point x="437" y="598"/>
      <point x="465" y="546"/>
      <point x="465" y="458" type="curve"/>
      <point x="487" y="458"/>
      <point x="505" y="476"/>
      <point x="505" y="508" type="curve" smooth="yes"/>
      <point x="505" y="556"/>
      <point x="464" y="608"/>
      <point x="373" y="608" type="curve" smooth="yes"/>
      <point x="253" y="608"/>
      <point x="198" y="516"/>
      <point x="198" y="363" type="curve" smooth="yes"/>
      <point x="198" y="193"/>
      <point x="265" y="106"/>
    </contour>
    <contour>
      <point x="368" y="0" type="curve" smooth="yes"/>
      <point x="190" y="0"/>
      <point x="80" y="140"/>
      <point x="80" y="359" type="curve" smooth="yes"/>
      <point x="80" y="576"/>
      <point x="188" y="715"/>
      <point x="366" y="715" type="curve" smooth="yes"/>
      <point x="542" y="715"/>
      <point x="647" y="576"/>
      <point x="647" y="358" type="curve" smooth="yes"/>
      <point x="647" y="140"/>
      <point x="542" y="0"/>
    </contour>
  </outline>
</glyph>
<glyph name="ordfeminine" format="2">
  <advance width="374"/>
  <unicode hex="00AA"/>
  <anchor x="202" y="381" name="bottom"/>
  <anchor x="274" y="722" name="top"/>
  <outline>
    <contour>
      <point x="156" y="383" type="curve" smooth="yes"/>
      <point x="207" y="383"/>
      <point x="246" y="431"/>
      <point x="267" y="497" type="curve"/>
      <point x="269" y="497" type="line"/>
      <point x="268" y="484"/>
      <point x="266" y="454"/>
      <point x="266" y="443" type="curve" smooth="yes"/>
      <point x="266" y="405"/>
      <point x="288" y="383"/>
      <point x="325" y="383" type="curve" smooth="yes"/>
      <point x="367" y="383"/>
      <point x="393" y="406"/>
      <point x="407" y="424" type="curve"/>
      <point x="402" y="432" type="line"/>
      <point x="390" y="419"/>
      <point x="377" y="404"/>
      <point x="358" y="404" type="curve" smooth="yes"/>
      <point x="345" y="404"/>
      <point x="338" y="412"/>
      <point x="338" y="435" type="curve" smooth="yes"/>
      <point x="338" y="448"/>
      <point x="340" y="462"/>
      <point x="348" y="504" type="curve" smooth="yes"/>
      <point x="392" y="712" type="line"/>
      <point x="381" y="712" type="line"/>
      <point x="320" y="698" type="line"/>
      <point x="304" y="713"/>
      <point x="287" y="719"/>
      <point x="268" y="719" type="curve" smooth="yes"/>
      <point x="138" y="719"/>
      <point x="77" y="589"/>
      <point x="77" y="493" type="curve" smooth="yes"/>
      <point x="77" y="431"/>
      <point x="101" y="383"/>
    </contour>
    <contour>
      <point x="197" y="414" type="curve" smooth="yes"/>
      <point x="182" y="414"/>
      <point x="169" y="428"/>
      <point x="169" y="487" type="curve" smooth="yes"/>
      <point x="169" y="589"/>
      <point x="210" y="709"/>
      <point x="272" y="709" type="curve" smooth="yes"/>
      <point x="283" y="709"/>
      <point x="299" y="705"/>
      <point x="308" y="693" type="curve"/>
      <point x="266" y="520" type="line" smooth="yes"/>
      <point x="254" y="477"/>
      <point x="225" y="414"/>
    </contour>
  </outline>
</glyph>
<glyph name="registered" format="2">
  <advance width="689"/>
  <unicode hex="00AE"/>
  <outline>
    <contour>
      <point x="367" y="-10" type="curve" smooth="yes"/>
      <point x="527" y="-10"/>
      <point x="644" y="144"/>
      <point x="644" y="357" type="curve" smooth="yes"/>
      <point x="644" y="571"/>
      <point x="527" y="725"/>
      <point x="367" y="725" type="curve" smooth="yes"/>
      <point x="202" y="725"/>
      <point x="83" y="570"/>
      <point x="83" y="358" type="curve" smooth="yes"/>
      <point x="83" y="144"/>
      <point x="202" y="-10"/>
    </contour>
    <contour>
      <point x="369" y="0" type="curve" smooth="yes"/>
      <point x="215" y="0"/>
      <point x="94" y="146"/>
      <point x="94" y="358" type="curve" smooth="yes"/>
      <point x="94" y="565"/>
      <point x="209" y="715"/>
      <point x="367" y="715" type="curve" smooth="yes"/>
      <point x="520" y="715"/>
      <point x="633" y="564"/>
      <point x="633" y="358" type="curve" smooth="yes"/>
      <point x="633" y="151"/>
      <point x="520" y="0"/>
    </contour>
    <contour>
      <point x="212" y="141" type="line"/>
      <point x="363" y="141" type="line"/>
      <point x="363" y="151" type="line"/>
      <point x="351" y="151" type="line" smooth="yes"/>
      <point x="331" y="151"/>
      <point x="313" y="155"/>
      <point x="313" y="183" type="curve" smooth="yes"/>
      <point x="313" y="340" type="line"/>
      <point x="357" y="340" type="line"/>
      <point x="454" y="141" type="line"/>
      <point x="533" y="141" type="line"/>
      <point x="533" y="151" type="line"/>
      <point x="520" y="151"/>
      <point x="511" y="153"/>
      <point x="506" y="165" type="curve" smooth="yes"/>
      <point x="416" y="350" type="line"/>
      <point x="456" y="365"/>
      <point x="491" y="401"/>
      <point x="491" y="465" type="curve" smooth="yes"/>
      <point x="491" y="531"/>
      <point x="447" y="578"/>
      <point x="353" y="578" type="curve" smooth="yes"/>
      <point x="212" y="578" type="line"/>
      <point x="212" y="568" type="line"/>
      <point x="223" y="568" type="line" smooth="yes"/>
      <point x="241" y="568"/>
      <point x="258" y="564"/>
      <point x="258" y="536" type="curve" smooth="yes"/>
      <point x="258" y="183" type="line" smooth="yes"/>
      <point x="258" y="155"/>
      <point x="241" y="151"/>
      <point x="223" y="151" type="curve" smooth="yes"/>
      <point x="212" y="151" type="line"/>
    </contour>
    <contour>
      <point x="313" y="350" type="line"/>
      <point x="313" y="568" type="line"/>
      <point x="352" y="568" type="line" smooth="yes"/>
      <point x="406" y="568"/>
      <point x="434" y="527"/>
      <point x="434" y="467" type="curve" smooth="yes"/>
      <point x="434" y="396"/>
      <point x="409" y="350"/>
      <point x="351" y="350" type="curve" smooth="yes"/>
    </contour>
  </outline>
</glyph>
<glyph name="overscore" format="2">
  <advance width="371"/>
  <unicode hex="00AF"/>
  <outline>
    <contour>
      <point x="107" y="773" type="line"/>
      <point x="479" y="773" type="line"/>
      <point x="483" y="793" type="line"/>
      <point x="112" y="793" type="line"/>
    </contour>
  </outline>
</glyph>
<glyph name="twosuperior" format="2">
  <advance width="329"/>
  <unicode hex="00B2"/>
  <outline>
    <contour>
      <point x="65" y="386" type="line"/>
      <point x="320" y="386" type="line"/>
      <point x="349" y="526" type="line"/>
      <point x="339" y="526" type="line"/>
      <point x="333" y="500" type="line" smooth="yes"/>
      <point x="325" y="470"/>
      <point x="313" y="463"/>
      <point x="283" y="463" type="curve" smooth="yes"/>
      <point x="106" y="463" type="line"/>
      <point x="235" y="555" type="line" smooth="yes"/>
      <point x="346" y="638"/>
      <point x="379" y="669"/>
      <point x="379" y="733" type="curve" smooth="yes"/>
      <point x="379" y="788"/>
      <point x="337" y="824"/>
      <point x="271" y="824" type="curve" smooth="yes"/>
      <point x="189" y="824"/>
      <point x="141" y="777"/>
      <point x="141" y="722" type="curve" smooth="yes"/>
      <point x="141" y="694"/>
      <point x="165" y="675"/>
      <point x="202" y="675" type="curve"/>
      <point x="207" y="779"/>
      <point x="230" y="814"/>
      <point x="263" y="814" type="curve" smooth="yes"/>
      <point x="290" y="814"/>
      <point x="300" y="789"/>
      <point x="300" y="746" type="curve" smooth="yes"/>
      <point x="300" y="668"/>
      <point x="267" y="613"/>
      <point x="192" y="548" type="curve" smooth="yes"/>
      <point x="76" y="449" type="line"/>
    </contour>
  </outline>
</glyph>
<glyph name="threesuperior" format="2">
  <advance width="329"/>
  <unicode hex="00B3"/>
  <outline>
    <contour>
      <point x="190" y="380" type="curve" smooth="yes"/>
      <point x="286" y="380"/>
      <point x="357" y="431"/>
      <point x="357" y="516" type="curve" smooth="yes"/>
      <point x="357" y="577"/>
      <point x="321" y="603"/>
      <point x="252" y="608" type="curve"/>
      <point x="252" y="613" type="line"/>
      <point x="332" y="628"/>
      <point x="384" y="661"/>
      <point x="384" y="731" type="curve" smooth="yes"/>
      <point x="384" y="790"/>
      <point x="348" y="824"/>
      <point x="274" y="824" type="curve" smooth="yes"/>
      <point x="190" y="824"/>
      <point x="145" y="778"/>
      <point x="145" y="735" type="curve" smooth="yes"/>
      <point x="145" y="704"/>
      <point x="170" y="691"/>
      <point x="208" y="691" type="curve"/>
      <point x="222" y="784"/>
      <point x="237" y="814"/>
      <point x="266" y="814" type="curve" smooth="yes"/>
      <point x="294" y="814"/>
      <point x="303" y="786"/>
      <point x="303" y="751" type="curve" smooth="yes"/>
      <point x="303" y="655"/>
      <point x="259" y="614"/>
      <point x="204" y="614" type="curve" smooth="yes"/>
      <point x="179" y="614" type="line"/>
      <point x="178" y="604" type="line"/>
      <point x="200" y="604" type="line" smooth="yes"/>
      <point x="256" y="604"/>
      <point x="278" y="569"/>
      <point x="278" y="506" type="curve" smooth="yes"/>
      <point x="278" y="422"/>
      <point x="239" y="390"/>
      <point x="195" y="390" type="curve" smooth="yes"/>
      <point x="142" y="390"/>
      <point x="129" y="440"/>
      <point x="132" y="519" type="curve"/>
      <point x="95" y="519"/>
      <point x="69" y="496"/>
      <point x="69" y="460" type="curve" smooth="yes"/>
      <point x="69" y="413"/>
      <point x="112" y="380"/>
    </contour>
  </outline>
</glyph>
<glyph name="acute" format="2">
  <advance width="286"/>
  <unicode hex="00B4"/>
  <outline>
    <contour>
      <point x="114" y="614" type="curve"/>
      <point x="112" y="606" type="line"/>
      <point x="122" y="606" type="line"/>
      <point x="197" y="641"/>
      <point x="320" y="723"/>
      <point x="350" y="756" type="curve"/>
      <point x="352" y="766" type="line"/>
      <point x="223" y="766" type="line"/>
      <point x="195" y="717"/>
      <point x="151" y="652"/>
    </contour>
  </outline>
</glyph>
<glyph name="paragraph" format="2">
  <advance width="589"/>
  <unicode hex="00B6"/>
  <outline>
    <contour>
      <point x="194" y="-111" type="line"/>
      <point x="351" y="-111" type="line"/>
      <point x="351" y="750" type="line"/>
      <point x="428" y="750" type="line"/>
      <point x="428" y="-111" type="line"/>
      <point x="585" y="-111" type="line"/>
      <point x="585" y="-101" type="line"/>
      <point x="572" y="-101" type="line" smooth="yes"/>
      <point x="527" y="-101"/>
      <point x="495" y="-95"/>
      <point x="495" y="-35" type="curve" smooth="yes"/>
      <point x="495" y="680" type="line" smooth="yes"/>
      <point x="495" y="741"/>
      <point x="525" y="750"/>
      <point x="572" y="750" type="curve" smooth="yes"/>
      <point x="585" y="750" type="line"/>
      <point x="585" y="760" type="line"/>
      <point x="226" y="760" type="line" smooth="yes"/>
      <point x="113" y="760"/>
      <point x="73" y="681"/>
      <point x="73" y="574" type="curve" smooth="yes"/>
      <point x="73" y="470"/>
      <point x="107" y="386"/>
      <point x="224" y="386" type="curve" smooth="yes"/>
      <point x="284" y="386" type="line"/>
      <point x="284" y="-37" type="line" smooth="yes"/>
      <point x="284" y="-95"/>
      <point x="252" y="-101"/>
      <point x="208" y="-101" type="curve" smooth="yes"/>
      <point x="194" y="-101" type="line"/>
    </contour>
  </outline>
</glyph>
<glyph name="periodcentered" format="2">
  <advance width="248"/>
  <unicode hex="00B7"/>
  <outline>
    <contour>
      <point x="138" y="282" type="curve" smooth="yes"/>
      <point x="174" y="282"/>
      <point x="212" y="307"/>
      <point x="212" y="368" type="curve" smooth="yes"/>
      <point x="212" y="408"/>
      <point x="187" y="429"/>
      <point x="148" y="429" type="curve" smooth="yes"/>
      <point x="103" y="429"/>
      <point x="74" y="393"/>
      <point x="74" y="343" type="curve" smooth="yes"/>
      <point x="74" y="301"/>
      <point x="100" y="282"/>
    </contour>
  </outline>
</glyph>
<glyph name="cedilla" format="2">
  <advance width="270"/>
  <unicode hex="00B8"/>
  <outline>
    <contour>
      <point x="90" y="-236" type="curve" smooth="yes"/>
      <point x="161" y="-236"/>
      <point x="219" y="-199"/>
      <point x="219" y="-125" type="curve" smooth="yes"/>
      <point x="219" y="-76"/>
      <point x="197" y="-39"/>
      <point x="112" y="-38" type="curve"/>
      <point x="132" y="9" type="line"/>
      <point x="122" y="9" type="line"/>
      <point x="100" y="-46" type="line"/>
      <point x="132" y="-50"/>
      <point x="140" y="-82"/>
      <point x="140" y="-116" type="curve" smooth="yes"/>
      <point x="140" y="-196"/>
      <point x="111" y="-221"/>
      <point x="67" y="-221" type="curve" smooth="yes"/>
      <point x="53" y="-221"/>
      <point x="33" y="-219"/>
      <point x="14" y="-213" type="curve"/>
      <point x="12" y="-223" type="line"/>
      <point x="34" y="-231"/>
      <point x="55" y="-236"/>
    </contour>
  </outline>
</glyph>
<glyph name="onesuperior" format="2">
  <advance width="329"/>
  <unicode hex="00B9"/>
  <outline>
    <contour>
      <point x="75" y="387" type="line"/>
      <point x="304" y="387" type="line"/>
      <point x="306" y="397" type="line"/>
      <point x="278" y="397" type="line" smooth="yes"/>
      <point x="256" y="397"/>
      <point x="239" y="400"/>
      <point x="239" y="421" type="curve" smooth="yes"/>
      <point x="239" y="427"/>
      <point x="241" y="434"/>
      <point x="243" y="443" type="curve" smooth="yes"/>
      <point x="321" y="819" type="line"/>
      <point x="294" y="819" type="line"/>
      <point x="253" y="776"/>
      <point x="188" y="739"/>
      <point x="135" y="739" type="curve"/>
      <point x="135" y="716"/>
      <point x="144" y="698"/>
      <point x="165" y="698" type="curve" smooth="yes"/>
      <point x="189" y="698"/>
      <point x="213" y="724"/>
      <point x="236" y="765" type="curve"/>
      <point x="238" y="765" type="line"/>
      <point x="168" y="433" type="line" smooth="yes"/>
      <point x="161" y="401"/>
      <point x="142" y="397"/>
      <point x="117" y="397" type="curve" smooth="yes"/>
      <point x="77" y="397" type="line"/>
    </contour>
  </outline>
</glyph>
<glyph name="ordmasculine" format="2">
  <advance width="358"/>
  <unicode hex="00BA"/>
  <anchor x="202" y="388" name="bottom"/>
  <anchor x="278" y="724" name="top"/>
  <outline>
    <contour>
      <point x="206" y="383" type="curve" smooth="yes"/>
      <point x="339" y="383"/>
      <point x="399" y="515"/>
      <point x="399" y="599" type="curve" smooth="yes"/>
      <point x="399" y="683"/>
      <point x="342" y="720"/>
      <point x="272" y="720" type="curve" smooth="yes"/>
      <point x="145" y="720"/>
      <point x="79" y="597"/>
      <point x="79" y="507" type="curve" smooth="yes"/>
      <point x="79" y="426"/>
      <point x="129" y="383"/>
    </contour>
    <contour>
      <point x="218" y="393" type="curve" smooth="yes"/>
      <point x="186" y="393"/>
      <point x="170" y="421"/>
      <point x="170" y="488" type="curve" smooth="yes"/>
      <point x="170" y="625"/>
      <point x="216" y="710"/>
      <point x="267" y="710" type="curve" smooth="yes"/>
      <point x="301" y="710"/>
      <point x="312" y="673"/>
      <point x="312" y="615" type="curve" smooth="yes"/>
      <point x="312" y="496"/>
      <point x="276" y="393"/>
    </contour>
  </outline>
</glyph>
<glyph name="Aring" format="2">
  <advance width="615"/>
  <unicode hex="00C5"/>
  <anchor x="250" y="0" name="bottom"/>
  <anchor x="423" y="864" name="top"/>
  <anchor x="690" y="714" name="topright"/>
  <outline>
    <contour>
      <point x="-42" y="0" type="line" smooth="yes"/>
      <point x="166" y="0" type="line"/>
      <point x="168" y="10" type="line"/>
      <point x="151" y="10" type="line" smooth="yes"/>
      <point x="84" y="10"/>
      <point x="57" y="18"/>
      <point x="57" y="41" type="curve" smooth="yes"/>
      <point x="57" y="56"/>
      <point x="67" y="77"/>
      <point x="79" y="102" type="curve" smooth="yes"/>
      <point x="253" y="462" type="line" smooth="yes"/>
      <point x="299" y="557"/>
      <point x="335" y="627"/>
      <point x="358" y="675" type="curve"/>
      <point x="358" y="627"/>
      <point x="362" y="528"/>
      <point x="364" y="469" type="curve" smooth="yes"/>
      <point x="382" y="92" type="line" smooth="yes"/>
      <point x="382" y="80"/>
      <point x="383" y="67"/>
      <point x="383" y="58" type="curve" smooth="yes"/>
      <point x="383" y="21"/>
      <point x="355" y="10"/>
      <point x="318" y="10" type="curve" smooth="yes"/>
      <point x="297" y="10" type="line"/>
      <point x="295" y="0" type="line"/>
      <point x="568" y="0" type="line"/>
      <point x="571" y="10" type="line"/>
      <point x="559" y="10" type="line" smooth="yes"/>
      <point x="526" y="10"/>
      <point x="523" y="33"/>
      <point x="518" y="101" type="curve" smooth="yes"/>
      <point x="477" y="709" type="line"/>
      <point x="442" y="696" type="line"/>
      <point x="405" y="696" type="line"/>
      <point x="366" y="714" type="line"/>
      <point x="62" y="93" type="line" smooth="yes"/>
      <point x="28" y="22"/>
      <point x="10" y="10"/>
      <point x="-23" y="10" type="curve" smooth="yes"/>
      <point x="-39" y="10" type="line"/>
    </contour>
    <contour>
      <point x="148" y="260" type="line" smooth="yes"/>
      <point x="450" y="260" type="line"/>
      <point x="449" y="270" type="line"/>
      <point x="153" y="270" type="line"/>
    </contour>
    <component base="ring" xOffset="197" yOffset="89"/>
  </outline>
</glyph>
<glyph name="Eth" format="2">
  <advance width="627"/>
  <unicode hex="00D0"/>
  <anchor x="257" y="0" name="bottom"/>
  <anchor x="409" y="714" name="top"/>
  <anchor x="339" y="357" name="center"/>
  <anchor x="689" y="714" name="topright"/>
  <outline>
    <contour>
      <point x="70" y="375" type="line"/>
      <point x="377" y="375" type="line"/>
      <point x="379" y="385" type="line"/>
      <point x="72" y="385" type="line"/>
    </contour>
    <component base="D"/>
  </outline>
</glyph>
<glyph name="Oslash" format="2">
  <advance width="649"/>
  <unicode hex="00D8"/>
  <anchor x="267" y="0" name="bottom"/>
  <anchor x="419" y="714" name="top"/>
  <anchor x="351" y="357" name="center"/>
  <anchor x="712" y="714" name="topright"/>
  <outline>
    <contour>
      <point x="88" y="-50" type="line"/>
      <point x="100" y="-50" type="line"/>
      <point x="619" y="765" type="line"/>
      <point x="607" y="765" type="line"/>
    </contour>
    <component base="O"/>
  </outline>
</glyph>
<glyph name="Thorn" format="2">
  <advance width="533"/>
  <unicode hex="00DE"/>
  <anchor x="203" y="0" name="bottom"/>
  <anchor x="355" y="714" name="top"/>
  <outline>
    <contour>
      <point x="-22" y="0" type="line"/>
      <point x="264" y="0" type="line"/>
      <point x="266" y="10" type="line"/>
      <point x="252" y="10" type="line" smooth="yes"/>
      <point x="219" y="10"/>
      <point x="198" y="15"/>
      <point x="198" y="39" type="curve" smooth="yes"/>
      <point x="198" y="47"/>
      <point x="199" y="56"/>
      <point x="201" y="65" type="curve" smooth="yes"/>
      <point x="222" y="162" type="line"/>
      <point x="271" y="162" type="line" smooth="yes"/>
      <point x="491" y="162"/>
      <point x="539" y="297"/>
      <point x="539" y="401" type="curve" smooth="yes"/>
      <point x="539" y="522"/>
      <point x="459" y="569"/>
      <point x="334" y="569" type="curve" smooth="yes"/>
      <point x="308" y="569" type="line"/>
      <point x="326" y="651" type="line" smooth="yes"/>
      <point x="336" y="695"/>
      <point x="363" y="704"/>
      <point x="401" y="704" type="curve" smooth="yes"/>
      <point x="410" y="704" type="line"/>
      <point x="412" y="714" type="line"/>
      <point x="128" y="714" type="line"/>
      <point x="126" y="704" type="line"/>
      <point x="135" y="704" type="line" smooth="yes"/>
      <point x="171" y="704"/>
      <point x="193" y="700"/>
      <point x="193" y="674" type="curve" smooth="yes"/>
      <point x="193" y="663"/>
      <point x="190" y="649"/>
      <point x="185" y="630" type="curve" smooth="yes"/>
      <point x="66" y="63" type="line" smooth="yes"/>
      <point x="57" y="19"/>
      <point x="27" y="10"/>
      <point x="-11" y="10" type="curve" smooth="yes"/>
      <point x="-20" y="10" type="line"/>
    </contour>
    <contour>
      <point x="224" y="172" type="line"/>
      <point x="306" y="559" type="line"/>
      <point x="321" y="559" type="line" smooth="yes"/>
      <point x="378" y="559"/>
      <point x="406" y="519"/>
      <point x="406" y="435" type="curve" smooth="yes"/>
      <point x="406" y="310"/>
      <point x="356" y="172"/>
      <point x="245" y="172" type="curve" smooth="yes"/>
    </contour>
  </outline>
</glyph>
<glyph name="germandbls" format="2">
  <advance width="568"/>
  <unicode hex="00DF"/>
  <anchor x="346" y="-10" name="bottom"/>
  <anchor x="393" y="769" name="top"/>
  <outline>
    <contour>
      <point x="-80" y="-240" type="curve" smooth="yes"/>
      <point x="-2" y="-240"/>
      <point x="114" y="-190"/>
      <point x="152" y="-8" type="curve" smooth="yes"/>
      <point x="275" y="578" type="line" smooth="yes"/>
      <point x="303" y="710"/>
      <point x="318" y="761"/>
      <point x="374" y="761" type="curve" smooth="yes"/>
      <point x="416" y="761"/>
      <point x="438" y="734"/>
      <point x="438" y="640" type="curve" smooth="yes"/>
      <point x="438" y="608"/>
      <point x="435" y="585"/>
      <point x="429" y="545" type="curve"/>
      <point x="344" y="545"/>
      <point x="278" y="492"/>
      <point x="278" y="392" type="curve" smooth="yes"/>
      <point x="278" y="319"/>
      <point x="312" y="285"/>
      <point x="357" y="245" type="curve" smooth="yes"/>
      <point x="399" y="206"/>
      <point x="435" y="177"/>
      <point x="435" y="99" type="curve" smooth="yes"/>
      <point x="435" y="31"/>
      <point x="407" y="0"/>
      <point x="367" y="0" type="curve" smooth="yes"/>
      <point x="320" y="0"/>
      <point x="298" y="40"/>
      <point x="298" y="187" type="curve"/>
      <point x="247" y="187"/>
      <point x="214" y="157"/>
      <point x="214" y="103" type="curve" smooth="yes"/>
      <point x="214" y="36"/>
      <point x="263" y="-10"/>
      <point x="349" y="-10" type="curve" smooth="yes"/>
      <point x="458" y="-10"/>
      <point x="537" y="62"/>
      <point x="537" y="167" type="curve" smooth="yes"/>
      <point x="537" y="240"/>
      <point x="500" y="278"/>
      <point x="461" y="312" type="curve" smooth="yes"/>
      <point x="412" y="355"/>
      <point x="387" y="379"/>
      <point x="387" y="430" type="curve" smooth="yes"/>
      <point x="387" y="497"/>
      <point x="430" y="535"/>
      <point x="512" y="535" type="curve" smooth="yes"/>
      <point x="551" y="535" type="line"/>
      <point x="557" y="564"/>
      <point x="561" y="590"/>
      <point x="561" y="618" type="curve" smooth="yes"/>
      <point x="561" y="717"/>
      <point x="497" y="771"/>
      <point x="377" y="771" type="curve" smooth="yes"/>
      <point x="265" y="771"/>
      <point x="175" y="725"/>
      <point x="141" y="572" type="curve" smooth="yes"/>
      <point x="134" y="536" type="line"/>
      <point x="67" y="536" type="line"/>
      <point x="65" y="526" type="line"/>
      <point x="131" y="526" type="line"/>
      <point x="11" y="-52" type="line" smooth="yes"/>
      <point x="-18" y="-190"/>
      <point x="-38" y="-225"/>
      <point x="-93" y="-225" type="curve" smooth="yes"/>
      <point x="-106" y="-225"/>
      <point x="-121" y="-223"/>
      <point x="-130" y="-220" type="curve"/>
      <point x="-134" y="-230" type="line"/>
      <point x="-122" y="-235"/>
      <point x="-105" y="-240"/>
    </contour>
  </outline>
</glyph>
<glyph name="ae" format="2">
  <advance width="721"/>
  <unicode hex="00E6"/>
  <anchor x="309" y="0" name="bottom"/>
  <anchor x="445" y="536" name="top"/>
  <anchor x="746" y="536" name="topright"/>
  <outline>
    <contour>
      <point x="148" y="-10" type="curve" smooth="yes"/>
      <point x="224" y="-10"/>
      <point x="267" y="47"/>
      <point x="311" y="140" type="curve"/>
      <point x="314" y="140" type="line"/>
      <point x="332" y="36"/>
      <point x="403" y="-10"/>
      <point x="499" y="-10" type="curve" smooth="yes"/>
      <point x="599" y="-10"/>
      <point x="652" y="53"/>
      <point x="652" y="106" type="curve" smooth="yes"/>
      <point x="652" y="133"/>
      <point x="644" y="143"/>
      <point x="635" y="147" type="curve"/>
      <point x="612" y="60"/>
      <point x="577" y="2"/>
      <point x="520" y="2" type="curve" smooth="yes"/>
      <point x="467" y="2"/>
      <point x="437" y="51"/>
      <point x="437" y="183" type="curve" smooth="yes"/>
      <point x="437" y="208"/>
      <point x="438" y="232"/>
      <point x="440" y="248" type="curve"/>
      <point x="471" y="248" type="line" smooth="yes"/>
      <point x="620" y="248"/>
      <point x="723" y="320"/>
      <point x="723" y="430" type="curve" smooth="yes"/>
      <point x="723" y="503"/>
      <point x="677" y="546"/>
      <point x="589" y="546" type="curve" smooth="yes"/>
      <point x="522" y="546"/>
      <point x="468" y="525"/>
      <point x="429" y="489" type="curve"/>
      <point x="394" y="529"/>
      <point x="355" y="546"/>
      <point x="291" y="546" type="curve" smooth="yes"/>
      <point x="104" y="546"/>
      <point x="28" y="322"/>
      <point x="28" y="176" type="curve" smooth="yes"/>
      <point x="28" y="60"/>
      <point x="62" y="-10"/>
    </contour>
    <contour>
      <point x="204" y="33" type="curve" smooth="yes"/>
      <point x="171" y="33"/>
      <point x="154" y="74"/>
      <point x="154" y="165" type="curve" smooth="yes"/>
      <point x="154" y="352"/>
      <point x="225" y="528"/>
      <point x="330" y="528" type="curve" smooth="yes"/>
      <point x="363" y="528"/>
      <point x="397" y="513"/>
      <point x="420" y="482" type="curve"/>
      <point x="350" y="426"/>
      <point x="309" y="303"/>
      <point x="309" y="201" type="curve" smooth="yes"/>
      <point x="309" y="184"/>
      <point x="309" y="173"/>
      <point x="310" y="159" type="curve"/>
      <point x="275" y="82"/>
      <point x="241" y="33"/>
    </contour>
    <contour>
      <point x="440" y="258" type="line"/>
      <point x="460" y="428"/>
      <point x="512" y="533"/>
      <point x="564" y="533" type="curve" smooth="yes"/>
      <point x="592" y="533"/>
      <point x="603" y="510"/>
      <point x="603" y="466" type="curve" smooth="yes"/>
      <point x="603" y="340"/>
      <point x="541" y="258"/>
      <point x="453" y="258" type="curve" smooth="yes"/>
    </contour>
  </outline>
</glyph>
<glyph name="eth" format="2">
  <advance width="503"/>
  <unicode hex="00F0"/>
  <anchor x="195" y="0" name="bottom"/>
  <anchor x="358" y="767" name="top"/>
  <outline>
    <contour>
      <point x="224" y="-10" type="curve" smooth="yes"/>
      <point x="399" y="-10"/>
      <point x="485" y="173"/>
      <point x="485" y="354" type="curve" smooth="yes"/>
      <point x="485" y="567"/>
      <point x="358" y="721"/>
      <point x="199" y="767" type="curve"/>
      <point x="197" y="756" type="line"/>
      <point x="297" y="720"/>
      <point x="359" y="575"/>
      <point x="359" y="426" type="curve"/>
      <point x="341" y="492"/>
      <point x="309" y="512"/>
      <point x="265" y="512" type="curve" smooth="yes"/>
      <point x="109" y="512"/>
      <point x="37" y="341"/>
      <point x="37" y="202" type="curve" smooth="yes"/>
      <point x="37" y="57"/>
      <point x="113" y="-10"/>
    </contour>
    <contour>
      <point x="235" y="0" type="curve" smooth="yes"/>
      <point x="185" y="0"/>
      <point x="163" y="51"/>
      <point x="163" y="189" type="curve" smooth="yes"/>
      <point x="163" y="358"/>
      <point x="197" y="498"/>
      <point x="275" y="498" type="curve" smooth="yes"/>
      <point x="332" y="498"/>
      <point x="357" y="439"/>
      <point x="357" y="349" type="curve" smooth="yes"/>
      <point x="357" y="116"/>
      <point x="310" y="0"/>
    </contour>
    <contour>
      <point x="191" y="578" type="line"/>
      <point x="462" y="727" type="line"/>
      <point x="466" y="742" type="line"/>
      <point x="194" y="592" type="line"/>
    </contour>
  </outline>
</glyph>
<glyph name="divide" format="2">
  <advance width="425"/>
  <unicode hex="00F7"/>
  <outline>
    <contour>
      <point x="69" y="348" type="line"/>
      <point x="394" y="348" type="line"/>
      <point x="394" y="368" type="line"/>
      <point x="69" y="368" type="line"/>
    </contour>
    <contour>
      <point x="232" y="132" type="curve" smooth="yes"/>
      <point x="249" y="132"/>
      <point x="261" y="140"/>
      <point x="261" y="168" type="curve" smooth="yes"/>
      <point x="261" y="198"/>
      <point x="249" y="206"/>
      <point x="232" y="206" type="curve" smooth="yes"/>
      <point x="214" y="206"/>
      <point x="204" y="198"/>
      <point x="204" y="168" type="curve" smooth="yes"/>
      <point x="204" y="140"/>
      <point x="214" y="132"/>
    </contour>
    <contour>
      <point x="232" y="513" type="curve" smooth="yes"/>
      <point x="249" y="513"/>
      <point x="261" y="521"/>
      <point x="261" y="549" type="curve" smooth="yes"/>
      <point x="261" y="579"/>
      <point x="249" y="587"/>
      <point x="232" y="587" type="curve" smooth="yes"/>
      <point x="214" y="587"/>
      <point x="204" y="579"/>
      <point x="204" y="549" type="curve" smooth="yes"/>
      <point x="204" y="521"/>
      <point x="214" y="513"/>
    </contour>
  </outline>
</glyph>
<glyph name="oslash" format="2">
  <advance width="508"/>
  <unicode hex="00F8"/>
  <anchor x="199" y="0" name="bottom"/>
  <anchor x="313" y="536" name="top"/>
  <anchor x="304" y="268" name="center"/>
  <anchor x="537" y="536" name="topright"/>
  <outline>
    <contour>
      <point x="34" y="-50" type="line"/>
      <point x="45" y="-50" type="line"/>
      <point x="480" y="586" type="line"/>
      <point x="469" y="586" type="line"/>
    </contour>
    <component base="o" xOffset="2"/>
  </outline>
</glyph>
<glyph name="thorn" format="2">
  <advance width="513"/>
  <unicode hex="00FE"/>
  <anchor x="148" y="-240" name="bottom"/>
  <anchor x="361" y="760" name="top"/>
  <outline>
    <contour>
      <point x="-38" y="-240" type="line"/>
      <point x="180" y="-240" type="line"/>
      <point x="183" y="-230" type="line"/>
      <point x="156" y="-230" type="line" smooth="yes"/>
      <point x="118" y="-230"/>
      <point x="106" y="-225"/>
      <point x="106" y="-200" type="curve" smooth="yes"/>
      <point x="106" y="-192"/>
      <point x="107" y="-182"/>
      <point x="110" y="-161" type="curve" smooth="yes"/>
      <point x="133" y="-37" type="line" smooth="yes"/>
      <point x="137" y="-17"/>
      <point x="140" y="-3"/>
      <point x="142" y="15" type="curve"/>
      <point x="163" y="-2"/>
      <point x="189" y="-10"/>
      <point x="223" y="-10" type="curve" smooth="yes"/>
      <point x="405" y="-10"/>
      <point x="493" y="213"/>
      <point x="493" y="376" type="curve" smooth="yes"/>
      <point x="493" y="491"/>
      <point x="449" y="546"/>
      <point x="378" y="546" type="curve" smooth="yes"/>
      <point x="300" y="546"/>
      <point x="244" y="479"/>
      <point x="211" y="370" type="curve"/>
      <point x="207" y="370" type="line"/>
      <point x="236" y="465"/>
      <point x="260" y="539"/>
      <point x="273" y="598" type="curve" smooth="yes"/>
      <point x="310" y="760" type="line"/>
      <point x="98" y="760" type="line"/>
      <point x="95" y="750" type="line"/>
      <point x="123" y="750" type="line" smooth="yes"/>
      <point x="156" y="750"/>
      <point x="162" y="740"/>
      <point x="162" y="720" type="curve" smooth="yes"/>
      <point x="162" y="707"/>
      <point x="160" y="693"/>
      <point x="157" y="673" type="curve" smooth="yes"/>
    </contour>
    <contour>
      <point x="203" y="3" type="curve" smooth="yes"/>
      <point x="180" y="3"/>
      <point x="158" y="14"/>
      <point x="147" y="29" type="curve"/>
      <point x="212" y="333" type="line" smooth="yes"/>
      <point x="229" y="415"/>
      <point x="276" y="511"/>
      <point x="326" y="511" type="curve" smooth="yes"/>
      <point x="355" y="511"/>
      <point x="368" y="479"/>
      <point x="368" y="398" type="curve" smooth="yes"/>
      <point x="368" y="214"/>
      <point x="302" y="3"/>
    </contour>
  </outline>
</glyph>
<glyph name="dcroat" format="2">
  <advance width="528"/>
  <unicode hex="0111"/>
  <anchor x="217" y="0" name="bottom"/>
  <anchor x="379" y="760" name="top"/>
  <anchor x="321" y="268" name="center"/>
  <anchor x="605" y="760" name="topright"/>
  <outline>
    <contour>
      <point x="283" y="630" type="line"/>
      <point x="602" y="630" type="line"/>
      <point x="604" y="640" type="line"/>
      <point x="285" y="640" type="line"/>
    </contour>
    <component base="d"/>
  </outline>
</glyph>
<glyph name="Hbar" format="2">
  <advance width="668"/>
  <unicode hex="0126"/>
  <anchor x="277" y="0" name="bottom"/>
  <anchor x="429" y="714" name="top"/>
  <anchor x="340" y="357" name="center"/>
  <anchor x="725" y="714" name="topright"/>
  <outline>
    <contour>
      <point x="79" y="522" type="line"/>
      <point x="725" y="522" type="line"/>
      <point x="727" y="532" type="line"/>
      <point x="81" y="532" type="line"/>
    </contour>
    <component base="H" xOffset="1"/>
  </outline>
</glyph>
<glyph name="hbar" format="2">
  <advance width="533"/>
  <unicode hex="0127"/>
  <anchor x="211" y="0" name="bottom"/>
  <anchor x="373" y="760" name="top"/>
  <anchor x="324" y="268" name="center"/>
  <anchor x="541" y="760" name="topright"/>
  <outline>
    <contour>
      <point x="68" y="618" type="line"/>
      <point x="389" y="618" type="line"/>
      <point x="391" y="628" type="line"/>
      <point x="70" y="628" type="line"/>
    </contour>
    <component base="h" xOffset="-17"/>
  </outline>
</glyph>
<glyph name="idotless" format="2">
  <advance width="296"/>
  <unicode hex="0131"/>
  <anchor x="99" y="0" name="bottom"/>
  <anchor x="188" y="536" name="top"/>
  <anchor x="360" y="714" name="topright"/>
  <outline>
    <contour>
      <point x="152" y="-10" type="curve" smooth="yes"/>
      <point x="213" y="-10"/>
      <point x="245" y="19"/>
      <point x="276" y="55" type="curve"/>
      <point x="269" y="64" type="line"/>
      <point x="248" y="39"/>
      <point x="222" y="14"/>
      <point x="200" y="14" type="curve" smooth="yes"/>
      <point x="179" y="14"/>
      <point x="174" y="32"/>
      <point x="174" y="56" type="curve" smooth="yes"/>
      <point x="174" y="78"/>
      <point x="177" y="104"/>
      <point x="186" y="144" type="curve" smooth="yes"/>
      <point x="270" y="536" type="line"/>
      <point x="67" y="536" type="line"/>
      <point x="65" y="526" type="line"/>
      <point x="75" y="526" type="line" smooth="yes"/>
      <point x="114" y="526"/>
      <point x="122" y="517"/>
      <point x="122" y="495" type="curve" smooth="yes"/>
      <point x="122" y="478"/>
      <point x="119" y="460"/>
      <point x="115" y="440" type="curve" smooth="yes"/>
      <point x="66" y="203" type="line" smooth="yes"/>
      <point x="54" y="146"/>
      <point x="50" y="112"/>
      <point x="50" y="90" type="curve" smooth="yes"/>
      <point x="50" y="23"/>
      <point x="86" y="-10"/>
    </contour>
  </outline>
</glyph>
<glyph name="kgreenlandic" format="2">
  <advance width="509"/>
  <unicode hex="0138"/>
  <anchor x="221" y="0" name="bottom"/>
  <anchor x="320" y="536" name="top"/>
  <outline>
    <contour>
      <point x="434" y="-5" type="curve" smooth="yes"/>
      <point x="471" y="-5" type="line"/>
      <point x="473" y="5" type="line"/>
      <point x="440" y="5"/>
      <point x="426" y="48"/>
      <point x="411" y="99" type="curve" smooth="yes"/>
      <point x="332" y="372" type="line"/>
      <point x="309" y="340" type="line"/>
      <point x="424" y="464" type="line" smooth="yes"/>
      <point x="473" y="517"/>
      <point x="515" y="526"/>
      <point x="554" y="526" type="curve"/>
      <point x="556" y="536" type="line"/>
      <point x="348" y="536" type="line"/>
      <point x="346" y="526" type="line"/>
      <point x="414" y="526"/>
      <point x="439" y="522"/>
      <point x="439" y="504" type="curve" smooth="yes"/>
      <point x="439" y="492"/>
      <point x="425" y="477"/>
      <point x="406" y="456" type="curve" smooth="yes"/>
      <point x="206" y="237" type="line"/>
      <point x="220" y="294"/>
      <point x="251" y="435"/>
      <point x="261" y="482" type="curve" smooth="yes"/>
      <point x="272" y="536" type="line"/>
      <point x="73" y="536" type="line"/>
      <point x="71" y="526" type="line"/>
      <point x="83" y="526" type="line" smooth="yes"/>
      <point x="119" y="526"/>
      <point x="125" y="514"/>
      <point x="125" y="498" type="curve" smooth="yes"/>
      <point x="125" y="485"/>
      <point x="121" y="466"/>
      <point x="118" y="454" type="curve" smooth="yes"/>
      <point x="23" y="0" type="line"/>
      <point x="155" y="0" type="line"/>
      <point x="203" y="223" type="line"/>
      <point x="247" y="267" type="line"/>
      <point x="233" y="262" type="line"/>
      <point x="282" y="90" type="line" smooth="yes"/>
      <point x="304" y="9"/>
      <point x="339" y="-5"/>
    </contour>
  </outline>
</glyph>
<glyph name="Lslash" format="2">
  <advance width="533"/>
  <unicode hex="0141"/>
  <anchor x="209" y="0" name="bottom"/>
  <anchor x="361" y="714" name="top"/>
  <anchor x="291" y="357" name="center"/>
  <anchor x="519" y="714" name="topright"/>
  <outline>
    <contour>
      <point x="33" y="268" type="line"/>
      <point x="394" y="454" type="line"/>
      <point x="396" y="466" type="line"/>
      <point x="34" y="279" type="line"/>
    </contour>
    <component base="L"/>
  </outline>
</glyph>
<glyph name="Eng" format="2">
  <advance width="642"/>
  <unicode hex="014A"/>
  <anchor x="202" y="-240" name="bottom"/>
  <anchor x="405" y="714" name="top"/>
  <outline>
    <contour>
      <point x="347" y="-240" type="curve" smooth="yes"/>
      <point x="421" y="-240"/>
      <point x="454" y="-171"/>
      <point x="489" y="0" type="curve" smooth="yes"/>
      <point x="625" y="644" type="line" smooth="yes"/>
      <point x="637" y="698"/>
      <point x="668" y="704"/>
      <point x="708" y="704" type="curve" smooth="yes"/>
      <point x="736" y="704" type="line"/>
      <point x="738" y="714" type="line"/>
      <point x="536" y="714" type="line"/>
      <point x="534" y="704" type="line"/>
      <point x="558" y="704" type="line" smooth="yes"/>
      <point x="600" y="704"/>
      <point x="616" y="694"/>
      <point x="616" y="669" type="curve" smooth="yes"/>
      <point x="616" y="661"/>
      <point x="615" y="651"/>
      <point x="612" y="635" type="curve" smooth="yes"/>
      <point x="518" y="190" type="line"/>
      <point x="348" y="714" type="line"/>
      <point x="130" y="714" type="line"/>
      <point x="128" y="704" type="line"/>
      <point x="160" y="704" type="line" smooth="yes"/>
      <point x="196" y="704"/>
      <point x="221" y="700"/>
      <point x="221" y="677" type="curve" smooth="yes"/>
      <point x="221" y="670"/>
      <point x="219" y="659"/>
      <point x="215" y="640" type="curve" smooth="yes"/>
      <point x="91" y="61" type="line" smooth="yes"/>
      <point x="82" y="17"/>
      <point x="49" y="10"/>
      <point x="9" y="10" type="curve" smooth="yes"/>
      <point x="-19" y="10" type="line"/>
      <point x="-20" y="0" type="line"/>
      <point x="182" y="0" type="line"/>
      <point x="184" y="10" type="line"/>
      <point x="169" y="10" type="line" smooth="yes"/>
      <point x="125" y="10"/>
      <point x="100" y="17"/>
      <point x="100" y="39" type="curve" smooth="yes"/>
      <point x="100" y="47"/>
      <point x="101" y="57"/>
      <point x="105" y="77" type="curve" smooth="yes"/>
      <point x="232" y="670" type="line"/>
      <point x="472" y="-21" type="line"/>
      <point x="440" y="-195"/>
      <point x="399" y="-230"/>
      <point x="346" y="-230" type="curve" smooth="yes"/>
      <point x="329" y="-230"/>
      <point x="306" y="-225"/>
      <point x="294" y="-219" type="curve"/>
      <point x="291" y="-229" type="line"/>
      <point x="308" y="-236"/>
      <point x="320" y="-240"/>
    </contour>
  </outline>
</glyph>
<glyph name="eng" format="2">
  <advance width="546"/>
  <unicode hex="014B"/>
  <anchor x="161" y="-240" name="bottom"/>
  <anchor x="326" y="536" name="top"/>
  <anchor x="595" y="536" name="topright"/>
  <outline>
    <contour>
      <point x="211" y="-240" type="curve" smooth="yes"/>
      <point x="310" y="-240"/>
      <point x="376" y="-182"/>
      <point x="414" y="-6" type="curve" smooth="yes"/>
      <point x="483" y="317" type="line" smooth="yes"/>
      <point x="491" y="356"/>
      <point x="499" y="401"/>
      <point x="499" y="436" type="curve" smooth="yes"/>
      <point x="499" y="494"/>
      <point x="473" y="545"/>
      <point x="395" y="545" type="curve" smooth="yes"/>
      <point x="325" y="545"/>
      <point x="279" y="512"/>
      <point x="239" y="406" type="curve"/>
      <point x="237" y="406" type="line"/>
      <point x="257" y="536" type="line"/>
      <point x="74" y="536" type="line"/>
      <point x="73" y="526" type="line"/>
      <point x="88" y="526" type="line" smooth="yes"/>
      <point x="121" y="526"/>
      <point x="125" y="514"/>
      <point x="125" y="495" type="curve" smooth="yes"/>
      <point x="125" y="482"/>
      <point x="122" y="463"/>
      <point x="118" y="445" type="curve" smooth="yes"/>
      <point x="25" y="0" type="line"/>
      <point x="156" y="0" type="line"/>
      <point x="223" y="318" type="line" smooth="yes"/>
      <point x="242" y="409"/>
      <point x="286" y="513"/>
      <point x="339" y="513" type="curve" smooth="yes"/>
      <point x="368" y="513"/>
      <point x="371" y="479"/>
      <point x="371" y="454" type="curve" smooth="yes"/>
      <point x="371" y="420"/>
      <point x="360" y="369"/>
      <point x="355" y="344" type="curve" smooth="yes"/>
      <point x="269" y="-66" type="line" smooth="yes"/>
      <point x="245" y="-178"/>
      <point x="225" y="-224"/>
      <point x="177" y="-224" type="curve" smooth="yes"/>
      <point x="163" y="-224"/>
      <point x="141" y="-220"/>
      <point x="132" y="-216" type="curve"/>
      <point x="129" y="-226" type="line"/>
      <point x="158" y="-237"/>
      <point x="178" y="-240"/>
    </contour>
  </outline>
</glyph>
<glyph name="OE" format="2">
  <advance width="822"/>
  <unicode hex="0152"/>
  <anchor x="355" y="0" name="bottom"/>
  <anchor x="507" y="714" name="top"/>
  <outline>
    <contour>
      <point x="289" y="-11" type="curve" smooth="yes"/>
      <point x="332" y="-11"/>
      <point x="349" y="0"/>
      <point x="376" y="0" type="curve" smooth="yes"/>
      <point x="745" y="0" type="line"/>
      <point x="781" y="147" type="line"/>
      <point x="771" y="147" type="line"/>
      <point x="756" y="97" type="line" smooth="yes"/>
      <point x="738" y="40"/>
      <point x="714" y="10"/>
      <point x="660" y="10" type="curve" smooth="yes"/>
      <point x="488" y="10" type="line"/>
      <point x="563" y="366" type="line"/>
      <point x="744" y="366" type="line"/>
      <point x="746" y="377" type="line"/>
      <point x="565" y="377" type="line"/>
      <point x="634" y="704" type="line"/>
      <point x="785" y="704" type="line" smooth="yes"/>
      <point x="824" y="704"/>
      <point x="839" y="688"/>
      <point x="839" y="645" type="curve" smooth="yes"/>
      <point x="839" y="625"/>
      <point x="834" y="583"/>
      <point x="832" y="567" type="curve"/>
      <point x="842" y="567" type="line"/>
      <point x="870" y="714" type="line"/>
      <point x="515" y="714" type="line"/>
      <point x="488" y="719"/>
      <point x="463" y="725"/>
      <point x="426" y="725" type="curve" smooth="yes"/>
      <point x="185" y="725"/>
      <point x="52" y="481"/>
      <point x="52" y="254" type="curve" smooth="yes"/>
      <point x="52" y="81"/>
      <point x="149" y="-11"/>
    </contour>
    <contour>
      <point x="306" y="-1" type="curve" smooth="yes"/>
      <point x="227" y="-1"/>
      <point x="189" y="68"/>
      <point x="189" y="234" type="curve" smooth="yes"/>
      <point x="189" y="407"/>
      <point x="266" y="715"/>
      <point x="416" y="715" type="curve" smooth="yes"/>
      <point x="449" y="715"/>
      <point x="476" y="702"/>
      <point x="493" y="669" type="curve"/>
      <point x="362" y="54" type="line" smooth="yes"/>
      <point x="347" y="21"/>
      <point x="337" y="-1"/>
    </contour>
  </outline>
</glyph>
<glyph name="oe" format="2">
  <advance width="742"/>
  <unicode hex="0153"/>
  <anchor x="335" y="0" name="bottom"/>
  <anchor x="439" y="536" name="top"/>
  <outline>
    <contour>
      <point x="205" y="-10" type="curve" smooth="yes"/>
      <point x="276" y="-10"/>
      <point x="331" y="27"/>
      <point x="372" y="79" type="curve"/>
      <point x="405" y="18"/>
      <point x="460" y="-10"/>
      <point x="525" y="-10" type="curve" smooth="yes"/>
      <point x="627" y="-10"/>
      <point x="678" y="55"/>
      <point x="678" y="108" type="curve" smooth="yes"/>
      <point x="678" y="134"/>
      <point x="671" y="144"/>
      <point x="661" y="147" type="curve"/>
      <point x="637" y="58"/>
      <point x="603" y="2"/>
      <point x="547" y="2" type="curve" smooth="yes"/>
      <point x="495" y="2"/>
      <point x="464" y="51"/>
      <point x="464" y="182" type="curve" smooth="yes"/>
      <point x="464" y="197"/>
      <point x="465" y="237"/>
      <point x="467" y="248" type="curve"/>
      <point x="478" y="248"/>
      <point x="489" y="248"/>
      <point x="502" y="248" type="curve" smooth="yes"/>
      <point x="642" y="248"/>
      <point x="748" y="317"/>
      <point x="748" y="430" type="curve" smooth="yes"/>
      <point x="748" y="503"/>
      <point x="702" y="546"/>
      <point x="619" y="546" type="curve" smooth="yes"/>
      <point x="545" y="546"/>
      <point x="486" y="506"/>
      <point x="441" y="453" type="curve"/>
      <point x="414" y="518"/>
      <point x="363" y="546"/>
      <point x="302" y="546" type="curve" smooth="yes"/>
      <point x="117" y="546"/>
      <point x="29" y="346"/>
      <point x="29" y="194" type="curve" smooth="yes"/>
      <point x="29" y="57"/>
      <point x="99" y="-10"/>
    </contour>
    <contour>
      <point x="212" y="0" type="curve" smooth="yes"/>
      <point x="172" y="0"/>
      <point x="150" y="35"/>
      <point x="150" y="133" type="curve" smooth="yes"/>
      <point x="150" y="323"/>
      <point x="213" y="536"/>
      <point x="293" y="536" type="curve" smooth="yes"/>
      <point x="335" y="536"/>
      <point x="349" y="489"/>
      <point x="349" y="398" type="curve" smooth="yes"/>
      <point x="349" y="219"/>
      <point x="301" y="0"/>
    </contour>
    <contour>
      <point x="468" y="258" type="line"/>
      <point x="489" y="426"/>
      <point x="539" y="533"/>
      <point x="591" y="533" type="curve" smooth="yes"/>
      <point x="620" y="533"/>
      <point x="630" y="508"/>
      <point x="630" y="450" type="curve" smooth="yes"/>
      <point x="630" y="334"/>
      <point x="562" y="258"/>
      <point x="488" y="258" type="curve" smooth="yes"/>
    </contour>
  </outline>
</glyph>
<glyph name="Tbar" format="2">
  <advance width="534"/>
  <unicode hex="0166"/>
  <anchor x="210" y="0" name="bottom"/>
  <anchor x="362" y="714" name="top"/>
  <anchor x="293" y="357" name="center"/>
  <anchor x="596" y="714" name="topright"/>
  <outline>
    <contour>
      <point x="93" y="355" type="line"/>
      <point x="480" y="355" type="line"/>
      <point x="482" y="365" type="line"/>
      <point x="94" y="365" type="line"/>
    </contour>
    <component base="T"/>
  </outline>
</glyph>
<glyph name="tbar" format="2">
  <advance width="345"/>
  <unicode hex="0167"/>
  <anchor x="115" y="0" name="bottom"/>
  <anchor x="255" y="659" name="top"/>
  <anchor x="227" y="268" name="center"/>
  <anchor x="402" y="659" name="topright"/>
  <outline>
    <contour>
      <point x="17" y="299" type="line"/>
      <point x="310" y="299" type="line"/>
      <point x="312" y="309" type="line"/>
      <point x="19" y="309" type="line"/>
    </contour>
    <component base="t"/>
  </outline>
</glyph>
<glyph name="longs" format="2">
  <advance width="351"/>
  <unicode hex="017F"/>
  <anchor x="-73" y="-240" name="bottom"/>
  <anchor x="364" y="770" name="top"/>
  <outline>
    <contour>
      <point x="-75" y="-240" type="curve" smooth="yes"/>
      <point x="26" y="-240"/>
      <point x="129" y="-185"/>
      <point x="173" y="26" type="curve" smooth="yes"/>
      <point x="306" y="651" type="line" smooth="yes"/>
      <point x="323" y="736"/>
      <point x="335" y="760"/>
      <point x="363" y="760" type="curve" smooth="yes"/>
      <point x="396" y="760"/>
      <point x="395" y="714"/>
      <point x="395" y="618" type="curve"/>
      <point x="458" y="618"/>
      <point x="492" y="641"/>
      <point x="492" y="682" type="curve" smooth="yes"/>
      <point x="492" y="735"/>
      <point x="445" y="770"/>
      <point x="364" y="770" type="curve" smooth="yes"/>
      <point x="258" y="770"/>
      <point x="187" y="706"/>
      <point x="158" y="572" type="curve" smooth="yes"/>
      <point x="22" y="-63" type="line" smooth="yes"/>
      <point x="-7" y="-196"/>
      <point x="-32" y="-230"/>
      <point x="-84" y="-230" type="curve" smooth="yes"/>
      <point x="-101" y="-230"/>
      <point x="-113" y="-226"/>
      <point x="-121" y="-223" type="curve"/>
      <point x="-124" y="-232" type="line"/>
      <point x="-113" y="-236"/>
      <point x="-93" y="-240"/>
    </contour>
  </outline>
</glyph>
<glyph name="uni0191" format="2">
  <advance width="668"/>
  <unicode hex="0191"/>
  <anchor x="120" y="-10" name="bottom"/>
  <anchor x="489" y="714" name="top"/>
  <outline>
    <contour>
      <point x="120" y="-10" type="curve" smooth="yes"/>
      <point x="255" y="-10"/>
      <point x="341" y="63"/>
      <point x="371" y="202" type="curve" smooth="yes"/>
      <point x="407" y="368" type="line"/>
      <point x="599" y="368" type="line"/>
      <point x="601" y="378" type="line"/>
      <point x="409" y="378" type="line"/>
      <point x="477" y="704" type="line"/>
      <point x="636" y="704" type="line" smooth="yes"/>
      <point x="676" y="704"/>
      <point x="690" y="681"/>
      <point x="690" y="646" type="curve" smooth="yes"/>
      <point x="690" y="629"/>
      <point x="686" y="597"/>
      <point x="682" y="567" type="curve"/>
      <point x="692" y="567" type="line"/>
      <point x="721" y="714" type="line"/>
      <point x="270" y="714" type="line"/>
      <point x="267" y="704" type="line"/>
      <point x="284" y="704" type="line" smooth="yes"/>
      <point x="315" y="704"/>
      <point x="336" y="700"/>
      <point x="336" y="676" type="curve" smooth="yes"/>
      <point x="336" y="664"/>
      <point x="330" y="637"/>
      <point x="326" y="618" type="curve" smooth="yes"/>
      <point x="214" y="98" type="line" smooth="yes"/>
      <point x="201" y="37"/>
      <point x="177" y="0"/>
      <point x="127" y="0" type="curve" smooth="yes"/>
      <point x="73" y="0"/>
      <point x="54" y="40"/>
      <point x="54" y="147" type="curve" smooth="yes"/>
      <point x="54" y="159"/>
      <point x="54" y="172"/>
      <point x="55" y="185" type="curve"/>
      <point x="-1" y="185"/>
      <point x="-42" y="158"/>
      <point x="-42" y="102" type="curve" smooth="yes"/>
      <point x="-42" y="36"/>
      <point x="19" y="-10"/>
    </contour>
  </outline>
</glyph>
<glyph name="florin" format="2">
  <advance width="427"/>
  <unicode hex="0192"/>
  <anchor x="81" y="-15" name="bottom"/>
  <anchor x="444" y="770" name="top"/>
  <anchor x="611" y="770" name="topright"/>
  <outline>
    <contour>
      <point x="81" y="-15" type="curve" smooth="yes"/>
      <point x="199" y="-15"/>
      <point x="260" y="54"/>
      <point x="291" y="202" type="curve" smooth="yes"/>
      <point x="359" y="526" type="line"/>
      <point x="468" y="526" type="line"/>
      <point x="470" y="536" type="line"/>
      <point x="361" y="536" type="line"/>
      <point x="386" y="653" type="line" smooth="yes"/>
      <point x="400" y="725"/>
      <point x="414" y="760"/>
      <point x="445" y="760" type="curve" smooth="yes"/>
      <point x="477" y="760"/>
      <point x="481" y="717"/>
      <point x="479" y="614" type="curve"/>
      <point x="540" y="614"/>
      <point x="573" y="639"/>
      <point x="573" y="679" type="curve" smooth="yes"/>
      <point x="573" y="735"/>
      <point x="527" y="770"/>
      <point x="443" y="770" type="curve" smooth="yes"/>
      <point x="325" y="770"/>
      <point x="266" y="705"/>
      <point x="238" y="583" type="curve" smooth="yes"/>
      <point x="228" y="536" type="line"/>
      <point x="148" y="532" type="line"/>
      <point x="147" y="526" type="line"/>
      <point x="225" y="526" type="line"/>
      <point x="138" y="102" type="line" smooth="yes"/>
      <point x="124" y="32"/>
      <point x="112" y="-5"/>
      <point x="79" y="-5" type="curve" smooth="yes"/>
      <point x="47" y="-5"/>
      <point x="33" y="33"/>
      <point x="35" y="136" type="curve"/>
      <point x="-16" y="136"/>
      <point x="-45" y="110"/>
      <point x="-45" y="70" type="curve" smooth="yes"/>
      <point x="-45" y="18"/>
      <point x="-3" y="-15"/>
    </contour>
  </outline>
</glyph>
<glyph name="uni019A" format="2">
  <advance width="293"/>
  <unicode hex="019A"/>
  <anchor x="82" y="0" name="bottom"/>
  <anchor x="244" y="760" name="top"/>
  <anchor x="202" y="268" name="center"/>
  <anchor x="376" y="760" name="topright"/>
  <outline>
    <contour>
      <point x="16" y="383" type="line"/>
      <point x="299" y="383" type="line"/>
      <point x="301" y="393" type="line"/>
      <point x="18" y="393" type="line"/>
    </contour>
    <component base="l" xOffset="-8"/>
  </outline>
</glyph>
<glyph name="Ohorn" format="2">
  <advance width="708"/>
  <unicode hex="01A0"/>
  <anchor x="282" y="0" name="bottom"/>
  <anchor x="434" y="714" name="top"/>
  <outline>
    <contour>
      <point x="280" y="-11" type="curve" smooth="yes"/>
      <point x="525" y="-11"/>
      <point x="640" y="254"/>
      <point x="640" y="471" type="curve" smooth="yes"/>
      <point x="640" y="489"/>
      <point x="638" y="506"/>
      <point x="636" y="522" type="curve"/>
      <point x="721" y="557"/>
      <point x="785" y="624"/>
      <point x="785" y="707" type="curve" smooth="yes"/>
      <point x="785" y="743"/>
      <point x="767" y="770"/>
      <point x="733" y="770" type="curve" smooth="yes"/>
      <point x="698" y="770"/>
      <point x="678" y="748"/>
      <point x="678" y="720" type="curve" smooth="yes"/>
      <point x="678" y="667"/>
      <point x="730" y="660"/>
      <point x="730" y="623" type="curve" smooth="yes"/>
      <point x="730" y="594"/>
      <point x="693" y="560"/>
      <point x="634" y="533" type="curve"/>
      <point x="615" y="669"/>
      <point x="525" y="725"/>
      <point x="415" y="725" type="curve" smooth="yes"/>
      <point x="180" y="725"/>
      <point x="56" y="481"/>
      <point x="56" y="245" type="curve" smooth="yes"/>
      <point x="56" y="76"/>
      <point x="148" y="-11"/>
    </contour>
    <contour>
      <point x="298" y="-1" type="curve" smooth="yes"/>
      <point x="239" y="-1"/>
      <point x="194" y="62"/>
      <point x="194" y="219" type="curve" smooth="yes"/>
      <point x="194" y="394"/>
      <point x="266" y="715"/>
      <point x="409" y="715" type="curve" smooth="yes"/>
      <point x="471" y="715"/>
      <point x="503" y="656"/>
      <point x="503" y="512" type="curve" smooth="yes"/>
      <point x="503" y="324"/>
      <point x="436" y="-1"/>
    </contour>
  </outline>
</glyph>
<glyph name="ohorn" format="2">
  <advance width="555"/>
  <unicode hex="01A1"/>
  <anchor x="222" y="0" name="bottom"/>
  <anchor x="336" y="536" name="top"/>
  <outline>
    <contour>
      <point x="218" y="-10" type="curve" smooth="yes"/>
      <point x="407" y="-10"/>
      <point x="486" y="196"/>
      <point x="486" y="341" type="curve" smooth="yes"/>
      <point x="486" y="357"/>
      <point x="485" y="372"/>
      <point x="483" y="386" type="curve"/>
      <point x="556" y="422"/>
      <point x="612" y="483"/>
      <point x="612" y="563" type="curve" smooth="yes"/>
      <point x="612" y="599"/>
      <point x="594" y="626"/>
      <point x="560" y="626" type="curve" smooth="yes"/>
      <point x="525" y="626"/>
      <point x="504" y="604"/>
      <point x="504" y="575" type="curve" smooth="yes"/>
      <point x="504" y="524"/>
      <point x="555" y="516"/>
      <point x="555" y="479" type="curve" smooth="yes"/>
      <point x="555" y="452"/>
      <point x="525" y="422"/>
      <point x="481" y="398" type="curve"/>
      <point x="464" y="502"/>
      <point x="396" y="546"/>
      <point x="316" y="546" type="curve" smooth="yes"/>
      <point x="120" y="546"/>
      <point x="40" y="344"/>
      <point x="40" y="195" type="curve" smooth="yes"/>
      <point x="40" y="57"/>
      <point x="111" y="-10"/>
    </contour>
    <contour>
      <point x="224" y="0" type="curve" smooth="yes"/>
      <point x="183" y="0"/>
      <point x="161" y="35"/>
      <point x="161" y="133" type="curve" smooth="yes"/>
      <point x="161" y="322"/>
      <point x="224" y="536"/>
      <point x="307" y="536" type="curve" smooth="yes"/>
      <point x="349" y="536"/>
      <point x="365" y="491"/>
      <point x="365" y="398" type="curve" smooth="yes"/>
      <point x="365" y="220"/>
      <point x="314" y="0"/>
    </contour>
  </outline>
</glyph>
<glyph name="Uhorn" format="2">
  <advance width="700"/>
  <unicode hex="01AF"/>
  <anchor x="282" y="0" name="bottom"/>
  <anchor x="434" y="714" name="top"/>
  <outline>
    <contour>
      <point x="265" y="-10" type="curve" smooth="yes"/>
      <point x="410" y="-10"/>
      <point x="464" y="83"/>
      <point x="495" y="230" type="curve" smooth="yes"/>
      <point x="551" y="499" type="line"/>
      <point x="710" y="521"/>
      <point x="782" y="610"/>
      <point x="782" y="700" type="curve" smooth="yes"/>
      <point x="782" y="747"/>
      <point x="761" y="770"/>
      <point x="726" y="770" type="curve" smooth="yes"/>
      <point x="690" y="770"/>
      <point x="671" y="746"/>
      <point x="671" y="714" type="curve" smooth="yes"/>
      <point x="671" y="660"/>
      <point x="725" y="650"/>
      <point x="725" y="611" type="curve" smooth="yes"/>
      <point x="725" y="559"/>
      <point x="636" y="520"/>
      <point x="554" y="509" type="curve"/>
      <point x="596" y="714" type="line"/>
      <point x="482" y="714" type="line"/>
      <point x="480" y="704" type="line"/>
      <point x="495" y="704" type="line" smooth="yes"/>
      <point x="543" y="704"/>
      <point x="575" y="700"/>
      <point x="575" y="670" type="curve" smooth="yes"/>
      <point x="575" y="663"/>
      <point x="573" y="651"/>
      <point x="570" y="635" type="curve" smooth="yes"/>
      <point x="487" y="244" type="line" smooth="yes"/>
      <point x="455" y="93"/>
      <point x="397" y="4"/>
      <point x="296" y="4" type="curve" smooth="yes"/>
      <point x="242" y="4"/>
      <point x="208" y="31"/>
      <point x="208" y="108" type="curve" smooth="yes"/>
      <point x="208" y="155"/>
      <point x="221" y="228"/>
      <point x="227" y="255" type="curve" smooth="yes"/>
      <point x="309" y="641" type="line" smooth="yes"/>
      <point x="320" y="696"/>
      <point x="348" y="704"/>
      <point x="384" y="704" type="curve" smooth="yes"/>
      <point x="402" y="704" type="line"/>
      <point x="404" y="714" type="line"/>
      <point x="114" y="714" type="line"/>
      <point x="111" y="704" type="line"/>
      <point x="125" y="704" type="line" smooth="yes"/>
      <point x="159" y="704"/>
      <point x="179" y="699"/>
      <point x="179" y="675" type="curve" smooth="yes"/>
      <point x="179" y="667"/>
      <point x="176" y="655"/>
      <point x="171" y="631" type="curve" smooth="yes"/>
      <point x="91" y="256" type="line" smooth="yes"/>
      <point x="85" y="225"/>
      <point x="78" y="181"/>
      <point x="78" y="150" type="curve" smooth="yes"/>
      <point x="78" y="49"/>
      <point x="148" y="-10"/>
    </contour>
  </outline>
</glyph>
<glyph name="uhorn" format="2">
  <advance width="640"/>
  <unicode hex="01B0"/>
  <anchor x="256" y="0" name="bottom"/>
  <anchor x="368" y="536" name="top"/>
  <outline>
    <contour>
      <point x="414" y="-10" type="curve" smooth="yes"/>
      <point x="477" y="-10"/>
      <point x="503" y="17"/>
      <point x="530" y="53" type="curve"/>
      <point x="525" y="60" type="line"/>
      <point x="506" y="33"/>
      <point x="484" y="12"/>
      <point x="459" y="12" type="curve" smooth="yes"/>
      <point x="438" y="12"/>
      <point x="430" y="29"/>
      <point x="430" y="62" type="curve" smooth="yes"/>
      <point x="430" y="85"/>
      <point x="434" y="119"/>
      <point x="441" y="154" type="curve" smooth="yes"/>
      <point x="484" y="367" type="line"/>
      <point x="597" y="386"/>
      <point x="686" y="467"/>
      <point x="686" y="563" type="curve" smooth="yes"/>
      <point x="686" y="599"/>
      <point x="668" y="626"/>
      <point x="635" y="626" type="curve" smooth="yes"/>
      <point x="599" y="626"/>
      <point x="578" y="604"/>
      <point x="578" y="575" type="curve" smooth="yes"/>
      <point x="578" y="524"/>
      <point x="630" y="516"/>
      <point x="630" y="479" type="curve" smooth="yes"/>
      <point x="630" y="441"/>
      <point x="571" y="394"/>
      <point x="486" y="378" type="curve"/>
      <point x="518" y="536" type="line"/>
      <point x="386" y="536" type="line"/>
      <point x="325" y="227" type="line" smooth="yes"/>
      <point x="307" y="130"/>
      <point x="259" y="27"/>
      <point x="204" y="27" type="curve" smooth="yes"/>
      <point x="184" y="27"/>
      <point x="173" y="41"/>
      <point x="173" y="78" type="curve" smooth="yes"/>
      <point x="173" y="100"/>
      <point x="178" y="144"/>
      <point x="187" y="183" type="curve" smooth="yes"/>
      <point x="259" y="536" type="line"/>
      <point x="61" y="536" type="line"/>
      <point x="59" y="526" type="line"/>
      <point x="78" y="526" type="line" smooth="yes"/>
      <point x="110" y="526"/>
      <point x="114" y="518"/>
      <point x="114" y="499" type="curve" smooth="yes"/>
      <point x="114" y="487"/>
      <point x="111" y="466"/>
      <point x="105" y="433" type="curve" smooth="yes"/>
      <point x="62" y="216" type="line" smooth="yes"/>
      <point x="54" y="180"/>
      <point x="46" y="131"/>
      <point x="46" y="99" type="curve" smooth="yes"/>
      <point x="46" y="40"/>
      <point x="70" y="-9"/>
      <point x="144" y="-9" type="curve" smooth="yes"/>
      <point x="217" y="-9"/>
      <point x="280" y="38"/>
      <point x="318" y="161" type="curve"/>
      <point x="323" y="161" type="line"/>
      <point x="319" y="144"/>
      <point x="314" y="96"/>
      <point x="314" y="75" type="curve" smooth="yes"/>
      <point x="314" y="31"/>
      <point x="334" y="-10"/>
    </contour>
  </outline>
</glyph>
<glyph name="uni01B5" format="2">
  <advance width="556"/>
  <unicode hex="01B5"/>
  <anchor x="219" y="0" name="bottom"/>
  <anchor x="371" y="714" name="top"/>
  <anchor x="603" y="714" name="topright"/>
  <outline>
    <contour>
      <point x="123" y="375" type="line"/>
      <point x="509" y="375" type="line"/>
      <point x="511" y="385" type="line"/>
      <point x="125" y="385" type="line"/>
    </contour>
    <component base="Z" xOffset="2"/>
  </outline>
</glyph>
<glyph name="uni01E5" format="2">
  <advance width="485"/>
  <unicode hex="01E5"/>
  <anchor x="148" y="-240" name="bottom"/>
  <anchor x="322" y="577" name="top"/>
  <anchor x="565" y="536" name="topright"/>
  <outline>
    <contour>
      <point x="150" y="-105" type="line"/>
      <point x="454" y="-105" type="line"/>
      <point x="456" y="-95" type="line"/>
      <point x="152" y="-95" type="line"/>
    </contour>
    <component base="g" xOffset="19"/>
  </outline>
</glyph>
<glyph name="Aringacute" format="2">
  <advance width="615"/>
  <unicode hex="01FA"/>
  <anchor x="250" y="0" name="bottom"/>
  <anchor x="457" y="980" name="top"/>
  <outline>
    <contour>
      <point x="-41" y="0" type="line"/>
      <point x="165" y="0" type="line"/>
      <point x="168" y="10" type="line"/>
      <point x="125" y="10" type="line" smooth="yes"/>
      <point x="82" y="10"/>
      <point x="67" y="14"/>
      <point x="67" y="31" type="curve" smooth="yes"/>
      <point x="67" y="46"/>
      <point x="75" y="61"/>
      <point x="93" y="96" type="curve" smooth="yes"/>
      <point x="180" y="262" type="line"/>
      <point x="373" y="262" type="line"/>
      <point x="390" y="79" type="line" smooth="yes"/>
      <point x="391" y="67"/>
      <point x="392" y="58"/>
      <point x="392" y="46" type="curve" smooth="yes"/>
      <point x="392" y="18"/>
      <point x="370" y="10"/>
      <point x="328" y="10" type="curve" smooth="yes"/>
      <point x="298" y="10" type="line"/>
      <point x="295" y="0" type="line"/>
      <point x="568" y="0" type="line"/>
      <point x="571" y="10" type="line"/>
      <point x="564" y="10" type="line" smooth="yes"/>
      <point x="536" y="10"/>
      <point x="530" y="30"/>
      <point x="522" y="94" type="curve" smooth="yes"/>
      <point x="458" y="625" type="line"/>
      <point x="477" y="640"/>
      <point x="491" y="664"/>
      <point x="491" y="700" type="curve" smooth="yes"/>
      <point x="491" y="763"/>
      <point x="449" y="797"/>
      <point x="396" y="797" type="curve" smooth="yes"/>
      <point x="343" y="797"/>
      <point x="300" y="760"/>
      <point x="300" y="700" type="curve" smooth="yes"/>
      <point x="300" y="660"/>
      <point x="319" y="631"/>
      <point x="348" y="616" type="curve"/>
      <point x="76" y="89" type="line" smooth="yes"/>
      <point x="42" y="23"/>
      <point x="15" y="10"/>
      <point x="-22" y="10" type="curve" smooth="yes"/>
      <point x="-38" y="10" type="line"/>
    </contour>
    <contour>
      <point x="185" y="272" type="line"/>
      <point x="257" y="409" type="line" smooth="yes"/>
      <point x="293" y="478"/>
      <point x="325" y="545"/>
      <point x="346" y="585" type="curve"/>
      <point x="347" y="529"/>
      <point x="356" y="461"/>
      <point x="361" y="404" type="curve" smooth="yes"/>
      <point x="373" y="272" type="line"/>
    </contour>
    <contour>
      <point x="397" y="615" type="curve" smooth="yes"/>
      <point x="351" y="615"/>
      <point x="312" y="641"/>
      <point x="312" y="699" type="curve" smooth="yes"/>
      <point x="312" y="755"/>
      <point x="349" y="787"/>
      <point x="398" y="787" type="curve" smooth="yes"/>
      <point x="443" y="787"/>
      <point x="479" y="757"/>
      <point x="479" y="700" type="curve" smooth="yes"/>
      <point x="479" y="642"/>
      <point x="441" y="615"/>
    </contour>
    <contour>
      <point x="367" y="832" type="line"/>
      <point x="377" y="832" type="line"/>
      <point x="451" y="861"/>
      <point x="572" y="938"/>
      <point x="603" y="967" type="curve"/>
      <point x="606" y="976" type="line"/>
      <point x="474" y="976" type="line"/>
      <point x="448" y="933"/>
      <point x="404" y="873"/>
      <point x="369" y="840" type="curve"/>
    </contour>
  </outline>
</glyph>
<glyph name="jdotless" format="2">
  <advance width="296"/>
  <unicode hex="0237"/>
  <anchor x="18" y="-240" name="bottom"/>
  <anchor x="192" y="536" name="top"/>
  <anchor x="358" y="714" name="topright"/>
  <outline>
    <contour>
      <point x="-45" y="-240" type="curve" smooth="yes"/>
      <point x="52" y="-240"/>
      <point x="122" y="-172"/>
      <point x="159" y="4" type="curve" smooth="yes"/>
      <point x="272" y="536" type="line"/>
      <point x="71" y="536" type="line"/>
      <point x="68" y="526" type="line"/>
      <point x="76" y="526" type="line" smooth="yes"/>
      <point x="114" y="526"/>
      <point x="125" y="516"/>
      <point x="125" y="489" type="curve" smooth="yes"/>
      <point x="125" y="473"/>
      <point x="120" y="455"/>
      <point x="115" y="431" type="curve" smooth="yes"/>
      <point x="14" y="-47" type="line" smooth="yes"/>
      <point x="-13" y="-178"/>
      <point x="-30" y="-224"/>
      <point x="-79" y="-224" type="curve" smooth="yes"/>
      <point x="-92" y="-224"/>
      <point x="-112" y="-221"/>
      <point x="-121" y="-218" type="curve"/>
      <point x="-124" y="-228" type="line"/>
      <point x="-95" y="-236"/>
      <point x="-76" y="-240"/>
    </contour>
  </outline>
</glyph>
<glyph name="uni0248" format="2">
  <advance width="347"/>
  <unicode hex="0248"/>
  <anchor x="51" y="-240" name="bottom"/>
  <anchor x="254" y="714" name="top"/>
  <anchor x="397" y="714" name="topright"/>
  <outline>
    <contour>
      <point x="35" y="370" type="line"/>
      <point x="358" y="370" type="line"/>
      <point x="360" y="380" type="line"/>
      <point x="37" y="380" type="line"/>
    </contour>
    <component base="J" xOffset="-6"/>
  </outline>
</glyph>
<glyph name="uni024E" format="2">
  <advance width="579"/>
  <unicode hex="024E"/>
  <anchor x="229" y="0" name="bottom"/>
  <anchor x="381" y="714" name="top"/>
  <anchor x="701" y="714" name="topright"/>
  <outline>
    <contour>
      <point x="81" y="525" type="line"/>
      <point x="622" y="525" type="line"/>
      <point x="624" y="535" type="line"/>
      <point x="83" y="535" type="line"/>
    </contour>
    <component base="Y" xOffset="1"/>
  </outline>
</glyph>
<glyph name="schwahook" format="2">
  <advance width="705"/>
  <unicode hex="025A"/>
  <anchor x="231" y="0" name="bottom"/>
  <anchor x="342" y="536" name="top"/>
  <outline>
    <contour>
      <point x="152" y="-10" type="curve" smooth="yes"/>
      <point x="333" y="-10"/>
      <point x="434" y="154"/>
      <point x="437" y="342" type="curve"/>
      <point x="485" y="359" type="line"/>
      <point x="505" y="270" type="line" smooth="yes"/>
      <point x="521" y="198"/>
      <point x="550" y="152"/>
      <point x="615" y="152" type="curve" smooth="yes"/>
      <point x="661" y="152"/>
      <point x="695" y="184"/>
      <point x="695" y="227" type="curve" smooth="yes"/>
      <point x="695" y="257"/>
      <point x="679" y="276"/>
      <point x="658" y="286" type="curve"/>
      <point x="650" y="250"/>
      <point x="628" y="222"/>
      <point x="590" y="222" type="curve" smooth="yes"/>
      <point x="547" y="222"/>
      <point x="520" y="255"/>
      <point x="505" y="319" type="curve" smooth="yes"/>
      <point x="493" y="370" type="line"/>
      <point x="437" y="350" type="line"/>
      <point x="430" y="489"/>
      <point x="356" y="546"/>
      <point x="250" y="546" type="curve" smooth="yes"/>
      <point x="144" y="546"/>
      <point x="91" y="476"/>
      <point x="91" y="422" type="curve" smooth="yes"/>
      <point x="91" y="399"/>
      <point x="103" y="391"/>
      <point x="111" y="389" type="curve"/>
      <point x="134" y="470"/>
      <point x="169" y="534"/>
      <point x="227" y="534" type="curve" smooth="yes"/>
      <point x="280" y="534"/>
      <point x="310" y="481"/>
      <point x="310" y="358" type="curve" smooth="yes"/>
      <point x="310" y="345"/>
      <point x="310" y="333"/>
      <point x="309" y="319" type="curve"/>
      <point x="82" y="253"/>
      <point x="24" y="190"/>
      <point x="24" y="106" type="curve" smooth="yes"/>
      <point x="24" y="29"/>
      <point x="71" y="-10"/>
    </contour>
    <contour>
      <point x="182" y="3" type="curve" smooth="yes"/>
      <point x="154" y="3"/>
      <point x="139" y="28"/>
      <point x="139" y="78" type="curve" smooth="yes"/>
      <point x="139" y="199"/>
      <point x="188" y="263"/>
      <point x="309" y="309" type="curve"/>
      <point x="300" y="175"/>
      <point x="251" y="3"/>
    </contour>
  </outline>
</glyph>
<glyph name="eopenreversedhook" format="2">
  <advance width="694"/>
  <unicode hex="025D"/>
  <anchor x="162" y="0" name="bottom"/>
  <anchor x="265" y="536" name="top"/>
  <outline>
    <contour>
      <point x="618" y="220" type="curve" smooth="yes"/>
      <point x="664" y="220"/>
      <point x="698" y="252"/>
      <point x="698" y="295" type="curve" smooth="yes"/>
      <point x="698" y="325"/>
      <point x="682" y="344"/>
      <point x="661" y="354" type="curve"/>
      <point x="653" y="318"/>
      <point x="631" y="290"/>
      <point x="593" y="290" type="curve" smooth="yes"/>
      <point x="550" y="290"/>
      <point x="523" y="323"/>
      <point x="508" y="387" type="curve" smooth="yes"/>
      <point x="496" y="438" type="line"/>
      <point x="391" y="402" type="line"/>
      <point x="391" y="394" type="line"/>
      <point x="488" y="427" type="line"/>
      <point x="508" y="338" type="line" smooth="yes"/>
      <point x="524" y="266"/>
      <point x="553" y="220"/>
    </contour>
    <component base="afii10073"/>
  </outline>
</glyph>
<glyph name="rlongleg" format="2">
  <advance width="450"/>
  <unicode hex="027C"/>
  <anchor x="117" y="-240" name="bottom"/>
  <anchor x="282" y="536" name="top"/>
  <outline>
    <contour>
      <point x="-37" y="-240" type="line"/>
      <point x="92" y="-240" type="line"/>
      <point x="210" y="294" type="line" smooth="yes"/>
      <point x="241" y="434"/>
      <point x="294" y="515"/>
      <point x="341" y="515" type="curve" smooth="yes"/>
      <point x="380" y="515"/>
      <point x="373" y="436"/>
      <point x="373" y="368" type="curve"/>
      <point x="425" y="368"/>
      <point x="477" y="396"/>
      <point x="477" y="462" type="curve" smooth="yes"/>
      <point x="477" y="517"/>
      <point x="443" y="546"/>
      <point x="386" y="546" type="curve" smooth="yes"/>
      <point x="315" y="546"/>
      <point x="262" y="501"/>
      <point x="225" y="377" type="curve"/>
      <point x="222" y="377" type="line"/>
      <point x="247" y="536" type="line"/>
      <point x="65" y="536" type="line"/>
      <point x="63" y="526" type="line"/>
      <point x="77" y="526" type="line" smooth="yes"/>
      <point x="107" y="526"/>
      <point x="115" y="516"/>
      <point x="115" y="497" type="curve" smooth="yes"/>
      <point x="115" y="481"/>
      <point x="111" y="464"/>
      <point x="107" y="444" type="curve" smooth="yes"/>
    </contour>
  </outline>
</glyph>
